<svg width="18" height="18" viewBox="0 0 18 18" fill="none" xmlns="http://www.w3.org/2000/svg">
<path d="M15.6614 12.8663C15.8442 12.6594 16.1564 12.6593 16.3392 12.8663C16.9098 13.5128 18.0003 14.8927 18.0003 16.0001C18.0002 17.1045 17.1047 17.9999 16.0003 18.0001C14.8958 18.0001 14.0003 17.1046 14.0003 16.0001C14.0003 14.8925 15.0909 13.5127 15.6614 12.8663ZM8.86943 0.224675C9.26221 -0.0955203 9.84126 -0.0730251 10.2073 0.293034L17.7073 7.79303C18.0976 8.18352 18.0976 8.81661 17.7073 9.2071L10.1214 16.793C8.98642 17.9278 7.16813 17.9634 5.99053 16.8995L5.8792 16.793L1.20732 12.1212C0.0359541 10.9496 0.0359531 9.05051 1.20732 7.87897L5.68975 3.39655L3.64678 1.35358L3.58232 1.27546C3.45416 1.08138 3.47591 0.817414 3.64678 0.64655C3.81764 0.475783 4.08165 0.453959 4.27568 0.582097L4.35381 0.64655L6.39678 2.68952L8.79326 0.293034L8.86943 0.224675ZM16.0003 14.0245C15.8222 14.2528 15.6354 14.5107 15.471 14.7803C15.1509 15.3055 15.0003 15.7309 15.0003 16.0001C15.0003 16.5523 15.448 17.0001 16.0003 17.0001C16.5524 16.9999 17.0002 16.5522 17.0003 16.0001C17.0003 15.731 16.8496 15.3054 16.5296 14.7803C16.3653 14.5107 16.1783 14.2527 16.0003 14.0245ZM7.10381 3.39655L9.85381 6.14655V6.14753C10.0497 6.05379 10.2687 6.00007 10.5003 6.00007C11.3286 6.00023 12.0003 6.67174 12.0003 7.50007C12.0002 8.32835 11.3286 8.9999 10.5003 9.00007C9.6719 9.00007 9.00034 8.32845 9.00029 7.50007C9.00029 7.2685 9.05308 7.04939 9.14678 6.85358L6.39678 4.10358L1.91436 8.586L1.77764 8.73737C1.13661 9.52287 1.18213 10.6818 1.91436 11.4141L6.58623 16.086C7.31862 16.8181 8.47754 16.8637 9.26299 16.2227L9.41436 16.086L17.0003 8.50007L9.50029 1.00007L7.10381 3.39655ZM10.5003 7.00007C10.2242 7.00007 10.0003 7.22392 10.0003 7.50007C10.0003 7.77617 10.2242 8.00007 10.5003 8.00007C10.7763 7.9999 11.0002 7.77606 11.0003 7.50007C11.0003 7.22402 10.7763 7.00023 10.5003 7.00007Z" fill="#1B1F24" fill-opacity="0.9"/>
</svg>
