<svg width="14" height="18" viewBox="0 0 14 18" fill="none" xmlns="http://www.w3.org/2000/svg">
<path d="M8.34473 0C8.74058 2.65922e-05 9.12042 0.156677 9.40137 0.435547L13.5566 4.55957C13.8404 4.84119 14 5.22524 14 5.625V16L13.9893 16.2041C13.887 17.2128 13.0356 18 12 18H2L1.7959 17.9893C0.787224 17.887 2.06229e-06 17.0357 0 16V2C2.27122e-05 0.964369 0.787234 0.113001 1.7959 0.0107422L2 0H8.34473ZM2 1C1.48234 1 1.05623 1.39336 1.00488 1.89746L1 2V16C1 16.5523 1.44772 17 2 17H12C12.5177 17 12.9438 16.6067 12.9951 16.1025L13 16V6H10C8.89543 6 8 5.10457 8 4V1H2ZM7.05078 7C7.32692 7 7.55078 7.22386 7.55078 7.5V9.5498H9.5C9.77614 9.5498 10 9.77366 10 10.0498C10 10.3259 9.77614 10.5498 9.5 10.5498H7.55078V12.5L7.54102 12.6006C7.49449 12.8286 7.29249 13 7.05078 13C6.80907 13 6.60707 12.8286 6.56055 12.6006L6.55078 12.5V10.5498H4.5C4.22386 10.5498 4 10.3259 4 10.0498C4 9.77366 4.22386 9.5498 4.5 9.5498H6.55078V7.5C6.55078 7.22386 6.77464 7 7.05078 7ZM9 4C9 4.55228 9.44771 5 10 5H12.5811L9 1.44531V4Z" fill="#1B1F24" fill-opacity="0.9"/>
</svg>
