<svg xmlns="http://www.w3.org/2000/svg" viewBox="0 0 32 32" fill="none" id="icon-color-absorber"><path fill-rule="evenodd" clip-rule="evenodd" d="M17.4144 10.3426C17.0239 9.95205 16.3907 9.95205 16.0002 10.3426C15.6097 10.7331 15.6097 11.3663 16.0002 11.7568L16.7073 12.4639L10.3432 18.828C9.698 19.4732 9.58579 20.4496 10.0066 21.21L9.3959 21.8206C9.17744 22.0391 9.17744 22.3933 9.39589 22.6117C9.61434 22.8302 9.96851 22.8302 10.187 22.6117L10.8 21.9987C11.5589 22.4128 12.5293 22.2987 13.1716 21.6564L19.5357 15.2923L20.2428 15.9994C20.6334 16.39 21.2665 16.39 21.6571 15.9994C22.0476 15.6089 22.0476 14.9757 21.6571 14.5852L20.9857 13.9138L23.657 11.2424C24.4381 10.4614 24.4381 9.19507 23.657 8.41402C22.876 7.63297 21.6097 7.63297 20.8286 8.41402L19.8886 9.35408C19.7632 9.43269 19.6447 9.52653 19.5356 9.6356L18.1215 11.0497L17.4144 10.3426ZM17.4144 13.171L18.8286 14.5852L12.4645 20.9493C12.1444 21.2694 11.659 21.3283 11.279 21.1209L11.0229 20.9812L10.8815 20.7258C10.6709 20.3451 10.7287 19.8567 11.0503 19.5351L17.4144 13.171Z" fill="currentColor"></path></svg>