<svg width="16" height="16" viewBox="0 0 16 16" fill="none" xmlns="http://www.w3.org/2000/svg">
<path d="M0.5 8C0.5 6.51664 0.939867 5.0666 1.76398 3.83323C2.58809 2.59986 3.75943 1.63856 5.12987 1.07091C6.50032 0.50325 8.00832 0.354725 9.46318 0.644114C10.918 0.933503 12.2544 1.64781 13.3033 2.6967C14.3522 3.7456 15.0665 5.08197 15.3559 6.53683C15.6453 7.99168 15.4968 9.49968 14.9291 10.8701C14.3614 12.2406 13.4001 13.4119 12.1668 14.236C10.9334 15.0601 9.48336 15.5 8 15.5H3.2C2.632 15.5 2.236 15.5 1.927 15.474C1.625 15.45 1.451 15.404 1.319 15.337C1.03651 15.1932 0.806853 14.9635 0.663 14.681C0.596 14.549 0.55 14.375 0.526 14.073C0.5 13.765 0.5 13.368 0.5 12.8V8Z" stroke="#1B1F24"/>
</svg>
