<svg aria-hidden="true" viewBox="0 0 24 24" fill="none" class="c-bxOhME c-bxOhME-dvzWZT-size-medium c-bxOhME-iPJLV-css"><path fill="currentColor" d="M12.05 4a8 8 0 0 0-1.75 15.808.52.52 0 0 0 .478-.144.913.913 0 0 0 .27-.664v-1c0-.366.028-.725.082-1.075A5.001 5.001 0 0 1 7 12h2a3 3 0 0 0 2.729 2.988A7 7 0 0 1 18.049 11h1a.913.913 0 0 0 .665-.27.52.52 0 0 0 .144-.478A8.005 8.005 0 0 0 12.062 4h-.013Zm6.585 9h-.586a5 5 0 0 0-5 5v.586L18.635 13ZM2.05 12c0-5.523 4.477-10 10-10h.014a9.948 9.948 0 0 1 5.817 1.875A9.987 9.987 0 0 1 22.05 12v.414L12.462 22h-.414c-5.523 0-10-4.477-10-10ZM8 8h2v2H8V8Zm6 0h2v2h-2V8Z"></path></svg>