<svg width="11" height="11" viewBox="0 0 11 11" fill="none" xmlns="http://www.w3.org/2000/svg">
<path fill-rule="evenodd" clip-rule="evenodd" d="M2 0.5C2 0.367392 1.94732 0.240215 1.85355 0.146447C1.75979 0.0526785 1.63261 0 1.5 0C1.36739 0 1.24021 0.0526785 1.14645 0.146447C1.05268 0.240215 1 0.367392 1 0.5V1H0.5C0.367392 1 0.240215 1.05268 0.146447 1.14645C0.0526785 1.24021 0 1.36739 0 1.5C0 1.63261 0.0526785 1.75979 0.146447 1.85355C0.240215 1.94732 0.367392 2 0.5 2H1V5H0.5C0.367392 5 0.240215 5.05268 0.146447 5.14645C0.0526785 5.24021 0 5.36739 0 5.5C0 5.63261 0.0526785 5.75979 0.146447 5.85355C0.240215 5.94732 0.367392 6 0.5 6H1V9H0.5C0.367392 9 0.240215 9.05268 0.146447 9.14645C0.0526785 9.24021 0 9.36739 0 9.5C0 9.63261 0.0526785 9.75979 0.146447 9.85355C0.240215 9.94732 0.367392 10 0.5 10H1V10.5C1 10.6326 1.05268 10.7598 1.14645 10.8536C1.24021 10.9473 1.36739 11 1.5 11C1.63261 11 1.75979 10.9473 1.85355 10.8536C1.94732 10.7598 2 10.6326 2 10.5V10H5V10.5C5 10.6326 5.05268 10.7598 5.14645 10.8536C5.24021 10.9473 5.36739 11 5.5 11C5.63261 11 5.75979 10.9473 5.85355 10.8536C5.94732 10.7598 6 10.6326 6 10.5V10H9V10.5C9 10.6326 9.05268 10.7598 9.14645 10.8536C9.24021 10.9473 9.36739 11 9.5 11C9.63261 11 9.75979 10.9473 9.85355 10.8536C9.94732 10.7598 10 10.6326 10 10.5V10H10.5C10.6326 10 10.7598 9.94732 10.8536 9.85355C10.9473 9.75979 11 9.63261 11 9.5C11 9.36739 10.9473 9.24021 10.8536 9.14645C10.7598 9.05268 10.6326 9 10.5 9H10V6H10.5C10.6326 6 10.7598 5.94732 10.8536 5.85355C10.9473 5.75979 11 5.63261 11 5.5C11 5.36739 10.9473 5.24021 10.8536 5.14645C10.7598 5.05268 10.6326 5 10.5 5H10V2H10.5C10.6326 2 10.7598 1.94732 10.8536 1.85355C10.9473 1.75979 11 1.63261 11 1.5C11 1.36739 10.9473 1.24021 10.8536 1.14645C10.7598 1.05268 10.6326 1 10.5 1H10V0.5C10 0.367392 9.94732 0.240215 9.85355 0.146447C9.75979 0.0526785 9.63261 0 9.5 0C9.36739 0 9.24021 0.0526785 9.14645 0.146447C9.05268 0.240215 9 0.367392 9 0.5V1H6V0.5C6 0.367392 5.94732 0.240215 5.85355 0.146447C5.75979 0.0526785 5.63261 0 5.5 0C5.36739 0 5.24021 0.0526785 5.14645 0.146447C5.05268 0.240215 5 0.367392 5 0.5V1H2V0.5ZM9 9V6H6V9H9ZM5 9V6H2V9H5ZM2 5V2H5V5H2ZM6 5V2H9V5H6Z" fill="#1B1F24"/>
</svg>
