<svg width="16" height="16" viewBox="0 0 16 16" fill="none" xmlns="http://www.w3.org/2000/svg">
<path d="M14 0C15.1046 0 16 0.895431 16 2V14C16 15.1046 15.1046 16 14 16H2L1.7959 15.9893C0.787223 15.887 0 15.0357 0 14V2C0 0.964349 0.787223 0.113005 1.7959 0.0107422L2 0H14ZM1 11.707V14C1 14.5523 1.44772 15 2 15H12.293L5 7.70703L1 11.707ZM2 1C1.44772 1 1 1.44772 1 2V10.293L4.64648 6.64648L4.72461 6.58203C4.91869 6.45387 5.18265 6.47562 5.35352 6.64648L13.707 15H14C14.5523 15 15 14.5523 15 14V2C15 1.44772 14.5523 1 14 1H2ZM10.5 3C11.8807 3 13 4.11929 13 5.5C13 6.88071 11.8807 8 10.5 8C9.11929 8 8 6.88071 8 5.5C8 4.11929 9.11929 3 10.5 3ZM10.5 4C9.67157 4 9 4.67157 9 5.5C9 6.32843 9.67157 7 10.5 7C11.3284 7 12 6.32843 12 5.5C12 4.67157 11.3284 4 10.5 4Z" fill="#1B1F24" fill-opacity="0.9"/>
</svg>
