<svg width="24" height="24" viewBox="0 0 24 24" fill="none" xmlns="http://www.w3.org/2000/svg">
  <path fill="currentColor" fill-rule="evenodd" clip-rule="evenodd" d="M19 2a3 3 0 1 1 0 6c-.463 0-.9-.109-1.291-.296l-1.19 1.19A3.992 3.992 0 0 1 18 12a3.991 3.991 0 0 1-1.48 3.105l1.189 1.19A2.984 2.984 0 0 1 19 16a3 3 0 1 1-3 3c0-.463.108-.9.295-1.291l-1.748-1.748A4.106 4.106 0 0 1 14 16h-4c-.186 0-.37-.014-.549-.04l-1.747 1.75c.187.392.296.828.296 1.291a3 3 0 1 1-3-3c.462 0 .899.108 1.29.295l1.19-1.19A3.992 3.992 0 0 1 6 12a3.99 3.99 0 0 1 1.48-3.106l-1.19-1.19A2.982 2.982 0 0 1 5 8a3 3 0 1 1 3-3c0 .463-.109.899-.296 1.29l1.748 1.748C9.632 8.014 9.814 8 10 8h4c.185 0 .368.013.547.037l1.748-1.747A2.983 2.983 0 0 1 16 5a3 3 0 0 1 3-3ZM5 18a1 1 0 1 0 0 2 1 1 0 0 0 0-2Zm14 0a1 1 0 1 0 0 2 1 1 0 0 0 0-2Zm-9-8a2 2 0 1 0 0 4h4a2 2 0 1 0 0-4h-4ZM5 4a1 1 0 1 0 0 2 1 1 0 0 0 0-2Zm14 0a1 1 0 1 0 0 2 1 1 0 0 0 0-2Z"/>
</svg>
