<svg width="16" height="16" viewBox="0 0 16 16" fill="none" xmlns="http://www.w3.org/2000/svg">
<path d="M14.5 0C15.3284 0 16 0.671573 16 1.5V9.57129L15.9902 9.76953C15.9447 10.2272 15.7421 10.6572 15.4141 10.9854L10.9854 15.4141L10.8389 15.5469C10.483 15.8385 10.0354 16 9.57129 16H1.5L1.34668 15.9922C0.590277 15.9154 0 15.2767 0 14.5V1.5C0 0.671573 0.671573 0 1.5 0H14.5ZM1.5 1C1.22386 1 1 1.22386 1 1.5V14.5C1 14.7761 1.22386 15 1.5 15H9V9.5L9.00977 9.39941C9.05629 9.17145 9.25829 9 9.5 9H15V1.5C15 1.22386 14.7761 1 14.5 1H1.5ZM10 10V14.9014C10.1021 14.8528 10.1969 14.7884 10.2783 14.707L14.707 10.2783C14.7885 10.1968 14.8538 10.1022 14.9023 10H10Z" fill="#1B1F24" fill-opacity="0.9"/>
</svg>
