<svg width="18" height="18" viewBox="0 0 18 18" fill="none" xmlns="http://www.w3.org/2000/svg">
<path fill-rule="evenodd" clip-rule="evenodd" d="M10.997 5.62H11V7C11 7.13261 11.0527 7.25979 11.1465 7.35356C11.2402 7.44732 11.3674 7.5 11.5 7.5C11.6326 7.5 11.7598 7.44732 11.8536 7.35356C11.9473 7.25979 12 7.13261 12 7V2.923C12.02 2.6653 12.139 2.42536 12.3321 2.25349C12.5251 2.08162 12.7773 1.99119 13.0355 2.00115C13.2938 2.0111 13.5382 2.12069 13.7175 2.30691C13.8967 2.49313 13.9969 2.74153 13.997 3V5.62H14V7C14 7.13261 14.0527 7.25979 14.1465 7.35356C14.2402 7.44732 14.3674 7.5 14.5 7.5C14.6326 7.5 14.7598 7.44732 14.8536 7.35356C14.9473 7.25979 15 7.13261 15 7V5C15 4.73479 15.1054 4.48043 15.2929 4.2929C15.4804 4.10536 15.7348 4 16 4C16.2652 4 16.5196 4.10536 16.7071 4.2929C16.8947 4.48043 17 4.73479 17 5V5.62H17.01V10.363C17.0103 10.4109 17.0069 10.4587 17 10.506C16.9968 10.5292 16.9945 10.5526 16.993 10.576C16.8701 12.2839 16.105 13.8818 14.8515 15.0482C13.598 16.2147 11.9493 16.8631 10.237 16.863C10.075 16.863 9.91801 16.859 9.76701 16.853C8.23201 16.783 6.88201 16.067 5.66001 14.933C4.43001 13.792 3.38001 12.273 2.47201 10.714C2.18301 10.219 1.98601 9.834 1.91701 9.521C1.89271 9.43553 1.88725 9.34579 1.90101 9.258C1.90801 9.229 1.92301 9.187 1.98801 9.123C2.05309 9.05357 2.13441 9.00141 2.22466 8.97121C2.31491 8.94101 2.41125 8.93372 2.50501 8.95C2.72901 8.98 3.02301 9.115 3.31201 9.384L3.31301 9.386L4.31301 10.331C4.45502 10.4653 4.63325 10.555 4.82568 10.589C5.01811 10.6231 5.2163 10.6 5.39577 10.5227C5.57524 10.4454 5.72811 10.3171 5.8355 10.1539C5.94288 9.99058 6.00008 9.79943 6.00001 9.604V3C6.00001 2.73479 6.10537 2.48043 6.2929 2.2929C6.48044 2.10536 6.7348 2 7.00001 2C7.26523 2 7.51958 2.10536 7.70712 2.2929C7.89465 2.48043 8.00001 2.73479 8.00001 3V7C8.00001 7.13261 8.05269 7.25979 8.14646 7.35356C8.24023 7.44732 8.3674 7.5 8.50001 7.5C8.63262 7.5 8.7598 7.44732 8.85357 7.35356C8.94733 7.25979 9.00001 7.13261 9.00001 7V2C9.00001 1.73479 9.10537 1.48043 9.2929 1.2929C9.48044 1.10536 9.73479 1 10 1C10.2652 1 10.5196 1.10536 10.7071 1.2929C10.8947 1.48043 11 1.73479 11 2V2.89C10.998 2.92664 10.997 2.96332 10.997 3V5.62ZM5.00001 5.5V3C5.00008 2.63777 5.09852 2.28235 5.28483 1.97171C5.47114 1.66106 5.73831 1.40684 6.05783 1.2362C6.37736 1.06555 6.73722 0.984888 7.09901 1.00282C7.4608 1.02075 7.81093 1.1366 8.11201 1.338C8.24888 0.946692 8.50397 0.607583 8.84198 0.36758C9.18 0.127577 9.58425 -0.00145855 9.9988 -0.00167819C10.4134 -0.00189782 10.8177 0.126709 11.156 0.366354C11.4943 0.605999 11.7497 0.944837 11.887 1.336C12.1882 1.13504 12.5383 1.01963 12.9 1.00206C13.2616 0.984492 13.6213 1.06544 13.9405 1.23625C14.2598 1.40707 14.5267 1.66136 14.7128 1.97198C14.8988 2.28261 14.9971 2.63792 14.997 3V3.27C15.301 3.09381 15.646 3.00079 15.9973 3.00032C16.3487 2.99985 16.6939 3.09194 16.9984 3.26732C17.3028 3.44271 17.5557 3.69519 17.7315 3.99936C17.9073 4.30354 18 4.64866 18 5V5.5H18.01V10.363C18.01 10.459 18.003 10.554 17.99 10.647C17.8492 12.6071 16.9712 14.441 15.5328 15.7799C14.0943 17.1187 12.2021 17.863 10.237 17.863C10.06 17.863 9.88801 17.859 9.72101 17.851C6.03901 17.684 3.46501 14.402 1.60801 11.218C1.04301 10.249 0.498011 9.175 1.29201 8.405C2.08501 7.636 3.19001 7.901 3.99701 8.655L4.00001 8.66L5.00001 9.605V5.5Z" fill="#1B1F24"/>
</svg>
