<svg width="19" height="19" viewBox="0 0 19 19" fill="none" xmlns="http://www.w3.org/2000/svg">
<path fill-rule="evenodd" clip-rule="evenodd" d="M0.00804386 1.124C-0.0107825 0.972945 0.00512428 0.819588 0.0545517 0.675614C0.103979 0.53164 0.185623 0.400851 0.29326 0.293214C0.400897 0.185577 0.531686 0.103933 0.67566 0.0545059C0.819633 0.0050785 0.972991 -0.0108283 1.12404 0.00799809L5.12404 0.507998C5.34466 0.535549 5.54979 0.635832 5.70704 0.792998L17.5 12.586C17.875 12.9611 18.0856 13.4697 18.0856 14C18.0856 14.5303 17.875 15.0389 17.5 15.414L15.414 17.5C15.039 17.8749 14.5304 18.0856 14 18.0856C13.4697 18.0856 12.9611 17.8749 12.586 17.5L0.793044 5.707C0.635877 5.54975 0.535595 5.34461 0.508044 5.124L0.00804386 1.124ZM1.00004 0.999998L1.12804 2.024L1.50004 5L10.646 14.146L14.146 10.646L5.00004 1.5L2.02404 1.128L1.00004 0.999998ZM14.854 11.354L11.354 14.854L13.293 16.793C13.4806 16.9805 13.7349 17.0858 14 17.0858C14.2652 17.0858 14.5195 16.9805 14.707 16.793L16.793 14.707C16.9805 14.5195 17.0858 14.2652 17.0858 14C17.0858 13.7348 16.9805 13.4805 16.793 13.293L14.853 11.353L14.854 11.354Z" fill="#1B1F24"/>
</svg>
