<svg width="14" height="10" viewBox="0 0 14 10" fill="none" xmlns="http://www.w3.org/2000/svg">
<path fill-rule="evenodd" clip-rule="evenodd" d="M10.1456 9.85411C10.099 9.80766 10.0621 9.75249 10.0369 9.69174C10.0117 9.63099 9.99871 9.56587 9.99871 9.50011C9.99871 9.43434 10.0117 9.36922 10.0369 9.30847C10.0621 9.24773 10.099 9.19255 10.1456 9.14611L12.2926 7.00011H3.49961C2.57135 7.00011 1.68111 6.63136 1.02473 5.97498C0.368355 5.3186 -0.000392914 4.42836 -0.000392914 3.50011C-0.000392914 2.57185 0.368355 1.68161 1.02473 1.02523C1.68111 0.368855 2.57135 0.000106812 3.49961 0.000106812H4.49961C4.63222 0.000106812 4.75939 0.0527849 4.85316 0.146553C4.94693 0.240321 4.99961 0.367498 4.99961 0.500107C4.99961 0.632715 4.94693 0.759892 4.85316 0.853661C4.75939 0.947429 4.63222 1.00011 4.49961 1.00011H3.49961C2.83657 1.00011 2.20068 1.2635 1.73184 1.73234C1.263 2.20118 0.999607 2.83707 0.999607 3.50011C0.999607 4.16315 1.263 4.79903 1.73184 5.26787C2.20068 5.73671 2.83657 6.00011 3.49961 6.00011H12.2926L10.1456 3.85411C10.0517 3.76022 9.99898 3.63288 9.99898 3.50011C9.99898 3.36733 10.0517 3.23999 10.1456 3.14611C10.2395 3.05222 10.3668 2.99948 10.4996 2.99948C10.6324 2.99948 10.7597 3.05222 10.8536 3.14611L13.8536 6.14611C13.9473 6.23987 14 6.36702 14 6.49961C14 6.63219 13.9473 6.75934 13.8536 6.85311L10.8536 9.85311C10.8072 9.89967 10.752 9.93661 10.6912 9.96182C10.6305 9.98703 10.5654 10 10.4996 10C10.4338 10 10.3687 9.98703 10.308 9.96182C10.2472 9.93661 10.1921 9.90067 10.1456 9.85411Z" fill="#1B1F24"/>
</svg>
