<svg width="17" height="17" viewBox="0 0 17 17" fill="none" xmlns="http://www.w3.org/2000/svg">
<mask id="mask0_66_4379" style="mask-type:luminance" maskUnits="userSpaceOnUse" x="0" y="0" width="17" height="17">
<path d="M0 0H17V17H0V0Z" fill="white"/>
<path fill-rule="evenodd" clip-rule="evenodd" d="M15.294 8.06299C15.4924 8.00216 15.6669 7.88112 15.7934 7.71665C15.92 7.55217 15.9922 7.35242 16.0001 7.14506C16.008 6.93771 15.9512 6.73303 15.8376 6.5594C15.724 6.38576 15.5592 6.25177 15.366 6.17599L2.36599 1.06899C2.18473 0.997562 1.98654 0.980637 1.79579 1.0203C1.60503 1.05996 1.43002 1.15448 1.29225 1.29225C1.15448 1.43002 1.05996 1.60503 1.0203 1.79579C0.980637 1.98654 0.997562 2.18473 1.06899 2.36599L6.17599 15.366C6.25177 15.5592 6.38576 15.724 6.5594 15.8376C6.73303 15.9512 6.93771 16.008 7.14506 16.0001C7.35242 15.9922 7.55217 15.92 7.71665 15.7934C7.88112 15.6669 8.00216 15.4924 8.06299 15.294L9.76399 9.76399L15.294 8.06299Z" fill="black"/>
</mask>
<g mask="url(#mask0_66_4379)">
<path d="M9.764 9.764L9.47 8.809C9.31431 8.857 9.17271 8.94231 9.05751 9.05751C8.94231 9.17271 8.857 9.31431 8.809 9.47L9.764 9.764ZM15 7.107L15.588 9.019C15.9844 8.89694 16.333 8.65467 16.5856 8.32573C16.8382 7.99679 16.9824 7.59745 16.998 7.183L15 7.107ZM15 7.107L16.999 7.183C17.0146 6.76851 16.9009 6.35942 16.6738 6.01238C16.4466 5.66534 16.1171 5.39752 15.731 5.246L15 7.107ZM2 2L15 7.107L15.731 5.246L2.731 0.138998L2 2ZM2 2L2.731 0.138998C2.36874 -0.00327954 1.97285 -0.0367717 1.59184 0.0426271C1.21083 0.122026 0.861269 0.310866 0.585999 0.585998L2 2ZM2 2L0.585999 0.585998C0.310697 0.861157 0.12167 1.21067 0.0420925 1.59168C-0.0374851 1.9727 -0.00315414 2.36865 0.138999 2.731L2 2ZM7.107 15L2 2L0.138999 2.731L5.246 15.731L7.107 15ZM7.107 15L5.246 15.731C5.39735 16.1173 5.66511 16.447 6.01216 16.6743C6.35921 16.9017 6.76839 17.0155 7.183 17L7.107 15ZM7.107 15L7.183 17C7.59745 16.9844 7.99679 16.8392 8.32573 16.5866C8.65467 16.334 8.89694 15.9854 9.019 15.589L7.107 15ZM8.809 9.47L7.107 15L9.019 15.588L10.72 10.058L8.809 9.47ZM15 7.107L9.47 8.809L10.058 10.72L15.588 9.019L15 7.107Z" fill="currentColor"/>
</g>
</svg>
