<svg aria-hidden="true" viewBox="0 0 24 24" fill="none" class="c-bxOhME c-bxOhME-dvzWZT-size-medium c-bxOhME-iPJLV-css"><path fill="currentColor" fill-rule="evenodd" d="m7.374 13.514 3.9 7L10.4 22H2.5l-.868-1.496 4-7 1.742.01ZM4.223 20h4.475l-2.21-3.966L4.223 20Zm17.774-5.923-.5 6.5-1.994-.154.292-3.805-5.088 5.089-1.414-1.414 5.089-5.09-3.805.294-.154-1.994 6.5-.5 1.074 1.074ZM17.75 1.75a4.75 4.75 0 1 1 0 9.5 4.75 4.75 0 0 1 0-9.5Zm0 2a2.75 2.75 0 1 0 0 5.5 2.75 2.75 0 0 0 0-5.5ZM11 3v7l-1 1H3l-1-1V3l1-1h7l1 1ZM4 9h5V4H4v5Z" clip-rule="evenodd"></path></svg>