<svg width="17" height="17" viewBox="0 0 17 17" fill="none" xmlns="http://www.w3.org/2000/svg">
<path d="M5.99992 9.99977C7.10449 9.99977 7.99992 10.8952 7.99992 11.9998V14.9998C7.99992 16.1043 7.10449 16.9998 5.99992 16.9998H2.99992C1.89535 16.9998 0.999924 16.1043 0.999924 14.9998V11.9998C0.999924 10.8952 1.89536 9.99977 2.99992 9.99977H5.99992ZM13.4999 9.99977C13.7761 9.99977 13.9999 10.2236 13.9999 10.4998V12.9998H16.4999C16.7761 12.9998 16.9999 13.2236 16.9999 13.4998C16.9999 13.7759 16.7761 13.9998 16.4999 13.9998H13.9999V16.4998C13.9999 16.7759 13.7761 16.9998 13.4999 16.9998C13.2238 16.9998 12.9999 16.7759 12.9999 16.4998V13.9998H10.4999C10.2238 13.9998 9.99992 13.7759 9.99992 13.4998C9.99992 13.2236 10.2238 12.9998 10.4999 12.9998H12.9999V10.4998C12.9999 10.2236 13.2238 9.99977 13.4999 9.99977ZM2.99992 10.9998L2.89739 11.0046C2.39326 11.056 1.99992 11.4821 1.99992 11.9998V14.9998L2.00481 15.1023C2.05271 15.5727 2.42696 15.947 2.89739 15.9949L2.99992 15.9998H5.99992L6.10246 15.9949C6.57289 15.947 6.94714 15.5727 6.99504 15.1023L6.99992 14.9998V11.9998C6.99992 11.4821 6.60659 11.056 6.10246 11.0046L5.99992 10.9998H2.99992ZM3.86907 0.724375C4.26184 0.404025 4.84084 0.426618 5.20696 0.792734L8.20696 3.79273L8.27532 3.86891C8.57431 4.23549 8.57431 4.76404 8.27532 5.13062L8.20696 5.2068L5.20696 8.2068C4.84084 8.57291 4.26184 8.59551 3.86907 8.27516L3.79289 8.2068L0.792893 5.2068C0.402369 4.81627 0.402369 4.18326 0.792893 3.79273L3.79289 0.792734L3.86907 0.724375ZM13.4999 0.999766C15.4329 0.999766 16.9999 2.56677 16.9999 4.49977C16.9999 6.43276 15.4329 7.99977 13.4999 7.99977C11.5669 7.99977 9.99992 6.43276 9.99992 4.49977C9.99992 2.56677 11.5669 0.999766 13.4999 0.999766ZM1.49992 4.49977L4.49992 7.49977L7.49992 4.49977L4.49992 1.49977L1.49992 4.49977ZM13.4999 1.99977C12.1192 1.99977 10.9999 3.11905 10.9999 4.49977C10.9999 5.88048 12.1192 6.99977 13.4999 6.99977C14.8806 6.99977 15.9999 5.88048 15.9999 4.49977C15.9999 3.11905 14.8806 1.99977 13.4999 1.99977Z" fill="#1B1F24" fill-opacity="0.9"/>
</svg>
