<svg width="14" height="10" viewBox="0 0 14 10" fill="none" xmlns="http://www.w3.org/2000/svg">
<path fill-rule="evenodd" clip-rule="evenodd" d="M3.85403 0.146016C3.90059 0.192461 3.93753 0.247637 3.96274 0.308382C3.98795 0.369127 4.00092 0.434248 4.00092 0.500016C4.00092 0.565783 3.98795 0.630904 3.96274 0.691649C3.93753 0.752395 3.90059 0.80757 3.85403 0.854016L1.70703 3.00002H10.5C11.4283 3.00002 12.3185 3.36876 12.9749 4.02514C13.6313 4.68152 14 5.57176 14 6.50002C14 7.42827 13.6313 8.31851 12.9749 8.97489C12.3185 9.63127 11.4283 10 10.5 10H9.50003C9.36742 10 9.24024 9.94734 9.14647 9.85357C9.0527 9.7598 9.00003 9.63262 9.00003 9.50002C9.00003 9.36741 9.0527 9.24023 9.14647 9.14646C9.24024 9.05269 9.36742 9.00002 9.50003 9.00002H10.5C11.1631 9.00002 11.799 8.73662 12.2678 8.26778C12.7366 7.79894 13 7.16306 13 6.50002C13 5.83697 12.7366 5.20109 12.2678 4.73225C11.799 4.26341 11.1631 4.00002 10.5 4.00002H1.70703L3.85403 6.14602C3.94791 6.2399 4.00066 6.36724 4.00066 6.50002C4.00066 6.63279 3.94791 6.76013 3.85403 6.85402C3.76014 6.9479 3.6328 7.00065 3.50003 7.00065C3.36725 7.00065 3.23991 6.9479 3.14603 6.85402L0.146027 3.85402C0.0522916 3.76025 -0.000366211 3.6331 -0.000366211 3.50052C-0.000366211 3.36793 0.0522916 3.24078 0.146027 3.14702L3.14603 0.147016C3.19247 0.100452 3.24765 0.0635098 3.30839 0.0383034C3.36914 0.0130969 3.43426 0.00012207 3.50003 0.00012207C3.56579 0.00012207 3.63092 0.0130969 3.69166 0.0383034C3.75241 0.0635098 3.80758 0.0994524 3.85403 0.146016Z" fill="#1B1F24"/>
</svg>
