<svg xmlns="http://www.w3.org/2000/svg" width="16" height="16" fill="none" viewBox="0 0 16 16" class="text-base-10 in-disabled:text-content-3 size-4"><path fill="currentColor" d="M9.28 1c.886 0 1.588-.001 2.152.045.57.047 1.053.145 1.494.37a3.8 3.8 0 0 1 1.66 1.66c.225.44.322.924.37 1.494C15 5.133 15 5.834 15 6.72v2.56c0 .886 0 1.588-.046 2.152-.046.57-.145 1.053-.37 1.494a3.8 3.8 0 0 1-1.66 1.66c-.44.224-.923.322-1.493.37C10.868 15 10.166 15 9.28 15H6.72c-.885 0-1.586 0-2.15-.046-.57-.046-1.054-.144-1.495-.369a3.8 3.8 0 0 1-1.66-1.66c-.225-.441-.322-.924-.37-1.494-.045-.564-.044-1.266-.044-2.152V6.72c0-.885-.001-1.586.045-2.15.047-.57.144-1.054.369-1.495a3.8 3.8 0 0 1 1.66-1.66c.441-.224.925-.322 1.495-.37C5.134 1 5.835 1 6.72 1zm1.268 7.117a1.8 1.8 0 0 0-.985.04c-.15.049-.314.138-.557.326-.25.193-.546.46-.974.845l-4.561 4.106q.072.044.15.083c.243.124.55.2 1.047.24.503.042 1.147.043 2.053.043h2.56c.905 0 1.549-.001 2.052-.042.496-.04.804-.117 1.048-.241.489-.25.887-.648 1.137-1.137.123-.244.2-.552.24-1.048.022-.264.032-.566.037-.925l-1.627-1.244a19 19 0 0 0-1.04-.765c-.256-.167-.427-.244-.58-.28M6.72 2.2c-.906 0-1.55.001-2.053.042-.496.04-.804.118-1.048.242-.489.25-.886.647-1.136 1.136-.124.244-.201.552-.242 1.048-.04.503-.042 1.147-.042 2.053v2.56c0 .905.001 1.549.042 2.052.04.496.118.804.242 1.048a3 3 0 0 0 .123.215L7.23 8.437c.415-.374.75-.676 1.043-.903.3-.23.587-.409.917-.517a3 3 0 0 1 1.64-.067c.339.082.64.237.956.444.31.202.668.477 1.111.816l.905.691V6.72c0-.906-.001-1.55-.042-2.053-.04-.496-.117-.804-.241-1.048a2.6 2.6 0 0 0-1.137-1.136c-.244-.124-.552-.201-1.048-.242-.503-.04-1.147-.042-2.053-.042zM5.3 4a1.3 1.3 0 1 1 0 2.6 1.3 1.3 0 0 1 0-2.6"></path></svg>