<svg xmlns="http://www.w3.org/2000/svg" width="16" height="16" fill="none" viewBox="0 0 16 16" class="text-base-10 in-disabled:text-content-3 size-4"><g clip-path="url(#_r90___a)"><path fill="currentColor" d="m4.773 8.557 3.19-3.189a.603.603 0 0 1 .851.852L5.625 9.41A.9.9 0 0 0 6.9 10.682l4.666-4.666a2.404 2.404 0 1 0-3.4-3.4L3.383 7.4a3.907 3.907 0 0 0 5.525 5.525l2.243-2.242a.602.602 0 0 1 .851.851L9.76 13.777a5.112 5.112 0 1 1-7.23-7.23l4.783-4.782a3.61 3.61 0 0 1 5.104 5.104L7.75 11.535a2.106 2.106 0 0 1-2.978-2.978"></path></g><defs><clipPath id="_r90___a"><path fill="#fff" d="M0 0h16v16H0z"></path></clipPath></defs></svg>