<svg xmlns="http://www.w3.org/2000/svg" width="16" height="16" fill="none" viewBox="0 0 16 16"><path fill="currentColor" d="m8.684 15 2.304-6.39h1.62L14.912 15H13.49l-.468-1.359h-2.457L10.097 15zm2.268-2.484h1.692l-.846-2.466zM4.4 8.6c.41 0 .754 0 1.035.023.287.024.56.074.819.206.395.201.717.523.918.918.132.259.182.532.206.82.023.28.022.624.022 1.034V12c0 .41 0 .754-.022 1.034-.024.287-.074.56-.206.82a2.1 2.1 0 0 1-.918.918c-.259.131-.532.182-.82.205C5.155 15 4.81 15 4.4 15h-.399c-.41 0-.754 0-1.034-.023-.287-.023-.56-.074-.82-.206a2.1 2.1 0 0 1-.918-.918c-.131-.258-.182-.532-.206-.819-.022-.28-.022-.624-.022-1.034v-.4c0-.41 0-.753.022-1.034.024-.287.075-.56.206-.819.202-.395.523-.717.918-.918.26-.132.533-.183.82-.206.28-.023.624-.022 1.034-.022zm-.399 1.2c-.43 0-.717 0-.937.018-.212.018-.31.05-.372.08a.9.9 0 0 0-.393.394c-.032.062-.063.16-.08.372-.018.22-.019.507-.019.937V12c0 .43 0 .716.019.937.017.212.048.31.08.372.086.169.224.307.393.393.062.031.16.063.372.08.22.018.508.018.937.018h.4c.429 0 .716 0 .936-.018.212-.017.31-.048.372-.08a.9.9 0 0 0 .394-.393c.031-.062.062-.16.08-.372.018-.22.017-.507.017-.937v-.4c0-.429 0-.716-.017-.936-.018-.212-.05-.31-.08-.372a.9.9 0 0 0-.394-.394c-.062-.031-.16-.062-.372-.08C5.117 9.8 4.83 9.8 4.4 9.8zM12 1c.41 0 .754 0 1.034.022.287.024.56.075.82.207.395.2.716.522.918.917.131.26.182.533.205.82C15 3.246 15 3.59 15 4v.4c0 .41 0 .753-.023 1.034-.023.287-.074.56-.206.819a2.1 2.1 0 0 1-.918.918c-.259.132-.532.182-.819.206-.28.023-.624.022-1.034.022h-.4c-.41 0-.753 0-1.034-.022-.287-.024-.56-.074-.819-.206a2.1 2.1 0 0 1-.918-.918c-.132-.26-.183-.532-.206-.82-.023-.28-.022-.624-.022-1.034V4c0-.41 0-.754.022-1.034.024-.287.074-.56.206-.82.201-.395.523-.716.918-.917.26-.132.532-.183.82-.207C10.846 1 11.19 1 11.6 1zm-.4 1.2c-.43 0-.716 0-.936.018-.213.017-.31.048-.372.08a.9.9 0 0 0-.394.393c-.031.062-.062.16-.08.372C9.8 3.283 9.8 3.57 9.8 4v.4c0 .43 0 .716.018.936.018.213.049.31.08.372.087.17.225.307.394.394.062.031.16.062.372.08.22.018.507.017.937.017H12c.43 0 .716 0 .937-.017.212-.018.31-.049.372-.08a.9.9 0 0 0 .393-.394c.031-.062.063-.16.08-.372.018-.22.018-.507.018-.937V4c0-.43 0-.717-.018-.937-.017-.212-.049-.31-.08-.372a.9.9 0 0 0-.393-.393c-.062-.032-.16-.063-.372-.08-.22-.018-.507-.019-.937-.019zM4.4 1c.41 0 .754 0 1.035.022.287.024.56.075.819.207.395.2.717.522.918.917.132.26.182.533.206.82.023.28.022.624.022 1.034v.4c0 .41 0 .753-.022 1.034-.024.287-.074.56-.206.819a2.1 2.1 0 0 1-.918.918c-.259.132-.532.182-.82.206-.28.023-.624.022-1.034.022h-.399c-.41 0-.754 0-1.034-.022-.287-.023-.56-.074-.82-.206a2.1 2.1 0 0 1-.918-.918c-.131-.26-.182-.532-.206-.82-.022-.28-.022-.624-.022-1.034V4c0-.41 0-.754.022-1.034.024-.287.075-.56.206-.82.202-.394.523-.716.918-.917.26-.132.533-.183.82-.207C3.247 1 3.59 1 4 1zm-.399 1.2c-.43 0-.717 0-.937.018-.212.017-.31.049-.372.08a.9.9 0 0 0-.393.393c-.032.062-.063.16-.08.372C2.2 3.283 2.2 3.57 2.2 4v.4c0 .43 0 .716.019.936.017.213.048.31.08.372.086.17.224.307.393.394.062.03.16.062.372.08.22.018.507.017.937.017h.4c.429 0 .716 0 .936-.017.212-.018.31-.049.372-.08a.9.9 0 0 0 .394-.394c.03-.062.062-.16.08-.372.018-.22.017-.507.017-.937V4c0-.43 0-.717-.017-.937-.018-.212-.05-.31-.08-.372a.9.9 0 0 0-.394-.393c-.062-.032-.16-.063-.372-.08-.22-.018-.507-.019-.937-.019z"></path></svg>