<svg width="22" height="22" viewBox="0 0 22 22" fill="none" xmlns="http://www.w3.org/2000/svg" stroke="currentColor" stroke-width="1.5" stroke-linecap="round" stroke-linejoin="round" type="bullet-list" size="22"><path d="M8.28516 5.49609H19.2852M8.28516 11H19.2852M8.28516 16.4961H19.2852M4.21484 17.25C4.62906 17.25 4.96484 16.9142 4.96484 16.5C4.96484 16.0858 4.62906 15.75 4.21484 15.75C3.80063 15.75 3.46484 16.0858 3.46484 16.5C3.46484 16.9142 3.80063 17.25 4.21484 17.25ZM4.21484 11.75C4.62906 11.75 4.96484 11.4142 4.96484 11C4.96484 10.5858 4.62906 10.25 4.21484 10.25C3.80063 10.25 3.46484 10.5858 3.46484 11C3.46484 11.4142 3.80063 11.75 4.21484 11.75ZM4.21484 6.24609C4.62906 6.24609 4.96484 5.91031 4.96484 5.49609C4.96484 5.08188 4.62906 4.74609 4.21484 4.74609C3.80063 4.74609 3.46484 5.08188 3.46484 5.49609C3.46484 5.91031 3.80063 6.24609 4.21484 6.24609Z"></path></svg>