<svg width="22" height="22" viewBox="0 0 22 22" fill="none" xmlns="http://www.w3.org/2000/svg" stroke="currentColor" stroke-width="1.6" stroke-linecap="round" stroke-linejoin="round" type="number-list" size="22"><path d="M8.28516 5.49505H19.2852M8.28516 10.999H19.2852M8.28516 16.4951H19.2852M3.30078 5.32812L4.67578 4.64062V9.45312M3.39531 13.2839C3.45867 13.1269 3.55438 12.9853 3.67622 12.8678C3.79808 12.7505 3.9433 12.6602 4.10242 12.6027C4.26156 12.5453 4.43101 12.5221 4.59972 12.5345C4.76844 12.547 4.93262 12.595 5.08156 12.6752C5.23049 12.7555 5.36082 12.8662 5.46407 13.0002C5.56729 13.1343 5.6411 13.2885 5.68067 13.453C5.72022 13.6175 5.72466 13.7885 5.69366 13.9549C5.66266 14.1211 5.59693 14.279 5.50078 14.4182L3.30078 17.3573H5.70703"></path></svg>