<svg width="24" height="24" viewBox="0 0 22 22" fill="currentColor" xmlns="http://www.w3.org/2000/svg" type="dots-horizontal" size="24"><path d="M16.2246 12.375C16.984 12.375 17.5996 11.7594 17.5996 11C17.5996 10.2406 16.984 9.625 16.2246 9.625C15.4652 9.625 14.8496 10.2406 14.8496 11C14.8496 11.7594 15.4652 12.375 16.2246 12.375Z"></path><path d="M11 12.375C11.7594 12.375 12.375 11.7594 12.375 11C12.375 10.2406 11.7594 9.625 11 9.625C10.2406 9.625 9.625 10.2406 9.625 11C9.625 11.7594 10.2406 12.375 11 12.375Z"></path><path d="M5.77539 12.375C6.53478 12.375 7.15039 11.7594 7.15039 11C7.15039 10.2406 6.53478 9.625 5.77539 9.625C5.016 9.625 4.40039 10.2406 4.40039 11C4.40039 11.7594 5.016 12.375 5.77539 12.375Z"></path></svg>