<svg xmlns="http://www.w3.org/2000/svg" width="16" height="16" fill="none" viewBox="0 0 16 16"><path fill="currentColor" d="M8 11.771a.6.6 0 1 1 0 1.2L1.6 13a.6.6 0 0 1 0-1.2zm2-4.37A.6.6 0 1 1 10 8.6H1.6a.6.6 0 1 1 0-1.2zM14.4 3a.6.6 0 1 1 0 1.2H1.6a.6.6 0 1 1 0-1.2zm-1.101 5.5a.346.346 0 0 0-.643 0l-.174.417a2.98 2.98 0 0 1-1.538 1.59l-.489.218a.362.362 0 0 0 0 .658l.519.231c.675.3 1.216.85 1.516 1.538l.168.387a.347.347 0 0 0 .639 0l.168-.387c.3-.689.841-1.237 1.516-1.538l.519-.231a.362.362 0 0 0 0-.658l-.49-.218a3 3 0 0 1-1.538-1.59z"></path></svg>