<svg width="20" height="20" viewBox="0 0 20 20" xmlns="http://www.w3.org/2000/svg" fill="currentColor">
  <path d="M10 2C8.9 2 8 2.9 8 4C8 5.1 8.9 6 10 6C11.1 6 12 5.1 12 4C12 2.9 11.1 2 10 2Z"/>
  <path d="M10 8C8.9 8 8 8.9 8 10C8 11.1 8.9 12 10 12C11.1 12 12 11.1 12 10C12 8.9 11.1 8 10 8Z"/>
  <path d="M10 14C8.9 14 8 14.9 8 16C8 17.1 8.9 18 10 18C11.1 18 12 17.1 12 16C12 14.9 11.1 14 10 14Z"/>
  <path d="M6 6C4.9 6 4 6.9 4 8C4 9.1 4.9 10 6 10C7.1 10 8 9.1 8 8C8 6.9 7.1 6 6 6Z"/>
  <path d="M14 6C12.9 6 12 6.9 12 8C12 9.1 12.9 10 14 10C15.1 10 16 9.1 16 8C16 6.9 15.1 6 14 6Z"/>
</svg>
