<svg aria-hidden="true" viewBox="0 0 24 24" fill="none" class="c-bxOhME c-bxOhME-dvzWZT-size-medium c-bxOhME-iPJLV-css"><path fill="currentColor" fill-rule="evenodd" d="M14.492 3.414 8.921 8.985a4.312 4.312 0 0 0 6.105 6.09l5.564-5.562 1.414 1.414-5.664 5.664a6.002 6.002 0 0 1-2.182 1.392L3.344 21.94 2.06 20.656 6.02 9.845c.3-.82.774-1.563 1.391-2.18l.093-.092.01-.01L13.077 2l1.415 1.414ZM4.68 19.32l4.486-1.64a6.305 6.305 0 0 1-1.651-1.19 6.306 6.306 0 0 1-1.192-1.655L4.68 19.32Z" clip-rule="evenodd"></path></svg>
