<svg xmlns="http://www.w3.org/2000/svg" width="36" height="36" fill="none" viewBox="0 0 36 36" class="size-9 shrink-0"><path fill="#633BCA" d="M18.616 7.096q.601 1.06 1.2 2.122a.18.18 0 0 0 .16.093h5.68q.266.001.456.335l1.487 2.629c.194.344.245.489.024.856q-.398.66-.777 1.33l-.375.672c-.109.2-.228.287-.041.524l2.712 4.743c.176.308.114.505-.043.788q-.672 1.203-1.366 2.393c-.163.278-.36.384-.695.378a44 44 0 0 0-2.38.017.1.1 0 0 0-.084.05 587 587 0 0 1-2.766 4.85c-.173.299-.389.37-.742.371q-1.529.006-3.086.002a.55.55 0 0 1-.475-.277l-1.366-2.376a.09.09 0 0 0-.085-.05H10.82a1.8 1.8 0 0 1-.824-.094l-1.64-2.833a.56.56 0 0 1-.002-.553l1.235-2.168a.2.2 0 0 0 0-.201 560 560 0 0 1-1.918-3.347l-.808-1.427c-.163-.317-.177-.507.097-.987q.714-1.247 1.419-2.492c.135-.239.311-.341.597-.342q1.325-.006 2.648-.001a.13.13 0 0 0 .11-.065l2.87-5.007a.5.5 0 0 1 .432-.251c.536-.001 1.077 0 1.619-.006l1.04-.024c.349-.003.74.033.92.348m-3.51.412a.06.06 0 0 0-.054.03l-2.931 5.13a.16.16 0 0 1-.139.08H9.052q-.086 0-.042.076l5.943 10.388q.037.063-.035.064l-2.859.015a.22.22 0 0 0-.204.12l-1.35 2.362q-.068.12.069.12l5.846.009q.07 0 .107.062l1.435 2.51q.07.125.142 0l5.12-8.96.801-1.413a.1.1 0 0 1 .02-.021.06.06 0 0 1 .058 0 .1.1 0 0 1 .02.02l1.457 2.588a.12.12 0 0 0 .11.064l2.825-.02a.04.04 0 0 0 .041-.042.04.04 0 0 0-.005-.02l-2.966-5.202a.11.11 0 0 1 0-.116l.3-.518 1.145-2.022q.037-.064-.035-.064h-11.86q-.09 0-.044-.079l1.467-2.562a.11.11 0 0 0 0-.116L15.159 7.54a.06.06 0 0 0-.054-.032m6.433 8.203q.072 0 .034.062l-.85 1.498-2.673 4.69a.06.06 0 0 1-.051.03.06.06 0 0 1-.051-.03l-3.532-6.17q-.03-.052.028-.055l.221-.013 6.876-.012z"></path></svg>