<svg width="24" height="24" viewBox="0 0 24 24" fill="currentColor" xmlns="http://www.w3.org/2000/svg" type="text-format" size="24"><path fill-rule="evenodd" clip-rule="evenodd" d="M7.54459 15.3341C7.52012 15.4823 7.52819 15.634 7.56823 15.7787C7.60828 15.9234 7.67935 16.0576 7.77651 16.1721C7.87366 16.2866 7.99458 16.3786 8.13085 16.4416C8.26712 16.5047 8.41548 16.5373 8.56563 16.5372H11.9587C12.8918 16.5372 13.6811 16.3966 14.3277 16.1141C14.9742 15.8286 15.4822 15.4417 15.8505 14.9566C16.2229 14.4662 16.4608 13.9138 16.5674 13.2993C16.6656 12.6755 16.6242 12.1469 16.4432 11.7124C16.2632 11.2779 16.0005 10.9417 15.657 10.7069C15.3354 10.4746 14.9536 10.3399 14.5574 10.319L14.5801 10.201C14.9567 10.1079 15.3146 9.9569 15.656 9.74897C15.9974 9.54207 16.287 9.2669 16.526 8.92552C16.7691 8.58414 16.9315 8.16414 17.0142 7.66241C17.1156 7.06655 17.0691 6.53172 16.8725 6.05793C16.676 5.58 16.3201 5.20138 15.8029 4.9231C15.2898 4.64069 14.607 4.5 13.7515 4.5H10.2208C9.97593 4.50011 9.73904 4.58708 9.55227 4.74544C9.3655 4.9038 9.24096 5.12328 9.2008 5.36483L7.54563 15.3341H7.54459ZM12.0415 14.9803H9.42011L10.0667 11.1238H12.7522C13.2384 11.1238 13.6418 11.2179 13.9625 11.4062C14.2884 11.5945 14.5201 11.8469 14.6567 12.1645C14.7974 12.4821 14.8387 12.8307 14.7808 13.2114C14.6898 13.7162 14.428 14.1372 13.9925 14.4745C13.5622 14.8117 12.9115 14.9803 12.0415 14.9803ZM12.7346 9.70759H10.3077L10.9077 6.04552H13.3874C14.1042 6.04552 14.608 6.21414 14.8977 6.55138C15.1915 6.88448 15.296 7.30138 15.2091 7.8031C15.1511 8.1869 15.0022 8.52207 14.7632 8.80862C14.5274 9.09414 14.2315 9.31552 13.8756 9.47276C13.5229 9.62897 13.1422 9.70759 12.7346 9.70759ZM6.56908 17.9483C6.3633 17.9483 6.16596 18.03 6.02046 18.1755C5.87496 18.321 5.79321 18.5184 5.79321 18.7241C5.79321 18.9299 5.87496 19.1273 6.02046 19.2728C6.16596 19.4183 6.3633 19.5 6.56908 19.5H17.4311C17.6369 19.5 17.8343 19.4183 17.9798 19.2728C18.1253 19.1273 18.207 18.9299 18.207 18.7241C18.207 18.5184 18.1253 18.321 17.9798 18.1755C17.8343 18.03 17.6369 17.9483 17.4311 17.9483H6.56908Z"></path></svg>