<?xml version="1.0" encoding="utf-8"?>
<!-- Generator: Adobe Illustrator 27.1.1, SVG Export Plug-In . SVG Version: 6.00 Build 0)  -->
<svg version="1.1" id="Слой_1" xmlns="http://www.w3.org/2000/svg" xmlns:xlink="http://www.w3.org/1999/xlink" x="0px" y="0px"
	 viewBox="0 0 512 461" style="enable-background:new 0 0 512 461;" xml:space="preserve">
<style type="text/css">
	.st0{fill:#FFFFFF;}
	.st1{fill:#162227;}
	.st2{fill:#D7DEE5;}
	.st3{fill:#9DCBE2;}
	.st4{fill:#F2F7FD;}
	.st5{fill:#B1D9EB;}
	.st6{fill:#7DA0AF;}
	.st7{fill:#DCF4FB;}
	.st8{fill:#D27A73;}
</style>
<path class="st0" d="M131.9,435c1.3-9.4,3-18.7,5.2-28c0.2-1,0.1-1.8-0.5-2.5c0.8-1.1,1.3-2.1,1.4-3.1c0.1-0.9-0.5-1.8-1.4-2
	c-0.1,0-0.2,0-0.3,0c-0.9,0-1.8,0.4-2.6,1.2c-2,1.8-3.9,3.5-5.5,5c-2.5-0.5-5.1,0.4-7.8,2.7c-0.4,0.4-0.9,0.6-1.4,0.8
	c-3.4,1.2-6.5,2.1-9.1,2.6c-7.7,1.7-16.9-3.7-22-9.2s-8.3-12.2-9.6-19.9c1.5-0.2,2.8-0.9,4-2c0.7-0.7,0.8-1.9,0.1-2.6
	c-0.1-0.1-0.1-0.1-0.2-0.2c-0.2-0.2-0.7-0.3-1.4-0.3c-14-0.4-26.2-5.3-36.7-14.6c-2.4-2.2-5.6-6.1-5.1-9.3c0.1-1,1-1.7,2-1.8
	c5.8-0.5,13.1,3.3,17.2,4.9c1.1,0.4,2.4,0.1,3.1-0.8c1-1.1,0.9-2.2-0.4-3.3c-0.5-0.4-2.5-1.6-6.2-3.8c-3.8-2.2-15.2-10.7-12.7-16.7
	c1-2.3,2.6-3.8,4.9-4.5c3.2-0.9,5.8,0.8,8,2.8c1,0.9,4.4,4.3,10.4,10.3c1,1,2.7,1.1,3.8,0l0.1-0.1c1-1,1.1-2.6,0.1-3.7l0,0
	c-4.2-4.3-19-21.3-11-26.2c6.9-4.2,19.3,13.6,22,18.9c0.2,0.3,0.1,0.8-0.1,1c-1.8,2.3-3.2,4.7-4.3,7.4c-3.8,9.1-2.4,17.1,4.1,24
	c0.8,0.9,2.2,0.9,3.1,0l0,0c0.5-0.5,0.7-1.2,0.6-2c0-0.2-0.1-0.4-0.2-0.6c-2.1-3.5-3.3-5.9-3.6-7.2c-1.8-7.2,1.5-15,6.9-19.9
	c0.4-0.4,0.6-1,0.4-1.5c-1.5-4.9-3.2-11.6-1.3-16.5c1.4-3.8,4-3.8,6.6-1.2c1.5,1.5,2.4,2.4,2.5,2.6c8.4,12.4,11.1,27.6,9.2,42.5
	c-0.1,0.7,0,1.4,0.3,2l8.9,17.8c0.5,1.1,1.9,1.6,3,1.1l0.3-0.1c1.2-0.5,1.8-1.9,1.3-3.1l-4.5-11.2c-0.1-0.3,0-0.7,0.3-0.9l10.4-5.8
	c10.2,7.7,22.1,13.2,35.8,16.7c13.8,3.4,27.2,4.8,40.3,4c4.9-0.3,9.5-1.2,13.6-2.8c7.4-2.7,14.3-6.6,20.7-11.5
	c7.3,7.2,13.3,15.1,18.1,23.6c7.3,12.9,12.9,27.6,16.8,44c0.4,1.6,2,2.6,3.6,2.2h0.1h0.1c1.7-0.5,2.7-2.3,2.2-4
	c-4.5-16.4-9.5-32.9-18.5-46.9c-0.1-0.1,0-0.3,0.1-0.4c0.1,0,0.1-0.1,0.2,0c42.6,8.2,86.4,16.6,131.4,25.2
	c15.9,3.1,31.9-6.6,35-23.1c7.1-37.8,20.7-111,40.9-219.6c1.9-10.2,3-16.5,3.3-18.9c1.9-14.5-7.6-27.3-21.5-31.2
	c-1.2-0.3-4.2-0.9-9.2-1.8c-54.4-9.6-97.8-17.2-130.3-22.8c-3.9-0.7-9.5-1.1-12.7-0.5c-9.3,1.8-16.2,6.6-20.5,14.6
	c-1.5,2.8-3,8-4.3,15.7c-6.8,39.1-11.9,68.1-15.2,87.2c-0.1,0.3-0.3,0.5-0.7,0.4c-0.1,0-0.2-0.1-0.3-0.1c-6.8-6-14.3-10.8-22.7-14.6
	c-0.2-0.1-0.3-0.3-0.2-0.5c5.8-23.7,3.1-55.3-14.4-74.1c-19.7-21.2-42.8-3.7-49.7,17.7c-3.9,12.1-4.9,24.8-2.9,38.3
	c0.5,3.6,1.1,6.8,1.6,9.6c0,0.3-0.1,0.5-0.4,0.6l-14.4,3.5c-0.2,0-0.4-0.1-0.4-0.3c0,0,0,0,0-0.1c-0.9-16.1-4.6-31.6-11.3-46.5
	c-4.2-9.3-11.3-18.8-18.3-25.9c-9.2-9.3-21.4-15.5-34.3-11.5c-16.1,5-23.5,23.1-24.3,38.2c-0.8,14.8,1.9,29.3,8.1,43.5
	c6.6,15.1,16.9,27,30.9,35.8c0.2,0.1,0.3,0.5,0.2,0.7l0,0C82.6,245.5,77,276.8,87,304.9c0.1,0.3-0.1,0.7-0.4,0.8l0,0
	c-4,1.3-6.5,4.6-7.3,9.8c0,0.2-0.2,0.3-0.4,0.3c-0.1,0-0.1,0-0.2-0.1c-5.3-5.5-10.4-11.3-18.2-11.7c-3.1-0.1-5.7,0.9-7.6,3
	c-3.5,3.8-4,8.5-1.8,14.1c0.1,0.2,0,0.4-0.2,0.5c-0.1,0-0.2,0-0.2,0c-3.8-0.9-7.2-0.2-10,2c-7.3,5.6-5.7,15.5,0.2,21.5
	c0.1,0.1,0.1,0.3,0,0.4c0,0-0.1,0.1-0.2,0.1c-4.1,0.5-6.6,2.4-7.5,5.8c-1.4,5.1,1.6,10.7,5.3,14.3c6.8,6.8,15.1,11.7,24.8,14.7
	c0.6,0.2,1,0.6,1.1,1.2c3.2,14.3,11.4,30,24.9,36.8c10.7,5.5,21.3,5.4,31.8-0.2c0.2-0.1,0.3,0,0.4,0.1c0,0.1,0,0.1,0,0.2l-2.5,14.3
	c-5.7-1.6-11.5-2.5-17.4-2.6c-0.6,0-1.2-0.1-1.7-0.2c-1.4-0.3-3.5-0.8-4.9-1.4c-4-1.9-8.9-3.9-14.7-6c-4.2-1.5-7.9-5.8-10.8-9.3
	c-5.9-7.1-8.6-15.2-10.4-24.2c-0.2-1.1-1-1.9-2-2.3c-5.2-1.8-10.6-4.4-16.3-8c-3.2-2-5.5-3.9-7.1-5.5c-5.5-6-9.5-11.2-8.5-19.6
	c0.4-3,2.3-4.9,4.5-7.5c1-1.1,1.1-2.7,0.4-4.1c-1.3-2.5-1.9-5.1-1.9-8c0-7,6.5-15.2,11.9-18.9c0.8-0.6,1.4-1.5,1.7-2.5
	c1.2-5.4,3.9-9.5,8.1-12.3c5.5-3.6,14.6-3.2,20.3-0.2c0.7,0.4,2.4,1.5,5.2,3.3c0.2,0.2,0.5,0.2,0.8,0.3c2.5,0.3,3.6-1.7,3.1-3.8
	c-0.4-1.6-1.6-6.7-3.6-15.2c-1-4.3-0.6-8.8,0.2-12.9c1.2-5.6,1.9-11,2.3-16.2c0.1-1.5,0.4-2.9,0.9-4.3c2.7-7.5,5.3-13.5,7.6-18
	c1.6-3.1,2.3-5.4,2.1-7c-0.7-5.6-5.4-8.2-10-10.9c-0.7-0.4-1.4-1-1.9-1.7c-4.2-5.2-7.2-9.8-9-13.9c-2-4.7-3.5-8-4.6-9.9
	c-5.4-10.2-6.7-22.5-8.2-33.2c-0.6-3.8-0.9-7.2-0.9-10.3c-0.1-8.8-0.5-15.7,3.4-22.8c0.8-1.4,1.2-3,1.3-5c0-0.3,0.1-0.6,0.2-0.8
	c1-2.5,2.5-5.1,4.7-7.8c0.6-0.7,0.9-1.8,0.8-3c0-0.2-0.1-0.4-0.2-0.5l-8.1-12c-0.2-0.3-0.6-0.4-0.8-0.2c-0.1,0.1-0.2,0.2-0.2,0.3
	c-1.9,4.7-5.7,6-9.2,9c-2.2,1.9-4.9,2.6-7,4.4c-0.9,0.8-1.8,1.4-2.8,1.8c-2.7,1.3-5.6,2.7-8.5,4.4c-3.8,2.1-6.3,2.4-10.2,2.4
	c-3.6,0-6.1-3.8-7.7-5.7c-0.3-0.3-0.4-0.6-0.6-1c-1.7-6,2.7-13.8,6.5-18.2c1.9-2.2,4.7-4.2,8.6-6.1c6.2-3,11.3-5.1,15.3-6.4
	c2-0.7,4.4-0.7,7-0.2c1.4,0.3,3,1.9,4.1,2.5c0.3,0.2,0.7,0,0.8-0.3c0.1-0.2,0.1-0.5-0.1-0.7l-1.3-1.5c-0.5-0.6-0.9-1.3-1.2-2
	c-0.3-0.6-2.3-4.8-6.2-12.6c-1.5-3.1-2-5.5-1.9-8.6c0-1.1,0.6-2,1.5-2.6c5-3.2,10.9-6.8,15.1-11.2c0.9-1,2.1-1.6,3.5-1.9l15.6-3
	c1-0.2,2.1-0.1,3.1,0.3c8.7,3.5,17.6,3.8,26.7,0.9c3.6-1.1,6.7-2.2,9.4-3.2c0.9-0.3,1.8-0.6,2.8-0.7c2.7-0.4,5-1,7-1.7
	c5.5-2,8.3-2.4,14.1-4.4c2.1-0.7,4.6-1.4,7.6-1.9c10.3-1.8,17.6-2.9,21.9-3.4c5.9-0.7,11.9-0.6,16.8-1c4.5-0.4,10.3-2.4,14.4-2.4
	c13,0,25.9-0.1,38.5-0.3c14.5-0.3,29.8,1.9,43,3.1c4.1,0.4,9.5,0.1,16.2-0.9c4.3-0.6,7.7-0.9,10.2-0.8c5.3,0.1,9.6,0.3,12.8,0.6
	c1.5,0.1,2.6-0.4,3.4-1.5c2.9-4.5,6.6-3.8,10.7-4.7c4.5-1,9,1.3,12,4.2c0.4,0.3,0.7,0.7,0.9,1.2c2,3.7,3,6.1,3.2,7.2
	c0.3,2.4,0.3,4-0.1,4.8c-1.5,2.9-3.1,5-1.7,7.2c0.7,1,2,1.4,3,0.8c2-1.2,4.6-2,7.8-2.4c0.4-0.1,0.8,0,1.2,0.3
	c1.8,1.1,3.3,1.9,4.6,2.2c6.6,1.6,16.4,3.6,29.6,5.9c3.7,0.7,7.2,1.5,10.4,2.6c7.7,2.7,15.2,5.6,22.9,8c1.5,0.5,4.6,1.7,9.4,3.6
	c4.4,1.8,8.6,3.1,12.5,3.9c4.9,1,10.9,4.9,16.1,6.5c2,0.6,5.8,1.8,8.4,3.2c7.9,4.1,14.3,7.7,19,10.5c0.9,0.5,1.6,1.3,2,2.2l2.4,4.8
	c0,0.1,0.1,0.2,0.1,0.3l0.9,7.5c0,0.1,0,0.3,0.1,0.4c1,2.5,1.5,4.8,1.3,6.8c-0.2,2.1-0.2,3.9,0,5.5c0.5,5-1.4,10.1-3,14.4
	c-0.2,0.6-0.6,1.2-1.1,1.6l-7,5.2c-0.5,0.4-1.1,0.6-1.7,0.6c-2.4,0-4.7,0.3-7.1,0.8c-1.4,0.3-2.8-0.1-3.9-0.1
	c-0.3,0-0.5,0.3-0.5,0.5v0.1c1.1,3.5-1.3,8.7-1.2,11.7c0.2,3.4-0.9,7.1-1.3,11.5c-0.3,3.7-0.8,6.7-1.4,8.8c-0.9,2.9-1.4,5.4-1.6,7.5
	c-1,9.7-3.5,18.2-4.9,27.4c-0.7,4.6-2.6,9.6-3.4,14.1c-1.1,6.4-3.6,15.6-4.3,23.3c-0.8,8.9-2.8,17.3-4.5,26.2
	c-1.6,8.8-5.2,23.1-6.6,32.3c-1.4,9.8-2.6,17.2-3.4,22.3c-0.4,2.4-1.1,4.2-1.8,6.4c-0.3,1.1-0.5,2.1-0.6,3.2c-0.2,3-0.3,5.4-1,8.4
	c-1.1,4.5-1.9,9.2-2.3,14.1c-0.9,9-3.7,15.8-5,25.4c-1.1,8.1-3.2,16.4-7.9,23.2c-0.3,0.4-0.6,0.7-0.9,0.9l-10.3,8.3
	c-0.8,0.6-1.7,1.1-2.7,1.3l-7.2,1.8c-0.2,0-0.3,0.1-0.5,0.1c-7.2,0.1-11,0.3-17.1-0.5c-19.8-2.6-39.7-5.6-59.6-9
	c-2.7-0.5-6.3-1.7-9.8-2.3c-7.6-1.3-14.4-2-21.9-3.9c-8.4-2.2-16.1-4.3-23.1-6.3c-0.7-0.2-1.4,0-2.1,0.6c-1,0.8-1.1,2.3-0.3,3.3
	c1.2,1.6,2.4,3.1,3.4,4.7c0.5,0.7,0.8,1.4,1.1,2.1c2.6,7.7,4.3,13,5.1,15.9c1.8,6.5,2.4,13.3,2,20.3c-0.1,1.1-0.9,2.1-2.1,2.2
	c-4.5,0.5-9.3,0.8-14.5,1.1c-3.9,0.2-7.2-0.5-10.8-0.4c-1,0-2.5,0-4.3-0.2c-13.3-1.3-26.9-2-40.8-2.1c-1.5,0-3.2-0.1-5.1-0.2
	c-1.3-0.1-3-0.2-5.2-0.3c-0.6,0-11.8-0.4-33.3-1c-0.1,0-3.2,0-9.4-0.1C148.5,436.9,140.4,436.2,131.9,435z M332.2,22.1
	c-2.1-0.4-4.2,1.3-4.7,3.9c-0.5,2.5,0.8,4.9,2.9,5.4l0,0c2.1,0.4,4.2-1.3,4.7-3.9C335.6,25,334.3,22.6,332.2,22.1L332.2,22.1z
	 M340.5,23.8c-2.1-0.1-3.9,2-4,4.5l0,0c-0.1,2.6,1.5,4.7,3.6,4.8l0,0c2.1,0.1,3.9-2,4-4.5l0,0C344.2,26,342.6,23.9,340.5,23.8
	L340.5,23.8z M245.9,44.9v16.5c0,1.1,0.9,2,1.9,2h2.6c1.1,0,2-0.9,2-2V30.7c0-0.8-0.6-1.4-1.4-1.5l-4.5-0.3
	c-0.9-0.1-1.8,0.5-2.2,1.3l-6.1,14.3c0,0.1-0.1,0.1-0.2,0.1l-0.1-0.1V31.2c0-1.5-1.2-2.7-2.7-2.7h-1.6c-1.5,0-2.7,1.2-2.7,2.7l0,0
	v30.5c0,0.8,0.6,1.6,1.4,1.8c2,0.4,3.7,0.3,5.2-0.3c0.2-0.1,0.4-0.3,0.5-0.5l7.6-17.8C245.8,44.9,245.8,44.9,245.9,44.9L245.9,44.9z
	 M217.2,29.4c-3.1,0.1-5.6,0.2-7.5,0.2c-3.9-0.1-3.3,4.2-2.5,6.6c0.2,0.7,0.9,1.2,1.7,1.1L213,37c0.4,0,0.8,0.3,0.8,0.7l0,0
	l1.5,24.2c0,0.7,0.5,1.3,1.2,1.5c0.6,0.2,1.4,0.2,2.4,0.2s1.8-0.2,2.3-0.4c0.6-0.3,1-0.9,1-1.6l-0.8-24.3c0-0.4,0.3-0.8,0.8-0.8l0,0
	l4.1-0.1c0.8,0,1.4-0.6,1.6-1.3c0.6-2.4,0.7-6.8-3.2-6.3C222.9,29,220.4,29.2,217.2,29.4z M285.6,45.2c0.7-1.1,2-1.7,2.7-3.4
	c2.8-6.8-2.1-10.9-8.5-11.8c-3.8-0.5-6.8-0.7-9.2-0.4c-0.9,0.1-1.6,0.8-1.7,1.8L266.7,62c0,0.6,0.4,1.2,1,1.3
	c6.3,1.3,18.5,3.3,21.6-4.3c2.2-5.2,1-9.5-3.5-12.8C285.5,46,285.4,45.6,285.6,45.2z M198.7,43.5c-3.2,0.6-5.9,2.4-8.1,5.6
	c-3,4.4-3.7,12.3,0.4,16.1c3.1,2.8,7,1.5,10.2-0.9c0.3-0.2,0.6-0.3,1-0.2c0.2,0,0.3,0.1,0.4,0.3c1.2,1.5,5.5,1.3,5.3-1.3
	c-0.3-8-0.9-14.8-1.7-20.3c-0.7-4.7-2.9-11.2-8.1-12.2c-7.1-1.3-12.8,3.6-11.3,10.9c0.1,0.4,0.5,0.7,0.9,0.7h4.1
	c0.6,0,1.2-0.5,1.2-1.1c0.4-3.3,1.7-4.6,3.9-3.9c0.7,0.2,1.2,0.6,1.5,1.2l1.4,2.8c0.4,0.7,0.1,1.7-0.7,2
	C199,43.4,198.8,43.4,198.7,43.5z M310.9,45.6h4.6c0.7,0,1.3-0.5,1.4-1.2c0.7-5.1-1.1-11.3-6.5-12.7c-7.1-1.9-12.5,2.9-14.9,9.3
	c-2.6,6.9-4.1,17.7,1.2,23.8c2.9,3.3,8.5,3.9,12.2,2c3.6-1.9,5.5-4.9,5.7-9.2c0-0.7-0.5-1.3-1.2-1.4l-3.8-0.5c-0.4,0-0.8,0.2-1,0.5
	c-1.3,2.4-2.9,5.2-5.5,4c-2-1-2.3-4.5-2.2-6.8c0.2-5,1.6-12.3,5.8-14.7c0.3-0.2,0.7-0.2,1-0.1c1.8,0.6,2.5,2.5,2,5.7
	c-0.1,0.6,0.3,1.1,0.9,1.2C310.8,45.6,310.9,45.6,310.9,45.6z M175.2,67c7.1-1.6,10.5-7.3,10.3-14.6c-0.3-12.3-6.5-22.9-20.8-17.5
	c-1.2,0.4-1.9,1.6-1.7,2.8l6.5,41.5c0.2,1.4,1.5,2.4,2.9,2.2l0,0l1.7-0.3c1.3-0.2,2.2-1.4,2-2.7L174.5,68
	C174.4,67.5,174.7,67.1,175.2,67z M325.1,54.6c0.1-0.3,0.4-0.5,0.7-0.5l13.2,1.6c0.7,0.1,1.4-0.4,1.6-1.1c1.6-5.8,2.9-13.9-2.5-17.9
	c-6.3-4.7-12.8-1.5-16.5,4.4c-4.1,6.6-5.2,13.7-3.3,21.4c1.1,4.5,5.1,8.2,10.2,8.2c5,0,8.5-2.6,10.7-7.8c0.3-0.7,0-1.4-0.7-1.7h-0.1
	l-3.9-1.2c-0.4-0.1-0.8,0-1,0.4c-0.4,0.7-0.9,1.4-1.3,2.1c-2.1,3.2-5.4,1.6-6.7-1.3C324.7,59.1,324.5,56.9,325.1,54.6z M151,61.8
	l6.9,8.2c0.7,0.9,1.9,1.3,3.1,1.1l3-0.6c1.1-0.2,1.8-1.3,1.6-2.4c-0.1-0.3-0.2-0.6-0.4-0.9L154,54.1c-0.3-0.3-0.4-0.8-0.2-1.2
	l6.4-15.1c0.3-0.7,0-1.6-0.8-1.9c-0.3-0.1-0.5-0.1-0.8-0.1l-4.3,0.7c-0.9,0.1-1.6,0.7-1.9,1.5l-4,11c0,0.1-0.2,0.2-0.3,0.1
	c-0.1,0-0.1-0.1-0.2-0.2l-1.4-8.9c-0.2-1.3-1.5-2.2-2.8-2h-0.1l-2,0.4c-1.6,0.3-2.7,1.9-2.4,3.5l0,0l5.7,29.7
	c0.2,1.3,1.5,2.1,2.7,1.8l0,0l2.5-0.5c1.1-0.2,1.9-1.3,1.7-2.5c-0.9-5-1.3-7.9-1.5-8.6c0-0.1,0-0.2,0.1-0.2
	C150.9,61.7,150.9,61.8,151,61.8z M133.7,67c-0.3,3.6-3.1,7.3-6.6,3.4c-1.4-1.6-2.4-3.4-2.9-5.5c-0.2-0.6,0.2-1.2,0.8-1.4l11.7-2.9
	c1-0.3,1.8-1.1,1.9-2.1c0.2-1,0-2.5-0.5-4.4c-1.6-5.8-4.6-12.3-11.5-12.2c-16.7,0.1-13.3,35.2,1.7,36.6c7.6,0.7,12.5-4.9,11.9-12.3
	c-0.1-0.7-0.7-1.2-1.4-1.2h-0.1l-3.6,0.6C134.3,65.6,133.7,66.2,133.7,67z M361.4,60.8c0,1.5-0.2,5-0.4,10.7
	c-0.1,1.8,0.2,3.2,2.1,3.8c1.8,0.5,3.2,0.8,4.4,1c0.7,0.1,1.4-0.2,1.8-0.9l8.1-14c0.1-0.1,0.2-0.2,0.3-0.1c0.1,0.1,0.2,0.2,0.1,0.3
	l-4.6,17c-0.3,1.1,0.4,2.3,1.5,2.6l0,0l1.9,0.5c1.2,0.3,2.5-0.4,2.8-1.6l8-29.4c0.2-0.9-0.1-1.8-0.9-2.2c-1.2-0.7-2.8-1.3-4.9-1.6
	c-0.9-0.2-1.9,0.3-2.4,1L368.1,65c0,0.1-0.1,0.1-0.2,0.1s-0.1-0.1-0.1-0.2V44.3c0-0.3-0.2-0.6-0.4-0.7c-1.9-1.1-3.9-1.7-5.9-1.8
	c-1.1,0-2.1,0.7-2.4,1.7l-8.5,27.9c-0.4,1.4,0.4,2.8,1.7,3.3l0,0l1.5,0.5c1.4,0.4,2.9-0.4,3.4-1.8l3.8-12.7c0-0.1,0.2-0.2,0.3-0.1
	C361.3,60.7,361.4,60.8,361.4,60.8z M72.3,58.4l13.3,33.1c0.5,1.2,1.9,1.9,3.2,1.3l3.1-1.2c1.4-0.6,2-2.1,1.5-3.5L77,47.5
	c-0.3-0.7-1.1-1.1-1.8-0.8h-0.1c-7.6,3.5-15.3,7.2-23,11c-1.7,0.8-2.2,2.2-1.3,4.1c6.3,14.7,11.8,27,16.4,37.2
	c0.5,1.1,1.9,1.7,3,1.2l3-1.2c1-0.4,1.4-1.5,1-2.4L60.8,62.9c-0.1-0.3,0-0.6,0.3-0.7l0,0L71.4,58C71.7,57.9,72.1,58,72.3,58.4
	L72.3,58.4z M105.6,83c5.4-2.4,8.2-6.6,8.4-12.5c0.3-7.6-2.8-18.4-11.3-19.9c-4.3-0.7-8.5,0.1-12.7,2.5c-1.6,0.9-2.1,2.3-1.5,4.1
	c2.7,8.5,7.2,21.5,13.3,39c0.5,1.4,2,2.1,3.3,1.6l1.8-0.6c1.4-0.5,2.1-2,1.7-3.4l0,0l-3.4-10C105,83.6,105.2,83.2,105.6,83z
	 M394.1,71l13.5,4.1c0.6,0.2,1.3-0.1,1.5-0.8c2.4-6.7,4.8-17.3-3.7-21c-3.9-1.7-7.6-1-11.1,2c-6.6,5.7-12.4,18.5-7.9,26.9
	c4.2,7.9,15.5,7.2,19.4-0.6c0.4-0.7,0.1-1.6-0.6-2h-0.1l-3.2-1.4c-0.7-0.3-1.6-0.1-2.1,0.6s-1.3,1.4-2.4,2.1
	c-0.3,0.2-0.7,0.3-1.1,0.2c-5-1-4.5-5.9-3.1-9.7C393.4,71.1,393.8,70.9,394.1,71z M427.4,76.4c-0.3,0.7-1.2,1-1.9,0.7l-3.4-1.4
	c-0.7-0.3-1.1-1.2-0.8-1.9l4.2-9.8c0.3-0.7,0-1.6-0.8-1.9l-4-1.7c-0.7-0.3-1.6,0-1.9,0.8l-12.6,29.4c-0.3,0.7,0,1.6,0.7,1.9l4,1.9
	c0.7,0.3,1.6,0,1.9-0.7l4.9-10.6c0.3-0.7,1.2-1,1.9-0.7l3,1.3c0.7,0.3,1.1,1.2,0.8,1.9L419.1,96c-0.3,0.7,0,1.6,0.8,1.9l4.2,1.8
	c0.7,0.3,1.6,0,1.9-0.8l12.7-29.7c0.3-0.7,0-1.6-0.7-1.9l-3.8-1.8c-0.7-0.3-1.6,0-1.9,0.7L427.4,76.4z M401.5,97.8
	c-0.5-1.5-1.2-2.6-1.9-3.4c-0.3-0.3-0.8-0.6-1.2-0.6c-5.9-0.9-11.8-1.1-15.9-5.3c-2.5-2.5-7-1.9-9.5-2c-0.7,0-1.4-0.2-2-0.6
	c-2.3-1.2-6.2-4.2-8.7-4.2c-3.5,0-7.2-0.5-11.2-1.3c-3-0.6-5.1-2.5-6.3-5.7c-1.4-3.6-5.4,0.1-7,1c-0.4,0.2-0.7,0.3-1.1,0.5
	c-4,1.2-8.2,1.6-12.6,1.1c-3.4-0.4-4.9-3.1-6.5-4.9c-0.6-0.7-1.7-0.8-2.4-0.3c-6.6,4.7-13.2,4.9-19.7,0.7c-0.2-0.1-0.3-0.2-0.4-0.4
	l-1.8-2.3c-0.2-0.2-0.4-0.4-0.7-0.6c-1.1-0.5-2.2-0.5-3.3-0.1c-3.8,1.6-5.8,2.6-9.8,2.6c-3.9,0-12-0.1-14.6-2.9
	c-0.6-0.6-1.5-1.7-2.7-3.3c-0.7-0.9-2-1.1-2.9-0.4c-0.1,0.1-0.2,0.2-0.3,0.3l-1.5,1.8c-0.4,0.5-1,0.9-1.6,1.2
	c-3.6,1.6-6.9,2.5-10,2.6c-8.2,0.2-17.5,0.2-27.7-0.3c-3.4-0.2-6.9,1.3-10.4,1.3c-3.1,0-6.6,0.7-10.5,2c-0.2,0.1-0.4,0.1-0.7,0.1
	c-3.1,0.1-5.4-0.5-7.1-1.8c-7.4-6.2-7.8,3.1-8.5,8.3c-0.2,1.6-1.2,3.3-2.9,5.1c-1.3,1.3-3.1,1.8-5.4,1.5c-4.1-0.6-7.2-2.3-9.2-5.3
	C160,77,156.1,81.1,153,82c-0.5,0.2-1.1,0.2-1.6,0.1l-7.2-1c-1-0.1-2,0.2-2.6,0.9c-6.3,7-15.9,4.5-23.7,0.3
	c-0.4-0.2-0.8-0.3-1.2-0.2c-1.4,0.3-2.2,1.6-2.2,3.8c-0.1,4.2-0.4,8.5-0.9,13.1c-0.1,0.7,0.2,1.4,0.7,1.8
	c8.9,7.8,15.9,14.6,21.1,20.3c2.3,2.6,3.8,4.6,4.4,6.2c4.3,11.8,6.8,18.7,7.5,20.7c1.8,5.3,3,9.9,3.9,13.9c0.2,1.1,1.2,2,2.3,2.1
	c2,0.2,2.8-1.3,3-3.2c0.2-3.1,0.5-5.9,0.9-8.3c1.3-7.3,1.7-13.5,2.8-20.6c1.2-7.6,6.4-14.7,11.9-20.2c4-4,8.5-6.9,13.4-8.6
	c6.5-2.2,13.4-2.3,20.9-0.2c2.8,0.8,5.6,1.6,7.1,3.4c1.7,1.9,4.3,4.2,7.7,7c0.9,0.7,1.7,1.6,2.3,2.6c3.7,5.6,7.1,11.6,10.4,18.1
	c2.4,4.8,4.3,12.1,5.2,15.8c0.2,0.7,0.3,1.4,0.3,2.1c0.2,3.8,0.6,9.3,1.2,16.5c0.2,3-0.3,7.7-1.5,14c0,0.2,0,1.8,0.1,4.9
	c0.1,3.3,4.3,4.6,8,6.5c0.2,0.1,0.5,0.2,0.8,0.2c2,0.2,2.7-1.1,2.6-3.1c-0.2-3.7,1.1-7.5,1.2-10.6c0.1-2.4,0.5-5.6,1.3-9.7
	c1.3-6.7,2-13.3,2.8-19.2c0.6-4.7,2.2-10.5,4.7-17.5c0.3-0.8,0.8-3.6,1.5-8.3c1-6.5,2.6-11.7,3.8-17.6c0.2-1.1,0.5-2.1,1-3.1
	c1.9-4.5,3.4-8.1,4.5-10.7c2.1-5.1,7.9-6.4,10.5-9.1c0.2-0.2,0.5-0.4,0.8-0.5c1.9-0.7,3.5-1.1,5-1.1c4.3-0.1,10.8,0.2,19.6,0.9
	c4.5,0.4,8.5,0.9,12,1.7c5,1.1,9,1.9,11.9,2.4c14.6,2.4,20.8,3,33.4,5.6c11.1,2.3,22.1,2.9,33,4.7c1,0.2,2.3,0.1,3.9-0.3
	C401.4,98.5,401.6,98.2,401.5,97.8C401.6,97.9,401.6,97.9,401.5,97.8z M445.4,96.1l-4.8,9c-0.6,1.1-0.2,2.5,1,3.1
	c0.1,0.1,0.3,0.1,0.4,0.2l2,0.6c1.6,0.5,3.2-0.3,3.9-1.7L461,78.8c0.4-0.8,0.1-1.7-0.7-2.2c-5.8-3.4-13.7-6.6-19.1-1
	c-2.8,2.9-4,6.5-3.8,10.9c0.1,1.1,1,2.2,1.5,3.3c0.1,0.1,0,0.3-0.1,0.3L428.3,99c-0.7,0.6-0.8,1.7-0.2,2.4c0.1,0.2,0.3,0.3,0.5,0.4
	l2.8,1.5c1.2,0.7,2.7,0.5,3.8-0.4l9.1-7.7c0.3-0.2,0.7-0.2,0.9,0.1C445.5,95.5,445.5,95.8,445.4,96.1z M461.5,83.8
	c-0.4,0.7-0.1,1.6,0.6,2l0,0l2.6,1.4c0.7,0.4,1,1.3,0.6,2l0,0l-12.2,22.6c-0.4,0.7-0.1,1.7,0.6,2c0,0,0.1,0,0.1,0.1l4.2,1.8
	c0.7,0.3,1.6,0,1.9-0.7L472,92.5c0.4-0.7,1.3-1,2-0.6l0,0l3.1,1.6c0.7,0.4,1.6,0.1,2-0.6l0,0l2-3.8c0.4-0.7,0.1-1.6-0.6-2l0,0
	l-15-8.1c-0.7-0.4-1.6-0.1-2,0.6l0,0L461.5,83.8z M44.4,88.1c-0.5-0.9-1.6-1.2-2.5-0.7l-24.3,13.5c-0.9,0.5-1.2,1.6-0.7,2.5l1.9,3.4
	c0.5,0.9,1.6,1.2,2.5,0.7l0,0L45.6,94c0.9-0.5,1.2-1.6,0.7-2.5l0,0L44.4,88.1z M485.3,102.2l4.4-7.6c0.5-0.9,0.2-2.1-0.7-2.6
	l-3.3-1.9c-0.8-0.4-1.7-0.2-2.2,0.6l0,0l-16.3,28.2c-0.4,0.7-0.2,1.5,0.3,2c8,7,21.7,8.5,25.8-3.9c1.5-4.5-0.3-9.4-4.3-11.8
	c-1.9-1.1-3.1-1.8-3.6-2.1C485.2,102.9,485.1,102.5,485.3,102.2z M250.9,439.8c2.9,0.4,3.4-1.9,3-4.4c-2.6-17-7.3-33.3-14.1-49
	c-1.9-4.4-3.5-7.2-4.8-8.6c-0.8-0.9-1.7-1.3-2.5-1.1c-1.1,0.2-1.9,1.3-1.7,2.5c0,0.1,0.1,0.3,0.1,0.4c7.6,18.5,13.3,37.7,17.3,57.7
	C248.5,438.6,249.6,439.6,250.9,439.8z"/>
<ellipse transform="matrix(0.1942 -0.981 0.981 0.1942 240.754 346.5312)" class="st1" cx="331.3" cy="26.7" rx="4.7" ry="3.9"/>
<ellipse transform="matrix(3.489918e-02 -0.9994 0.9994 3.489918e-02 299.9997 367.6745)" class="st1" cx="340.4" cy="28.5" rx="4.7" ry="3.8"/>
<path class="st1" d="M245.9,44.9L245.9,44.9c-0.1-0.1-0.1,0-0.1,0l-7.6,17.8c-0.1,0.2-0.3,0.4-0.5,0.5c-1.5,0.6-3.2,0.7-5.2,0.3
	c-0.8-0.2-1.4-0.9-1.4-1.8V31.2c0-1.5,1.2-2.7,2.7-2.7l0,0h1.6c1.5,0,2.7,1.2,2.7,2.7v13.3c0,0.1,0.1,0.1,0.1,0.1s0.1,0,0.1-0.1
	l6.1-14.3c0.4-0.9,1.2-1.4,2.2-1.3l4.5,0.3c0.8,0.1,1.4,0.7,1.4,1.5v30.6c0,1.1-0.9,2-2,2h-2.6c-1.1,0-1.9-0.9-1.9-2V44.9H245.9z"/>
<path class="st1" d="M218.9,63.7c-1,0-1.8,0-2.4-0.2c-0.7-0.2-1.1-0.8-1.2-1.5l-1.5-24.2c0-0.4-0.4-0.8-0.8-0.8l0,0l-4.1,0.2
	c-0.8,0-1.5-0.4-1.7-1.1c-0.8-2.4-1.4-6.7,2.5-6.6c1.9,0,4.4,0,7.5-0.2s5.6-0.3,7.5-0.6c3.9-0.5,3.7,3.9,3.2,6.3
	c-0.2,0.7-0.8,1.3-1.6,1.3l-4.1,0.1c-0.4,0-0.8,0.4-0.8,0.8l0,0l0.8,24.3c0,0.7-0.4,1.3-1,1.6C220.6,63.5,219.8,63.6,218.9,63.7z"/>
<path class="st1" d="M285.8,46.3c4.5,3.3,5.7,7.6,3.5,12.8c-3.1,7.5-15.3,5.6-21.6,4.3c-0.6-0.1-1.1-0.7-1-1.3l2.1-30.6
	c0.1-0.9,0.8-1.7,1.7-1.8c2.4-0.3,5.5-0.1,9.2,0.4c6.5,0.9,11.3,5,8.5,11.8c-0.7,1.7-2,2.3-2.7,3.4C285.4,45.6,285.5,46,285.8,46.3z
	 M275.6,43.3c2.1-0.7,3.5-1.3,4.3-1.9c3.6-2.8,0.2-6.1-3.2-5.5c-0.5,0.1-0.8,0.4-0.9,0.9l-0.7,6c0,0.2,0.1,0.4,0.4,0.5
	C275.5,43.4,275.6,43.3,275.6,43.3z M274.8,49l-1.1,8.9c0,0.1,0.1,0.2,0.2,0.3l0,0l2.5,0.3c3.3,0.4,6.3-1.3,6.6-3.8l0,0v-0.3
	c0.3-2.5-2.1-4.8-5.5-5.3l0,0l-2.5-0.3C274.9,48.7,274.8,48.8,274.8,49z"/>
<path class="st1" d="M198.7,43.5c0.8-0.1,1.4-0.9,1.2-1.7c0-0.1-0.1-0.3-0.1-0.4l-1.4-2.8c-0.3-0.6-0.8-1.1-1.5-1.2
	c-2.2-0.6-3.5,0.7-3.9,3.9c-0.1,0.6-0.6,1.1-1.2,1.1h-4.1c-0.4,0-0.8-0.3-0.9-0.7c-1.5-7.3,4.3-12.2,11.3-10.9
	c5.3,1,7.4,7.5,8.1,12.2c0.8,5.5,1.4,12.2,1.7,20.3c0.1,2.6-4.2,2.8-5.3,1.3c-0.1-0.2-0.3-0.3-0.4-0.3c-0.3-0.1-0.7,0-1,0.2
	c-3.2,2.4-7.1,3.8-10.2,0.9c-4.1-3.8-3.4-11.7-0.4-16.1C192.8,45.9,195.5,44,198.7,43.5z M200.2,50.5c0-0.4-0.4-0.7-0.8-0.7
	c-0.1,0-0.2,0-0.4,0.1c-3,1.9-4.4,4.6-4.4,8c0,1.3,1.1,2.3,2.4,2.3c0.1,0,0.1,0,0.2,0l0.4-0.1c1.8-0.3,3-1.9,2.9-3.8L200.2,50.5z"/>
<path class="st1" d="M310.9,45.6c-0.6,0-1-0.5-1-1c0-0.1,0-0.1,0-0.2c0.5-3.2-0.2-5.1-2-5.7c-0.3-0.1-0.7-0.1-1,0.1
	c-4.2,2.4-5.6,9.7-5.8,14.7c-0.1,2.2,0.2,5.8,2.2,6.8c2.6,1.3,4.2-1.6,5.5-4c0.2-0.3,0.6-0.5,1-0.5l3.8,0.5c0.7,0.1,1.2,0.7,1.2,1.4
	c-0.2,4.2-2.1,7.3-5.7,9.2c-3.6,1.9-9.2,1.3-12.2-2c-5.3-6.1-3.8-16.9-1.2-23.8c2.4-6.3,7.8-11.2,14.9-9.3c5.4,1.4,7.2,7.6,6.5,12.7
	c-0.1,0.7-0.7,1.2-1.4,1.2L310.9,45.6L310.9,45.6z"/>
<path class="st1" d="M175.2,67c-0.4,0.1-0.7,0.5-0.7,1l1.6,10.4c0.2,1.3-0.7,2.5-2,2.7l-1.7,0.3c-1.4,0.2-2.7-0.7-2.9-2.1l0,0
	L163,37.8c-0.2-1.2,0.5-2.4,1.7-2.8c14.3-5.4,20.5,5.2,20.8,17.5C185.6,59.6,182.3,65.4,175.2,67z M170.4,40.9l3,18.8
	c0,0.1,0.1,0.1,0.2,0.1l0,0l0.7-0.1c3.3-0.5,5.3-4.5,4.6-8.9l-0.5-3.2c-0.7-4.4-3.9-7.5-7.2-7l-0.7,0.1
	C170.5,40.7,170.4,40.8,170.4,40.9L170.4,40.9z"/>
<path class="st1" d="M325.1,54.6c-0.6,2.3-0.5,4.5,0.4,6.5c1.3,2.9,4.6,4.6,6.7,1.3c0.5-0.7,0.9-1.4,1.3-2.1c0.2-0.3,0.6-0.5,1-0.4
	l3.9,1.2c0.7,0.2,1.1,0.9,0.9,1.6v0.1c-2.1,5.3-5.7,7.9-10.7,7.8c-5.1,0-9.1-3.7-10.2-8.2c-1.9-7.7-0.8-14.8,3.3-21.4
	c3.7-5.9,10.2-9.1,16.5-4.4c5.4,4,4.1,12.1,2.5,17.9c-0.2,0.7-0.9,1.2-1.6,1.1L325.9,54C325.5,54.1,325.2,54.3,325.1,54.6z
	 M327.4,47.9l5.8,1.4c0.4,0.1,0.9-0.2,1-0.6l0,0l0.1-0.5c0.8-3.5-0.1-6.7-2-7.1L332,41c-2-0.5-4.2,1.9-5.1,5.4l0,0l-0.1,0.4
	C326.7,47.3,327,47.8,327.4,47.9z"/>
<path class="st0" d="M275.1,42.9l0.7-6c0.1-0.5,0.4-0.8,0.9-0.9c3.4-0.6,6.8,2.8,3.2,5.5c-0.7,0.6-2.2,1.2-4.3,1.9
	c-0.2,0.1-0.5,0-0.5-0.3C275.1,43,275.1,42.9,275.1,42.9z"/>
<path class="st1" d="M150.6,62c0.1,0.8,0.6,3.7,1.5,8.6c0.2,1.1-0.6,2.2-1.7,2.5l-2.5,0.5c-1.3,0.2-2.5-0.6-2.7-1.8l0,0L139.5,42
	c-0.3-1.6,0.7-3.2,2.4-3.5l0,0l2-0.4c1.3-0.3,2.6,0.6,2.9,1.9v0.1l1.4,8.9c0,0.1,0.1,0.2,0.2,0.2c0.1,0,0.2-0.1,0.2-0.2l4-11
	c0.3-0.8,1-1.4,1.9-1.5l4.3-0.7c0.8-0.1,1.5,0.4,1.7,1.2c0,0.3,0,0.5-0.1,0.8L154,52.9c-0.2,0.4-0.1,0.9,0.2,1.2l11.1,13.2
	c0.7,0.9,0.6,2.1-0.3,2.8c-0.3,0.2-0.6,0.4-0.9,0.4l-3,0.6c-1.1,0.2-2.3-0.2-3.1-1.1l-6.9-8.2c-0.1-0.1-0.2-0.1-0.3,0
	C150.7,61.8,150.6,61.9,150.6,62z"/>
<path class="st0" d="M170.4,40.9c0-0.1,0-0.2,0.1-0.2l0,0l0.7-0.1c3.3-0.5,6.5,2.6,7.2,7l0.5,3.2c0.7,4.4-1.4,8.4-4.6,8.9l-0.7,0.1
	c-0.1,0-0.2,0-0.2-0.1l0,0L170.4,40.9z"/>
<path class="st0" d="M327.4,47.9c-0.4-0.1-0.7-0.5-0.6-1l0.1-0.4c0.8-3.5,3.1-5.9,5.1-5.4l0,0l0.3,0.1c2,0.5,2.9,3.7,2,7.1l-0.1,0.5
	c-0.1,0.4-0.5,0.7-1,0.6l0,0L327.4,47.9z"/>
<path class="st1" d="M133.7,67c0.1-0.8,0.6-1.4,1.4-1.5l3.6-0.6c0.7-0.1,1.3,0.4,1.4,1.1v0.1c0.6,7.4-4.3,13-11.9,12.3
	c-14.9-1.4-18.3-36.5-1.7-36.6c6.9-0.1,10,6.5,11.5,12.2c0.5,2,0.7,3.5,0.5,4.4c-0.2,1-0.9,1.9-1.9,2.1l-11.7,2.9
	c-0.6,0.2-1,0.8-0.8,1.4c0.5,2.1,1.5,4,2.9,5.5C130.5,74.3,133.3,70.6,133.7,67z M123.9,57.4l5.3-0.7c0.5-0.1,0.9-0.6,0.8-1.1
	l-0.2-1.4c-0.5-3.4-2.4-5.9-4.3-5.6h-0.3c-1.9,0.3-3.1,3.2-2.6,6.5l0,0l0.2,1.4C122.9,57.1,123.4,57.5,123.9,57.4z"/>
<path class="st1" d="M361.4,60.8c0-0.1-0.1-0.2-0.2-0.2s-0.2,0.1-0.2,0.1l-3.8,12.7c-0.4,1.4-1.9,2.2-3.4,1.8l-1.5-0.5
	c-1.4-0.4-2.2-1.9-1.8-3.3l0,0l8.5-27.9c0.3-1.1,1.3-1.8,2.4-1.7c2,0.1,4,0.7,5.9,1.8c0.3,0.1,0.4,0.4,0.4,0.7v20.6
	c0,0.1,0.1,0.2,0.1,0.2c0.1,0,0.1,0,0.2-0.1l11.1-17.1c0.5-0.8,1.4-1.2,2.4-1c2,0.3,3.6,0.9,4.9,1.6c0.8,0.5,1.1,1.4,0.9,2.2
	l-8,29.4c-0.3,1.2-1.6,1.9-2.8,1.6l-1.9-0.5c-1.1-0.3-1.8-1.5-1.5-2.6l0,0l4.6-17c0.1-0.1,0-0.3-0.1-0.3c-0.1-0.1-0.3,0-0.3,0.1
	l-8.1,14c-0.4,0.6-1.1,1-1.8,0.9c-1.1-0.2-2.6-0.5-4.4-1c-1.9-0.5-2.2-2-2.1-3.8C361.2,65.9,361.4,62.3,361.4,60.8z"/>
<path class="st1" d="M71.4,58l-10.3,4.1c-0.3,0.1-0.4,0.4-0.3,0.7l0,0l13.6,33.7c0.4,1-0.1,2-1,2.4l-3,1.2c-1.2,0.5-2.5-0.1-3-1.2
	C62.6,88.8,57.1,76.5,50.7,62c-0.8-1.9-0.4-3.3,1.3-4.1c7.8-3.8,15.5-7.5,23-11c0.7-0.3,1.5,0,1.9,0.7c0,0,0,0,0,0.1l16.4,40.6
	c0.6,1.4-0.1,3-1.5,3.5L88.7,93c-1.2,0.5-2.7-0.1-3.2-1.3L72.3,58.4C72.1,58.1,71.7,57.9,71.4,58L71.4,58z"/>
<path class="st0" d="M123.9,57.4c-0.5,0.1-1-0.3-1.1-0.8l-0.2-1.4c-0.5-3.4,0.7-6.3,2.6-6.6l0,0h0.3c1.9-0.3,3.8,2.2,4.3,5.6
	l0.2,1.4c0.1,0.5-0.3,1-0.8,1.1L123.9,57.4z"/>
<path class="st0" d="M274.8,49c0-0.1,0.1-0.2,0.2-0.2l2.5,0.3c3.3,0.4,5.8,2.8,5.5,5.3l0,0v0.3c-0.3,2.5-3.2,4.2-6.6,3.8l0,0
	l-2.5-0.3c-0.1,0-0.2-0.1-0.2-0.3l0,0L274.8,49z"/>
<path class="st0" d="M200.2,50.5l0.4,5.9c0.1,1.8-1.1,3.4-2.9,3.8l-0.4,0.1c-1.3,0.1-2.5-0.8-2.6-2.1c0-0.1,0-0.1,0-0.2
	c-0.1-3.4,1.4-6.1,4.4-8c0.4-0.2,0.8-0.1,1,0.2C200.1,50.3,200.2,50.4,200.2,50.5z"/>
<path class="st1" d="M105.6,83c-0.4,0.2-0.5,0.6-0.4,0.9l3.4,10c0.5,1.4-0.3,2.9-1.7,3.4l0,0l-1.8,0.6c-1.4,0.5-2.8-0.3-3.3-1.6
	c-6.1-17.5-10.6-30.5-13.3-39c-0.6-1.8-0.1-3.2,1.5-4.1c4.2-2.4,8.5-3.3,12.7-2.5c8.5,1.5,11.7,12.2,11.3,19.9
	C113.8,76.4,111,80.6,105.6,83z M96.8,58.5l5.5,17.1c0.1,0.3,0.4,0.4,0.6,0.3h0.2c3.7-1.2,5.6-5.3,4.4-9.2l-1.2-3.8
	c-1.3-3.9-5.3-6.1-8.9-5h-0.2C96.8,58,96.7,58.3,96.8,58.5z"/>
<path class="st1" d="M393.3,71.5c-1.4,3.8-1.9,8.7,3.1,9.7c0.4,0.1,0.8,0,1.1-0.2c1-0.7,1.8-1.4,2.4-2.1c0.5-0.7,1.4-0.9,2.1-0.6
	l3.2,1.4c0.7,0.3,1.1,1.2,0.8,1.9v0.1c-3.9,7.8-15.2,8.5-19.4,0.6c-4.5-8.3,1.3-21.2,7.9-26.9c3.5-3,7.2-3.7,11.1-2
	c8.5,3.6,6.2,14.2,3.7,21c-0.2,0.6-0.9,1-1.5,0.8L394.1,71C393.8,70.9,393.4,71.1,393.3,71.5z M396.7,65.6l5.5,2.4
	c0.4,0.2,0.8,0,1-0.4l0,0l0.1-0.3c1.5-3.5,1.4-6.9-0.4-7.7l0,0l-0.5-0.2c-1.8-0.8-4.4,1.4-6,4.9l-0.1,0.3
	C396.1,65,396.3,65.4,396.7,65.6L396.7,65.6z"/>
<path class="st0" d="M96.8,58.5c-0.1-0.3,0.1-0.6,0.3-0.6h0.2c3.7-1.2,7.7,1.1,8.9,5l1.2,3.8c1.3,3.9-0.7,8-4.4,9.2h-0.2
	c-0.3,0.1-0.6-0.1-0.6-0.3L96.8,58.5z"/>
<path class="st0" d="M396.7,65.6c-0.4-0.2-0.5-0.6-0.4-1l0,0l0.1-0.3c1.5-3.5,4.2-5.7,6-4.9l0.5,0.2c1.8,0.8,1.9,4.2,0.4,7.7l0,0
	l-0.1,0.3c-0.2,0.4-0.6,0.5-1,0.4l0,0L396.7,65.6z"/>
<path class="st1" d="M427.4,76.4l4.7-10.1c0.3-0.7,1.2-1,1.9-0.7l3.8,1.8c0.7,0.3,1,1.2,0.7,1.9L425.9,99c-0.3,0.7-1.2,1.1-1.9,0.8
	l-4.2-1.8c-0.7-0.3-1.1-1.2-0.8-1.9l4.5-10.5c0.3-0.7,0-1.6-0.8-1.9l-3-1.3c-0.7-0.3-1.5,0-1.9,0.7L413,93.6c-0.3,0.7-1.2,1-1.9,0.7
	l-4-1.9c-0.7-0.3-1-1.2-0.7-1.9L419,61.1c0.3-0.7,1.2-1.1,1.9-0.8l4,1.7c0.7,0.3,1.1,1.2,0.8,1.9l-4.2,9.8c-0.3,0.7,0,1.6,0.8,1.9
	l3.4,1.4C426.3,77.4,427.1,77.1,427.4,76.4z"/>
<path class="st1" d="M445.4,96.1c0.2-0.3,0.1-0.7-0.3-0.9c-0.2-0.1-0.5-0.1-0.7,0.1l-9.1,7.7c-1.1,0.9-2.6,1-3.8,0.4l-2.8-1.5
	c-0.8-0.4-1.1-1.4-0.7-2.3c0.1-0.2,0.2-0.4,0.4-0.5l10.6-8.9c0.1-0.1,0.1-0.2,0.1-0.3c-0.5-1-1.4-2.2-1.5-3.3c-0.3-4.4,1-8,3.8-10.9
	c5.4-5.6,13.4-2.4,19.1,1c0.7,0.4,1,1.4,0.7,2.2L448,107.4c-0.7,1.5-2.3,2.2-3.9,1.7l-2-0.6c-1.2-0.4-1.9-1.7-1.5-2.9
	c0-0.1,0.1-0.3,0.2-0.4L445.4,96.1z M448.3,89.8l4.3-9.9c0-0.1,0-0.2-0.1-0.3l0,0l-0.1-0.1c-2.8-1.2-6.1,0.1-7.3,2.9l0,0l-0.1,0.1
	c-1.2,2.8,0.1,6.1,2.9,7.3l0,0L448,90C448.2,90,448.3,90,448.3,89.8L448.3,89.8z"/>
<path class="st0" d="M448.3,89.8c0,0.1-0.2,0.2-0.3,0.1l0,0l-0.1-0.1c-2.8-1.2-4.1-4.5-2.9-7.3l0,0l0.1-0.1c1.2-2.8,4.5-4.1,7.3-2.9
	l0,0l0.1,0.1c0.1,0,0.2,0.2,0.1,0.3l0,0L448.3,89.8z"/>
<path class="st1" d="M461.5,83.8l2.1-4c0.4-0.7,1.3-1,2-0.6l0,0l15,8.1c0.7,0.4,1,1.3,0.6,2l0,0l-2,3.8c-0.4,0.7-1.3,1-2,0.6l0,0
	l-3.1-1.6c-0.7-0.4-1.6-0.1-2,0.6l0,0L460,115.1c-0.4,0.7-1.2,1-1.9,0.7l-4.2-1.8c-0.8-0.3-1.1-1.2-0.8-2c0,0,0-0.1,0.1-0.1
	l12.2-22.6c0.4-0.7,0.1-1.6-0.6-2l0,0l-2.6-1.4C461.3,85.4,461.1,84.5,461.5,83.8L461.5,83.8z"/>
<path class="st1" d="M17.6,100.9l24.3-13.5c0.9-0.5,2-0.2,2.5,0.7l1.9,3.4c0.5,0.9,0.2,2-0.7,2.5l-24.3,13.5c-0.9,0.5-2,0.2-2.5-0.7
	l-1.9-3.4C16.4,102.5,16.7,101.4,17.6,100.9z"/>
<path class="st1" d="M234.4,363.9l-6.9-5.8c-0.3-0.3-0.8-0.4-1.2-0.2c-7.6,3.3-15.8,5-24.4,5.3c-1.3,0-2.3-0.9-2.4-2.2v-0.1
	c-0.1-1.2,0.8-2.4,2-2.5c6.4-0.9,12.6-2.5,18.6-4.8c2.1-0.5,3.8-1.1,5.3-1.8c6.4-2.8,13.3-6.7,20.6-11.5c24.1-15.9,36-44,32.7-72.4
	c-2.2-19.2-9.8-35.7-22.8-49.6c-10-10.7-21.7-18.3-35.2-22.7c-35-11.4-76.1-7.5-104.4,18.4c-8.5,7.8-15.4,17.2-20.6,28.3
	c-8.9,19-9.9,43.7-1.1,63.2c0.4,0.8,0.9,1.6,1.5,2.3c4.9,5.4,8.4,11.1,10.6,17c0.3,3.1,1.1,5.2,2.2,6.3
	c12.6,11.6,27.4,19.6,44.4,23.9c1.4,0.4,2.3,1.8,2,3.2v0.1c-0.3,1.5-1.8,2.4-3.3,2.1c-7.3-1.4-13.8-3.5-19.6-6.4
	c-0.4-0.2-1-0.2-1.4,0l-6.9,3.4l-10.4,5.8c-0.3,0.2-0.5,0.6-0.3,0.9l4.5,11.2c0.5,1.2-0.1,2.6-1.3,3.1l-0.3,0.1
	c-1.1,0.5-2.4,0-3-1.1l-8.9-17.8c-0.3-0.6-0.4-1.3-0.3-2c1.9-14.9-0.8-30.1-9.2-42.5c-0.1-0.2-1-1-2.5-2.6c-2.6-2.6-5.2-2.6-6.6,1.2
	c-1.8,4.9-0.2,11.6,1.3,16.5c0.2,0.5,0,1.1-0.4,1.5c-5.4,5-8.7,12.8-6.9,19.9c0.3,1.3,1.5,3.8,3.6,7.2c0.1,0.2,0.2,0.4,0.2,0.6
	c0.1,0.8-0.1,1.5-0.6,2c-0.9,0.8-2.3,0.8-3.1,0l0,0c-6.5-7-7.8-15-4.1-24c1.1-2.7,2.6-5.2,4.3-7.4c0.2-0.3,0.3-0.7,0.1-1
	c-2.7-5.3-15.1-23.1-22-18.9c-8,4.9,6.7,21.9,11,26.2c1,1,1,2.7,0,3.7l0,0l-0.1,0.1c-1.1,1-2.7,1-3.8,0c-6-6-9.5-9.5-10.4-10.3
	c-2.3-2-4.9-3.7-8-2.8c-2.3,0.7-3.9,2.2-4.9,4.5c-2.4,6,8.9,14.4,12.7,16.7c3.7,2.2,5.8,3.4,6.2,3.8c1.3,1,1.4,2.1,0.4,3.3
	c-0.8,0.9-2.1,1.2-3.1,0.8c-4.1-1.6-11.4-5.3-17.2-4.9c-1,0.1-1.8,0.8-2,1.8c-0.4,3.2,2.7,7.2,5.1,9.3c10.4,9.3,22.6,14.2,36.7,14.6
	c0.7,0,1.2,0.1,1.4,0.3c0.8,0.7,0.9,1.8,0.2,2.6c0,0.1-0.1,0.1-0.2,0.2c-1.2,1.1-2.6,1.8-4,2l-7.3-0.2c-0.2,0-0.3,0.1-0.3,0.3v0.1
	c3.7,12.4,12,26.6,23.9,31.7c12.3,5.3,24.4,0,33.6-9c1.7-1.5,3.5-3.2,5.5-5c0.9-0.8,1.7-1.2,2.6-1.2c0.9,0,1.7,0.8,1.7,1.7
	c0,0.1,0,0.2,0,0.3c-0.2,1-0.6,2.1-1.4,3.1l-6.6,7.9c-0.5,0.6-0.8,1.2-0.9,2l-3.5,19.7c-1.5,0.1-3.4-0.1-5.6-0.6
	c-0.4-0.1-0.7-0.3-1.1-0.6l2.5-14.3c0-0.2-0.1-0.3-0.3-0.4c-0.1,0-0.2,0-0.2,0c-10.5,5.6-21.1,5.7-31.8,0.2
	c-13.5-6.9-21.6-22.5-24.9-36.8c-0.1-0.6-0.5-1-1.1-1.2c-9.7-3-17.9-7.9-24.8-14.7c-3.7-3.6-6.7-9.2-5.3-14.3
	c0.9-3.4,3.5-5.4,7.5-5.8c0.1,0,0.3-0.1,0.2-0.3c0-0.1,0-0.1-0.1-0.2c-6-6-7.5-16-0.2-21.5c2.9-2.2,6.2-2.9,10-2
	c0.2,0.1,0.4-0.1,0.4-0.3c0-0.1,0-0.2,0-0.2c-2.3-5.6-1.7-10.3,1.8-14.1c1.9-2.1,4.5-3.1,7.6-3c7.8,0.4,12.9,6.1,18.2,11.7
	c0.1,0.1,0.3,0.1,0.4,0c0.1,0,0.1-0.1,0.1-0.2c0.8-5.2,3.3-8.5,7.3-9.8c0.3-0.1,0.5-0.4,0.4-0.8l0,0c-10-28.1-4.4-59.4,13.6-82.9
	c0.2-0.2,0.1-0.5-0.1-0.7l0,0c-14-8.8-24.3-20.7-30.9-35.8c-6.2-14.2-8.9-28.7-8.1-43.5c0.9-15.1,8.2-33.2,24.3-38.2
	c12.9-4,25.2,2.2,34.3,11.5c7,7.1,14.1,16.5,18.3,25.9c6.7,14.9,10.4,30.4,11.3,46.5c0,0.2,0.2,0.4,0.4,0.3c0,0,0,0,0.1,0l14.4-3.5
	c0.3-0.1,0.4-0.3,0.4-0.6c-0.5-2.8-1.1-6-1.6-9.6c-2-13.5-1-26.2,2.9-38.3c6.9-21.4,29.9-38.9,49.7-17.7
	c17.5,18.8,20.3,50.4,14.4,74.1c0,0.2,0.1,0.4,0.2,0.5c8.4,3.8,16,8.6,22.7,14.6c0.2,0.2,0.6,0.2,0.8-0.1c0.1-0.1,0.1-0.2,0.1-0.3
	c3.3-19.1,8.4-48.1,15.2-87.2c1.3-7.7,2.8-12.9,4.3-15.7c4.4-7.9,11.2-12.8,20.5-14.6c3.2-0.6,8.8-0.1,12.7,0.5
	c32.5,5.6,76,13.2,130.3,22.8c5,0.9,8,1.5,9.2,1.8c13.8,3.8,23.3,16.6,21.5,31.2c-0.3,2.4-1.4,8.7-3.3,18.9
	c-20.2,108.6-33.8,181.8-40.9,219.6c-3.1,16.4-19.1,26.1-35,23.1c-45-8.7-88.8-17.1-131.4-25.2c-0.1,0-0.3,0.1-0.3,0.2s0,0.1,0,0.2
	c9,14,14,30.5,18.5,46.9c0.5,1.7-0.5,3.5-2.2,4h-0.1c-1.6,0.5-3.3-0.5-3.7-2.1v-0.1c-3.9-16.4-9.5-31.1-16.8-44
	C247.7,379,241.7,371.1,234.4,363.9z M265,219.9c0,0,0.1,0.1,0.2,0c0,0,0,0,0-0.1c6.3-34.4,12.5-69,18.6-103.7
	c1.5-8.7,9.1-14.4,18.1-12.8c21.6,3.7,66.1,11.4,133.5,23.3c6.1,1.1,10,2.2,11.7,3.4c3.5,2.5,5.8,5.8,6.9,10
	c0.5,2.1,0.2,6.3-0.9,12.5c-21.8,116.8-35.8,192.2-42.1,226.1c-0.6,3.4-1.4,5.9-2.2,7.3c-2.6,4.5-7,7.9-12.3,8.6
	c-1.5,0.2-4.1-0.1-7.7-0.8c-39.9-7.8-82.6-15.9-128-24.4c-7.3-1.4-11.8-2.7-13.6-4c-3.9-2.8-6.1-7-6.6-12.5c0-0.4-0.4-0.7-0.8-0.7
	c-0.1,0-0.2,0-0.3,0.1l-4.9,2.5c-0.2,0.1-0.3,0.3-0.2,0.5l0.1,0.1c6.3,5.6,12,12.2,17.2,19.6c0.4,0.5,0.9,0.9,1.6,1
	c58.6,11.2,102.8,19.7,132.8,25.5c5.1,1,8.8,1.3,11,1c9.6-1.4,17.5-8.3,20.3-17.7c0.5-1.5,1-3.7,1.5-6.6
	c4.5-24.1,18.6-99.8,42.3-227.1c0.9-4.8,1.3-8,1.1-9.5c-0.8-7.5-4.5-13.6-10.8-18c-3.8-2.6-8.7-3.6-13.7-4.5
	c-49.3-8.8-93.9-16.5-133.8-23.4c-7.2-1.2-15.5,0.2-20.7,5.4c-5.6,5.6-7.2,11.9-8.5,19.3c-6.5,37.7-11.9,68.4-16.1,92
	c0,0.2,0,0.3,0.1,0.4L265,219.9z M272,229.5c5,8.4,8.8,17.7,11.4,28.1l1.5,9.8c0.5,7.2,0.3,14.5-0.4,21.8l-1.7,10.1
	c-1.9,7.1-4.5,13.6-7.8,19.5l-9.2,12.9L254,342.5c-2.6,1.6-4.2,2.8-4.8,3.4c-1.3,1.3-2,3.1-2,5.4c-1,3.4-0.4,6.2,1.8,8.2
	c1.5,1.4,3.2,2.3,5.1,2.7c2.6,0.6,8.7,1.7,18.5,3.5l4.4,0.7l74.8,14.3l5.4,1l26.7,5.2l4.6,0.8c7.7,2.5,14.9,0.5,16.5-8.2
	c14.4-76.3,28.7-153,42.9-229.9c1.2-3.2,1.3-6.3,0.5-9.2c-1.8-6.3-9.1-7.6-15.3-8.4l-13.8-2.5l-42.8-7.6
	c-23.7-4.1-47.4-8.3-71.2-12.5c-4.3-0.8-7.3-0.8-9.1-0.2c-3.8,1.3-6.2,4.3-7,9c-9.4,53-15.5,86.5-18.1,100.7
	c-0.3,1.6-0.8,3.3-1.4,5.2c-0.2,0.6-0.1,1.2,0.2,1.7L272,229.5z M108.7,212.6c7-6.9,14.7-12.6,23-17l11.6-5.4
	c0.3-0.1,0.4-0.4,0.4-0.7c-1.1-14.7-4.4-28.8-10-42.5c-3.5-8.5-7.7-15.7-12.7-21.4c-8.8-10.3-20.7-19.1-34.3-15
	c-18.8,5.6-21.2,34.6-18.2,50.1c1.8,9.5,5.1,18.9,9.9,28c6.1,11.6,14.7,20.8,25.8,27.6c0.2,0.1,0.5,0.1,0.7-0.1L108.7,212.6z
	 M223.8,189.5c4.5-18,3.3-35.7-3.5-53.1c-2.2-5.7-5.9-10.9-11-15.5c-13.2-11.8-26.7-3.8-33.5,9.5c-8.4,16.1-9,35.3-5,53.1
	c0,0.2,0.2,0.3,0.4,0.3c17.6-1.6,34.9,0.5,51.8,6.2C223.4,190,223.7,189.8,223.8,189.5L223.8,189.5z M110.6,358.3l12.8-8
	c0.1-0.1,0.1-0.2,0.1-0.3l-0.1-0.1c-4.5-2.5-8.8-5.5-12.7-8.8c-0.1-0.1-0.3-0.1-0.4,0c0,0.1-0.1,0.1-0.1,0.2
	c0.6,5.1,0.6,10.7,0,16.8c0,0.1,0.1,0.2,0.2,0.3C110.5,358.3,110.6,358.3,110.6,358.3z"/>
<path class="st1" d="M485.5,103.1c0.5,0.3,1.6,1,3.6,2.1c4,2.3,5.8,7.3,4.3,11.8c-4.2,12.4-17.9,11-25.8,3.9c-0.6-0.5-0.7-1.3-0.3-2
	l16.3-28.2c0.4-0.8,1.4-1,2.2-0.6l0,0L489,92c0.9,0.5,1.2,1.7,0.7,2.6l-4.4,7.6C485.1,102.5,485.2,102.9,485.5,103.1z M481.4,109
	l-5.2,8.4c-0.2,0.3-0.1,0.8,0.2,1l0,0l1.2,0.7c2.7,1.6,6.1,0.9,7.7-1.6l0.3-0.5c1.6-2.5,0.7-5.9-2-7.6l-1.2-0.7
	C482.1,108.6,481.6,108.7,481.4,109L481.4,109z"/>
<path class="st2" d="M265,219.9l-6-7.2c-0.1-0.1-0.1-0.3-0.1-0.4c4.2-23.6,9.6-54.2,16.1-92c1.3-7.4,2.8-13.8,8.5-19.3
	c5.3-5.2,13.6-6.6,20.7-5.4c39.9,6.8,84.5,14.6,133.8,23.4c4.9,0.9,9.9,1.9,13.7,4.5c6.3,4.4,10,10.5,10.8,18
	c0.2,1.5-0.2,4.7-1.1,9.5c-23.7,127.3-37.8,203-42.3,227.1c-0.5,2.8-1,5-1.5,6.6c-2.8,9.4-10.7,16.4-20.3,17.7c-2.2,0.3-5.9,0-11-1
	c-29.9-5.8-74.2-14.3-132.8-25.5c-0.6-0.1-1.2-0.5-1.6-1c-5.2-7.4-10.9-14-17.2-19.6c-0.2-0.1-0.2-0.4,0-0.6l0.1-0.1l4.9-2.5
	c0.4-0.2,0.8,0,1,0.3c0,0.1,0.1,0.2,0.1,0.3c0.5,5.5,2.7,9.7,6.6,12.5c1.8,1.3,6.4,2.7,13.6,4c45.4,8.5,88.1,16.7,128,24.4
	c3.7,0.7,6.2,1,7.7,0.8c5.2-0.6,9.7-4,12.3-8.6c0.8-1.4,1.5-3.9,2.2-7.3c6.3-33.9,20.3-109.2,42.1-226.1c1.2-6.3,1.5-10.5,0.9-12.5
	c-1.1-4.2-3.4-7.5-6.9-10c-1.7-1.2-5.5-2.3-11.7-3.4c-67.5-11.7-112-19.5-133.6-23.2c-9-1.5-16.6,4.2-18.1,12.8
	c-6.1,34.7-12.3,69.3-18.6,103.7C265.2,219.9,265.2,219.9,265,219.9C265.1,219.9,265,219.9,265,219.9z"/>
<path class="st3" d="M376.5,121.9c-1,1.6-2.2,3-3.4,4.3c-6.7,7-13.5,13.9-20.5,20.6c-1.7,1.6-4.2,4.3-7.7,8.2
	c-2.5,2.8-5.2,5.4-8,7.9c-9.2,2.6-15.3,9.4-18.2,20.3c-14.6,13.3-28.5,27.2-41.5,41.6c-1.5,1.7-3.3,3.2-5.1,4.7l-2.1-3.6
	c-0.3-0.5-0.4-1.2-0.2-1.7c0.6-1.9,1.1-3.7,1.4-5.2c2.6-14.2,8.7-47.7,18.1-100.7c0.8-4.7,3.2-7.8,7-9c1.8-0.6,4.8-0.5,9.1,0.2
	C329,113.6,352.7,117.8,376.5,121.9z M349.6,130c-0.4-0.4-1-0.4-1.4,0c-0.1,0.1-0.2,0.3-0.3,0.5c-1.2,4.6-2,7.4-7,8.6
	c-0.6,0.1-0.9,0.7-0.8,1.3c0.1,0.3,0.3,0.6,0.6,0.7c1.6,0.7,2.7,1.6,3.1,2.8c0.1,0.2,0.2,0.5,0.1,0.8l0.1,6.8c0,0.4,0.4,0.8,0.8,0.8
	c0.2,0,0.4-0.1,0.5-0.2l0.3-0.2c0.2-0.2,0.3-0.3,0.3-0.6c1.2-4.4,2-7.2,7-8.4c0.6-0.1,0.9-0.7,0.8-1.2c-0.1-0.3-0.3-0.6-0.7-0.7
	c-1.3-0.5-2.3-1.3-2.9-2.4c-0.2-0.3-0.3-0.7-0.3-1.1c0-3.7,0-6-0.1-6.7C349.8,130.2,349.7,130,349.6,130z M297.6,155.7
	c-0.1,0.4,0.1,0.6,0.4,0.8c2.6,1.5,5.3,2.4,7.2,4.6c3.5,4,2.4,9.5,2,15.1c0,0.6,0.4,1.2,1.1,1.2c0.3,0,0.5-0.1,0.8-0.2
	c0.3-0.2,0.6-0.6,0.8-1.1c1.5-4.3,2.1-11.1,8.4-13.6c0.3-0.1,0.6-0.2,0.9-0.2c1.5-0.2,3.2-0.3,5-0.5c0.7-0.1,1.1-0.4,1.2-0.8
	c0.1-0.5-0.2-0.9-0.9-1.2c-1.6-0.8-3.1-1.6-4.5-2.3c-0.3-0.1-0.5-0.3-0.8-0.5c-5-4.6-3-11.2-2.9-15.7c0-0.6-0.1-1-0.3-1.3
	c-0.3-0.5-1.1-0.7-1.6-0.3c-0.2,0.1-0.4,0.4-0.5,0.6c-1.6,5.3-2.6,10.8-7.3,13.3c-2.6,1.4-5.5,1.2-8.4,1.7
	C297.9,155.2,297.7,155.4,297.6,155.7z"/>
<path class="st0" d="M481.4,109c0.2-0.3,0.7-0.5,1-0.2l0,0l1.2,0.7c2.7,1.6,3.5,5,2,7.6l-0.3,0.5c-1.6,2.5-5,3.3-7.7,1.6l-1.2-0.7
	c-0.3-0.2-0.5-0.7-0.2-1l0,0L481.4,109z"/>
<path class="st4" d="M131.8,195.6c-0.5-0.1-0.8-0.4-0.9-0.9c0-0.1,0-0.2,0-0.3c0.2-0.5,0.2-0.9,0.1-1.3
	c-3.2-10.9-5.5-20.9-10.6-30.9c-3.5-6.8-7.1-12.6-10.9-17.4c-1.7-2.1-2.9-3.5-3.8-4.3c-3.6-3.2-6.1-5.9-11-8.1
	c-4.1-1.9-7.9-1.7-11.3,0.4c-3.2,2-4.1,6.9-4.4,10.3c-1.4,16.8,4.6,31.5,12.6,46.9c3.6,6.9,9.3,14.5,17.1,22.7l-3.7,3.7
	c-0.2,0.2-0.5,0.2-0.7,0.1c-11.1-6.8-19.7-16-25.8-27.6c-4.8-9.2-8.1-18.5-9.9-28c-2.9-15.5-0.6-44.5,18.2-50.1
	c13.5-4,25.4,4.8,34.3,15c4.9,5.7,9.2,12.9,12.7,21.4c5.6,13.6,8.9,27.8,10,42.5c0,0.3-0.1,0.6-0.4,0.7L131.8,195.6z"/>
<path class="st4" d="M223.8,189.5c-0.1,0.3-0.4,0.5-0.7,0.4c0,0,0,0-0.1,0c-16.9-5.7-34.2-7.7-51.8-6.2c-0.2,0-0.3-0.1-0.4-0.3
	c-4-17.7-3.4-36.9,5-53.1c6.8-13.2,20.4-21.2,33.5-9.5c5.1,4.6,8.7,9.7,11,15.5C227.1,153.8,228.3,171.5,223.8,189.5z"/>
<path class="st5" d="M376.5,121.9l42.8,7.6c-2.2,1.9-4.5,3.6-6.5,5.6c-17.1,16.7-34.1,33.4-51,50.2c-0.9,0.9-2.1,1.8-3.6,2.7
	c-0.7-2.7-1.5-5.4-2.5-8.1c-2.2-6.2-6.1-11-11.5-14.4c-0.2-0.1-0.5-0.3-0.7-0.3l-6.7-2.2c2.9-2.5,5.5-5.1,8-7.9
	c3.5-3.9,6-6.6,7.7-8.2c7-6.7,13.8-13.6,20.5-20.6C374.3,124.9,375.4,123.5,376.5,121.9z"/>
<path class="st0" d="M349.6,130c0.1,0.1,0.1,0.2,0.1,0.5c0,0.8,0.1,3,0.1,6.7c0,0.4,0.1,0.8,0.3,1.1c0.7,1.1,1.7,1.9,2.9,2.4
	c0.5,0.2,0.8,0.8,0.6,1.3c-0.1,0.3-0.4,0.6-0.7,0.7c-4.9,1.2-5.8,4-7,8.4c-0.1,0.2-0.2,0.4-0.3,0.6l-0.3,0.2c-0.3,0.3-0.8,0.3-1.1,0
	c-0.1-0.1-0.2-0.3-0.2-0.5l-0.1-6.8c0-0.3-0.1-0.5-0.1-0.8c-0.5-1.2-1.5-2.2-3.1-2.8c-0.5-0.2-0.8-0.8-0.6-1.3
	c0.1-0.3,0.4-0.5,0.7-0.6c5-1.2,5.8-4,7-8.6c0.1-0.5,0.7-0.9,1.2-0.7C349.4,129.7,349.5,129.8,349.6,130z"/>
<path class="st3" d="M433.1,132c-1.8,3.2-4.3,6.6-7.7,9.9c-9.3,9.3-17,16.9-23.1,22.9c-4.2,4.1-7.4,8.4-11.3,11.6
	c-2.4,2-5.3,4.8-8.7,8.4c-6,6.4-12.4,12.8-19,19.1c-1.1,1-2.1,2.8-3,5.3c0.4-7.1-0.2-14.2-2-21.2c1.4-0.9,2.6-1.8,3.6-2.7
	c16.9-16.8,33.9-33.6,51-50.2c2-1.9,4.3-3.7,6.5-5.6L433.1,132z"/>
<path class="st2" d="M131.8,195.6c-8.4,4.5-16,10.1-23,17c-7.9-8.2-13.6-15.8-17.1-22.7c-8-15.5-13.9-30.1-12.6-46.9
	c0.3-3.4,1.2-8.3,4.4-10.3c3.4-2.1,7.2-2.3,11.3-0.4c4.8,2.2,7.4,5,11,8.1c0.8,0.7,2.1,2.2,3.8,4.3c3.8,4.8,7.4,10.6,10.9,17.4
	c5.1,10,7.4,20,10.6,30.9c0.1,0.4,0.1,0.8-0.1,1.3c0,0.1,0,0.2,0,0.3C130.9,195.2,131.2,195.5,131.8,195.6z"/>
<path class="st5" d="M433.1,132c6.2,0.8,13.5,2.1,15.3,8.4c0.8,2.9,0.7,6-0.5,9.2l-18.9,18c-2.6-2.1-6.1-3.2-5.9-7.2
	c0.1-0.9,0.2-2.7,0.3-5.6c0-0.6,0-1-0.2-1.1c-0.6-0.4-1.5-0.2-1.9,0.5c-0.1,0.1-0.1,0.3-0.2,0.4c-0.9,3-2.8,8-5.9,8.4
	c-1.6,0.2-3,0.6-4.1,1.2c-0.4,0.2-0.5,0.6-0.3,1c0.1,0.1,0.2,0.3,0.4,0.3c2.2,1,3.8,2.2,4.8,3.7c0.5,0.7,0.8,2.1,0.8,4.1
	c0,2.1,0.1,4,0.5,6l-11.2,9.8c-8.5,1.6-15.9,6-22.3,13.2c-4.5,5.1-7.9,10-10,14.7c-1.8,3.8-3.5,7.6-5.1,11.2
	c-0.2,0.5-0.8,0.8-1.4,0.6l-8-2.9c-0.7-0.2-1.1-0.9-0.9-1.6c1-4.8,1.6-9.8,1.8-15c0.9-2.5,1.9-4.3,3-5.3c6.6-6.4,13-12.8,19-19.1
	c3.4-3.6,6.3-6.4,8.7-8.4c3.9-3.2,7-7.5,11.3-11.6c6.1-5.9,13.9-13.6,23.1-22.9C428.8,138.5,431.3,135.2,433.1,132z"/>
<path class="st0" d="M325.4,160.9c-0.1,0.5-0.5,0.7-1.2,0.8c-1.8,0.2-3.5,0.4-5,0.5c-0.3,0-0.6,0.1-0.9,0.2
	c-6.3,2.5-6.9,9.3-8.4,13.6c-0.2,0.5-0.4,0.9-0.8,1.1c-0.5,0.4-1.2,0.3-1.6-0.3c-0.2-0.2-0.2-0.5-0.2-0.8c0.4-5.5,1.5-11.1-2-15.1
	c-1.9-2.2-4.7-3.1-7.2-4.6c-0.3-0.2-0.5-0.5-0.4-0.8c0.1-0.4,0.3-0.6,0.6-0.6c2.9-0.5,5.8-0.3,8.4-1.7c4.7-2.5,5.7-8,7.3-13.3
	c0.2-0.6,0.8-1,1.4-0.8c0.3,0.1,0.5,0.2,0.6,0.5c0.2,0.3,0.3,0.8,0.3,1.3c-0.1,4.5-2.1,11.2,2.9,15.7c0.2,0.2,0.5,0.4,0.8,0.5
	c1.4,0.7,2.9,1.5,4.5,2.3C325.2,160.1,325.5,160.4,325.4,160.9z"/>
<path class="st3" d="M447.9,149.6c-14.2,76.9-28.5,153.6-42.9,229.9c-1.6,8.7-8.7,10.8-16.5,8.2c-2.1-14.7-6.4-28.7-13.1-41.9
	c-2.8-5.6-6.3-10.7-10.4-15.3c-0.2-0.3-0.2-0.7,0.1-0.9c0.1-0.1,0.1-0.1,0.2-0.1c4.8-1.8,9.3-4.2,13.5-7.3c0.4,1.8,0.4,3.3,0.2,4.5
	c-0.6,3.2-0.8,5.3-0.6,6.5c0.1,0.4,0.4,0.6,0.8,0.6c0.2,0,0.4-0.2,0.5-0.4c1.5-3.1,2.6-6.3,3.9-9.3c0.8-1.8,2.1-3.3,3.8-4.3
	c2.3-1.4,8.7-0.7,9.4-1.8c0.3-0.4,0.2-1-0.3-1.3c-0.1,0-0.2-0.1-0.2-0.1c-3.6-1.1-6.2-3.1-7.8-5.9c2.3-2.5,4.4-6,6.3-10.6
	c4.7-11.4,5.8-22.4,3-32.9c-0.8-3.1-2.1-6.2-2.9-9.1c-0.2-0.6,0.1-1.1,0.6-1.4c15-7.6,25.6-19.3,31.7-35.1c1.4-3.5,2.2-7.6,2.5-12.3
	c0.8-13.4-10.3-23.6-23.6-20.1l11.2-9.8c2.1-1.5,3.6-3.6,4.7-6.3c0.6-1.5,1.2-2.4,1.8-2.7c1-0.5,2.1-0.9,3.2-1.1
	c0.5-0.1,0.8-0.3,1.1-0.5c0.3-0.3,0.6-0.6,0.8-0.9L447.9,149.6z M397.8,354.4l-2.1-0.9c-1.4-0.6-2.4-2-2.4-3.6V344c0-0.6-0.4-1-1-1
	c-0.4,0-0.8,0.2-1,0.6l-2.5,5.8c-0.2,0.5-0.7,1-1.2,1.2l-3.7,1.5c-0.3,0.1-0.4,0.5-0.3,0.8c0.1,0.1,0.2,0.3,0.3,0.3
	c5.5,2.3,3,5.4,3.9,9.8c0.1,0.4,0.4,0.6,0.8,0.6c0.2,0,0.4-0.2,0.5-0.3c0.5-0.9,1.1-2.2,1.8-3.8c1.5-3.6,3.2-3.6,6.7-4.1
	c0.3,0,0.5-0.3,0.4-0.5C398.1,354.6,397.9,354.4,397.8,354.4z"/>
<path class="st0" d="M429,167.6c-0.2,0.3-0.5,0.6-0.8,0.9c-0.3,0.2-0.6,0.4-1.1,0.5c-1.1,0.2-2.2,0.6-3.2,1.1
	c-0.6,0.3-1.2,1.2-1.8,2.7c-1.1,2.7-2.7,4.8-4.7,6.3c-0.4-1.9-0.6-3.9-0.5-6c0-2-0.2-3.4-0.8-4.1c-1.1-1.5-2.7-2.7-4.8-3.7
	c-0.4-0.2-0.5-0.6-0.4-0.9c0.1-0.2,0.2-0.3,0.3-0.4c1.1-0.6,2.5-1,4.1-1.2c3.1-0.4,5-5.5,5.9-8.4c0.2-0.8,1-1.3,1.7-1.1
	c0.1,0,0.3,0.1,0.4,0.2c0.2,0.1,0.2,0.5,0.2,1.1c-0.1,2.9-0.2,4.7-0.3,5.6C422.8,164.4,426.4,165.6,429,167.6z"/>
<path class="st6" d="M336.8,162.9l6.7,2.2c0.3,0.1,0.5,0.2,0.7,0.3c5.5,3.5,9.3,8.3,11.5,14.4c1,2.6,1.8,5.3,2.5,8.1
	c1.8,7,2.4,14.1,2,21.2c-0.1,5.2-0.7,10.2-1.8,15c-0.2,0.7,0.2,1.4,0.9,1.6l8,2.9c0.5,0.2,1.1-0.1,1.4-0.6c1.6-3.7,3.3-7.4,5.1-11.2
	c2.2-4.7,5.5-9.6,10-14.7c6.4-7.2,13.8-11.6,22.3-13.2c13.3-3.4,24.4,6.7,23.6,20.1c-0.3,4.7-1.1,8.8-2.5,12.3
	c-6.2,15.8-16.7,27.5-31.7,35.1c-0.5,0.3-0.8,0.8-0.6,1.4c0.8,2.9,2.2,6,2.9,9.1c2.7,10.5,1.7,21.5-3,32.9c-1.9,4.6-4,8.1-6.3,10.6
	c-2.1-4.3-0.7-7.1,1.4-10.9c10.5-21.4,2.2-47.6-16.5-61.1c-5.5-3.9-10.8-6.9-16-8.7c-16.7-6.1-36.1-3.3-50.9,6.1
	c-4,2.6-7.9,6.8-10.8,10.1c-2.6,2.9-4.8,6.4-6.6,10.4c-1.6,3.5-3,7.1-4.3,10.8l-1.5-9.8c2.9-6.3,5.9-11.3,9.1-14.9
	c7.4-8.4,16.3-14.4,26.6-18.2c0.7-0.2,1-1,0.8-1.6c-3.1-9.7-4.2-19.7-3.4-29.9c0.1-1.4,0.8-4.7,2.1-9.7
	C321.5,172.3,327.6,165.5,336.8,162.9z M324.7,222.1c-0.1,0.2,0.1,0.4,0.5,0.6c0.2,0.1,0.4,0.1,0.6,0.1c9.4-1.8,18.7-1.5,27.9,0.9
	c0.3,0.1,0.6-0.1,0.7-0.4c0,0,0,0,0-0.1c1.5-10,1.4-20.2-0.4-30.3c-1.2-7.3-4.2-16.1-9.7-21.5c-7.8-7.7-15.2-0.2-18.5,6.8
	c-2.1,4.5-3.8,10.5-4.3,16.3C320.8,203.7,321.8,212.9,324.7,222.1z M378.2,236c4.7,3.9,8.8,8.3,12.1,13.2l1.8,3.2
	c0.2,0.3,0.5,0.4,0.8,0.2c14.3-6.8,24.3-19.2,29.8-34.1c3-7.9,3.5-19.7-5.3-24.2c-6.4-3.2-17.1,0.9-22.7,4.6
	c-5.5,3.6-10,8.5-13.6,14.7c-3.2,5.6-6,11.6-8.4,17.7c-0.1,0.3,0,0.6,0.2,0.8L378.2,236z"/>
<path class="st4" d="M354,192.9l-29.4,29.3c-2.9-9.2-3.9-18.4-3.1-27.6c0.5-5.8,2.2-11.8,4.3-16.3c3.4-7,10.7-14.5,18.5-6.8
	C349.8,176.8,352.8,185.5,354,192.9z"/>
<path class="st5" d="M318.6,183.2c-1.3,5.1-2,8.3-2.1,9.7c-0.8,10.2,0.3,20.2,3.4,29.9c0.2,0.7-0.1,1.4-0.8,1.6
	c-10.4,3.8-19.2,9.9-26.6,18.2c-3.2,3.6-6.2,8.6-9.1,14.9c-2.5-10.3-6.3-19.7-11.4-28.1c1.7-1.5,3.5-3,5.1-4.7
	C290.1,210.4,303.9,196.5,318.6,183.2z M294.6,227c1.1-1.4,2-3.2,2.8-5.6c0.3-1,1.2-1.8,2.2-2l3.1-0.8c0.4-0.1,0.6-0.5,0.5-0.9
	c-0.1-0.2-0.2-0.4-0.4-0.5l-1.2-0.5c-1-0.4-1.8-1.4-1.9-2.5l-1.1-6.9c-0.1-0.4-0.4-0.6-0.8-0.6c-0.2,0-0.4,0.2-0.5,0.4
	c-1.6,3.4-2.5,7.4-7.2,7.2c-0.6,0-1.1,0.5-1.1,1.1c0,0.5,0.3,0.9,0.8,1.1c5.3,1.5,3.1,6.4,3.7,10.2c0.1,0.3,0.4,0.6,0.7,0.5
	C294.3,227.2,294.5,227.1,294.6,227z"/>
<path class="st0" d="M220,353.6c-2.9-1.4-6.3-1.5-10.3-0.1c-0.4,0.1-0.7,0.2-1.1,0.2c-7.5,0.9-13,2-19.9,1.8
	c-11.6-0.2-20.3-1-26.1-2.4c-9.6-2.3-17.3-4.6-23.1-7.1c-10.8-4.6-21.8-11.7-33-21.3c-2.2-5.9-5.7-11.6-10.6-17
	c-0.6-0.7-1.1-1.4-1.5-2.3c-8.8-19.5-7.8-44.2,1.1-63.2c5.2-11.1,12.1-20.5,20.6-28.3c28.2-25.8,69.3-29.8,104.4-18.4
	c13.4,4.4,25.2,12,35.2,22.7c12.9,13.9,20.5,30.4,22.8,49.6c3.3,28.4-8.6,56.5-32.7,72.4c-7.3,4.8-14.2,8.7-20.6,11.5
	C223.9,352.5,222.1,353.1,220,353.6z M236.9,220.3c-0.9-1.7-3-2.5-4.7-1.6l0,0l-19.7,9.8c-1.7,0.9-2.5,3-1.6,4.7l0,0l0.1,0.3
	c0.9,1.7,3,2.5,4.7,1.6l0,0l19.7-9.8c1.7-0.9,2.5-3,1.6-4.7l0,0L236.9,220.3z M141.2,224.9c-0.7,1.5,0,3.2,1.5,3.9
	c0.1,0,0.2,0.1,0.3,0.1c7.7,2.4,14.9,5.4,21.7,8.9c1.8,0.9,4,0.3,5-1.5l0.2-0.3c1-1.7,0.4-3.9-1.3-4.8c0,0-0.1,0-0.1-0.1
	c-5.6-3-13.2-5.8-22.8-8.5c-1.8-0.5-3.6,0.4-4.4,2.1L141.2,224.9z M222.6,237.4c-6,0.9-10,8-8.8,15.9s7,13.6,13,12.8
	c6-0.9,10-8,8.8-15.9C234.4,242.2,228.6,236.5,222.6,237.4z M156.9,239.7c-6.2,0.4-10.8,7.2-10.3,15.2s6,14.2,12.1,13.8l0,0
	c6.2-0.4,10.8-7.2,10.3-15.2C168.5,245.4,163.1,239.3,156.9,239.7L156.9,239.7z M194.7,283.4c3.6,0,7.6-1.7,10.5-3.9
	c5-3.9,6.3-11.3-0.3-14.5c-3.2-1.6-6.6-1.8-10.4-1.8c-3.8,0-7.1,0.3-10.3,2c-6.5,3.4-5.1,10.6,0,14.5
	C187.1,281.9,191,283.4,194.7,283.4z M170.2,325.6c1.6,3,6.7,5.1,9.7,4.3c6.9-1.6,13.5-2.3,19.8-2c5.9,0.3,9.8,0.4,11.7,0.2
	c6.7-0.4,10.1-5.9,9.6-12.7c-0.6-8.6-7.1-16.4-15.3-18.5c-10.2-2.6-19.4-0.6-27.4,6.2C172.5,308.1,166.1,317.9,170.2,325.6z"/>
<path class="st7" d="M324.7,222.1l29.4-29.3c1.8,10.2,2,20.3,0.4,30.3c0,0.3-0.4,0.6-0.7,0.5c0,0,0,0-0.1,0
	c-9.2-2.4-18.5-2.8-27.9-0.9c-0.2,0-0.4,0-0.6-0.1C324.8,222.6,324.6,222.4,324.7,222.1z"/>
<path class="st7" d="M390.4,249.2c2.5-1.6,4.9-3.3,7.2-5c4.3-3.3,8.9-9.2,11.2-12.1c4.7-5.9,7.2-12.5,7.4-19.7
	c0-0.6-0.3-1.2-0.8-1.5c-8.9-5.8-18.4,3.3-24.2,9.3c-3.2,3.4-5.9,6.2-8.1,8.5c-2,2.1-3.7,4.6-4.9,7.3l-5.3-3.9
	c-0.2-0.2-0.3-0.5-0.2-0.8c2.3-6.2,5.1-12.1,8.4-17.7c3.6-6.2,8.1-11.1,13.6-14.7c5.7-3.7,16.4-7.8,22.7-4.6
	c8.8,4.5,8.2,16.2,5.3,24.2c-5.5,14.9-15.6,27.3-29.8,34.1c-0.3,0.1-0.6,0-0.8-0.2L390.4,249.2z"/>
<path class="st0" d="M294.6,227c-0.2,0.3-0.6,0.3-0.9,0.1c-0.1-0.1-0.2-0.2-0.2-0.4c-0.6-3.7,1.6-8.7-3.7-10.2
	c-0.6-0.2-0.9-0.8-0.7-1.4c0.1-0.5,0.6-0.8,1.1-0.8c4.8,0.2,5.6-3.7,7.2-7.2c0.2-0.3,0.6-0.5,0.9-0.3c0.2,0.1,0.4,0.3,0.4,0.5
	l1.1,6.9c0.2,1.1,0.9,2,1.9,2.5l1.2,0.5c0.4,0.2,0.5,0.6,0.4,0.9c-0.1,0.2-0.3,0.4-0.5,0.4l-3.1,0.8c-1,0.3-1.9,1-2.2,2
	C296.5,223.8,295.6,225.6,294.6,227z"/>
<path class="st2" d="M390.4,249.2c-3.3-4.9-7.4-9.3-12.1-13.2c1.2-2.8,2.9-5.2,4.9-7.3c2.2-2.3,4.9-5.1,8.1-8.5
	c5.8-6.1,15.3-15.2,24.2-9.3c0.5,0.3,0.8,0.9,0.8,1.5c-0.2,7.2-2.6,13.8-7.4,19.7c-2.3,2.9-6.9,8.8-11.2,12.1
	C395.2,245.9,392.8,247.6,390.4,249.2z"/>
<path class="st1" d="M212.5,228.4l19.7-9.8c1.7-0.9,3.9-0.1,4.7,1.6l0.1,0.3c0.9,1.7,0.1,3.9-1.6,4.7l-19.7,9.8
	c-1.7,0.9-3.9,0.1-4.7-1.6l-0.1-0.3C210,231.4,210.7,229.3,212.5,228.4z"/>
<path class="st1" d="M141.2,224.9l0.1-0.1c0.8-1.7,2.6-2.5,4.4-2.1c9.6,2.7,17.2,5.5,22.8,8.5c1.7,0.9,2.4,3.1,1.4,4.8
	c0,0,0,0.1-0.1,0.1l-0.2,0.3c-1,1.7-3.2,2.4-5,1.5c-6.8-3.5-14-6.5-21.7-8.9c-1.5-0.5-2.4-2.1-1.9-3.7
	C141.1,225.1,141.2,225,141.2,224.9z"/>
<path class="st7" d="M389.9,299.8c-1.1-0.4-1.8-0.9-2.1-1.6c-0.2-0.6-0.9-0.8-1.4-0.6c-0.2,0.1-0.4,0.3-0.6,0.5
	c-0.9,1.8-1.5,3.3-1.8,4.5c-1.1,4.6-4.2,8.5-9.4,8.2c-1.8-0.1-2.9-0.2-3.2-0.2c-0.8-0.1-1.5,0.4-1.6,1.2c-0.1,0.6,0.3,1.2,0.8,1.5
	c2.4,1,4.4,2.7,6,5c-13,8.7-27.3,12-42.9,10c-17.4-2.3-31.5-10.2-42.4-23.9c-3.4-4.2-5.7-9.3-7-15.2c0.7-7.3,0.9-14.5,0.4-21.8
	c1.3-3.8,2.7-7.4,4.3-10.8c1.8-4,4-7.4,6.6-10.4c3-3.3,6.8-7.5,10.8-10.1c14.8-9.4,34.2-12.1,50.9-6.1c5.2,1.9,10.5,4.8,16,8.7
	C392.1,252.1,400.4,278.4,389.9,299.8z M333.2,241.2c-0.1-1.3-1.2-2.2-2.5-2.1L321,240c-1.3,0.1-2.2,1.2-2.1,2.5v0.3
	c0.1,1.3,1.2,2.2,2.5,2.1l9.7-0.9c1.3-0.1,2.2-1.2,2.1-2.5V241.2z M376.3,258.4c0.9-1.1,0.7-2.7-0.4-3.6l0,0l-8-6.5
	c-1.1-0.9-2.7-0.7-3.6,0.4l0,0l-0.1,0.1c-0.9,1.1-0.7,2.7,0.4,3.6l0,0l8,6.5c1.1,0.9,2.7,0.7,3.6-0.4l0,0L376.3,258.4z M311.4,249.9
	c-6.2,6-7.9,13.2-5,21.6c0.1,0.4,0.3,0.7,0.5,1c1.3,1.6,2.5,2.5,3.8,2.8c7.4,1.8,14.5-1.5,16.7-8.8c1.2-4,2.3-9.3,0-12.9
	c-3.4-5.6-9.2-7.4-15.2-4.2C312,249.5,311.7,249.7,311.4,249.9z M366.1,259.7c-6.7-1.3-13.4,4.2-15.1,12.4l0,0
	c-1.7,8.2,2.4,15.9,9.1,17.3c6.7,1.3,13.4-4.2,15.1-12.4l0,0C376.8,268.8,372.8,261.1,366.1,259.7z M325.6,280.2
	c-0.6,3,2.8,6.3,7.7,7.3c4.9,1,9.3-0.7,9.9-3.7s-2.8-6.3-7.7-7.3C330.7,275.5,326.2,277.2,325.6,280.2z M332.6,291.7
	c-4.3-1.2-9.2,2.7-10.9,8.7c-1.8,6.1,0.3,12,4.6,13.2l0,0c4.3,1.2,9.2-2.7,10.9-8.7S336.9,293,332.6,291.7L332.6,291.7z"/>
<ellipse transform="matrix(0.9895 -0.1444 0.1444 0.9895 -33.9883 35.0857)" class="st1" cx="224.7" cy="251.7" rx="11" ry="14.5"/>
<path class="st6" d="M321,240.1l9.7-0.9c1.3-0.1,2.4,0.8,2.5,2.1v0.3c0.1,1.3-0.8,2.4-2.1,2.5l-9.7,0.9c-1.3,0.1-2.4-0.8-2.5-2.1
	v-0.3C318.8,241.4,319.7,240.3,321,240.1z"/>
<ellipse transform="matrix(0.9979 -6.453326e-02 6.453326e-02 0.9979 -16.0689 10.7126)" class="st1" cx="157.8" cy="254.1" rx="11.2" ry="14.5"/>
<path class="st6" d="M367.9,248.3l8,6.5c1.1,0.9,1.2,2.5,0.4,3.6l-0.1,0.1c-0.9,1.1-2.5,1.2-3.6,0.4l-8-6.5
	c-1.1-0.9-1.2-2.5-0.4-3.6l0.1-0.1C365.2,247.6,366.8,247.4,367.9,248.3z"/>
<path class="st6" d="M312.3,249.3c6-3.2,11.8-1.4,15.2,4.2c2.2,3.6,1.1,8.9,0,12.9c-2.2,7.4-9.3,10.6-16.7,8.8
	c-1.2-0.3-2.5-1.2-3.8-2.8c-0.2-0.3-0.4-0.6-0.5-1c-2.9-8.4-1.3-15.6,5-21.6C311.7,249.7,312,249.5,312.3,249.3z M320.8,254.2
	c-2.5-1.3-5.7,0-7.2,2.9c-1.5,2.9-0.8,6.3,1.7,7.6c2.5,1.3,5.7,0,7.2-2.9S323.2,255.5,320.8,254.2z M312.9,267.2
	c-0.9-0.1-1.8,0.7-1.9,1.7l0,0c-0.1,1.1,0.5,2,1.4,2.1s1.8-0.7,1.9-1.7C314.5,268.2,313.9,267.3,312.9,267.2z M318.7,267.7
	c-0.9-0.3-1.8,0.2-2.2,1.2l0,0c-0.4,1,0.1,2,0.9,2.3l0,0c0.9,0.3,1.8-0.2,2.2-1.2l0,0C320,269.1,319.6,268,318.7,267.7L318.7,267.7z
	"/>
<ellipse transform="matrix(0.4648 -0.8854 0.8854 0.4648 -59.5082 420.382)" class="st4" cx="318" cy="259.4" rx="5.9" ry="5.1"/>
<path class="st6" d="M366.1,259.7c6.7,1.3,10.7,9.1,9.1,17.3c-1.7,8.2-8.4,13.7-15.1,12.4l0,0c-6.7-1.3-10.7-9.1-9.1-17.3
	C352.7,263.9,359.4,258.4,366.1,259.7L366.1,259.7z M364.4,265.1c-2.9-0.8-5.9,1.3-6.9,4.7c-0.9,3.4,0.7,6.8,3.5,7.5
	c2.9,0.8,5.9-1.3,6.9-4.7S367.2,265.9,364.4,265.1z M358.2,278.3c-0.8-0.3-1.7,0.3-2,1.2l0,0c-0.3,0.9,0,1.9,0.8,2.2l0,0
	c0.8,0.3,1.7-0.3,2-1.2l0,0C359.3,279.6,359,278.6,358.2,278.3L358.2,278.3z M364.4,281.1c-0.6-0.7-1.7-0.6-2.6,0.1l0,0
	c-0.9,0.7-1.1,1.9-0.6,2.6c0.6,0.7,1.7,0.6,2.6-0.1l0,0C364.7,282.9,365,281.8,364.4,281.1z"/>
<path class="st1" d="M194.5,263.2c3.8,0,7.1,0.2,10.4,1.8c6.6,3.2,5.3,10.5,0.3,14.5c-2.9,2.2-6.8,3.9-10.5,3.9
	c-3.6,0-7.6-1.5-10.5-3.7c-5.1-3.8-6.5-11.1,0-14.5C187.4,263.5,190.7,263.2,194.5,263.2z"/>
<ellipse transform="matrix(0.2605 -0.9655 0.9655 0.2605 6.3219 550.7246)" class="st7" cx="362.7" cy="271.2" rx="6.4" ry="5.4"/>
<ellipse transform="matrix(0.1149 -0.9934 0.9934 0.1149 9.484 548.8091)" class="st4" cx="312.7" cy="269.1" rx="2" ry="1.7"/>
<ellipse transform="matrix(0.3387 -0.9409 0.9409 0.3387 -43.1834 477.4943)" class="st4" cx="318.1" cy="269.5" rx="1.9" ry="1.6"/>
<ellipse transform="matrix(0.1977 -0.9803 0.9803 0.1977 -8.1399 554.1377)" class="st6" cx="334.5" cy="282" rx="5.6" ry="9"/>
<ellipse transform="matrix(0.3338 -0.9426 0.9426 0.3338 -25.7441 523.5686)" class="st7" cx="357.5" cy="280" rx="1.8" ry="1.5"/>
<ellipse transform="matrix(0.7638 -0.6455 0.6455 0.7638 -96.6358 300.9385)" class="st7" cx="362.8" cy="282.5" rx="2.1" ry="1.6"/>
<path class="st6" d="M284.4,289.1c1.3,5.9,3.6,11,7,15.2c10.9,13.7,25,21.6,42.4,23.9c15.6,2,29.9-1.3,42.9-10c0.9,0.7,1.6,2,2,4
	c-4.2,3.1-8.7,5.5-13.5,7.3c-0.3,0.1-0.5,0.5-0.4,0.8c0,0.1,0.1,0.1,0.1,0.2c4.1,4.6,7.6,9.7,10.4,15.3
	c6.7,13.2,11.1,27.2,13.1,41.9l-4.6-0.8c-1.1-9-3.2-17.6-6.4-25.9c-4.1-10.8-9.4-21.1-16.9-29.7c-0.3-0.4-0.8-0.5-1.3-0.4
	c-22.2,5.8-45.4,0.5-62.9-14.4c-0.4-0.4-1.1-0.5-1.6-0.3c-7.3,2.3-12.6,5-19.8,9.7c-3,1.9-6,3.8-9.2,5.7l9.2-12.9
	c-0.1,0.3-0.1,0.5,0,0.6c0.1,0.2,0.4,0.3,0.6,0.2l0,0c4.7-3,9.9-5.3,15.6-6.7c0.3-0.1,0.5-0.4,0.4-0.7c0-0.1-0.1-0.2-0.1-0.2
	c-1.8-1.9-3.3-4-4.6-6.3c-0.2-0.4-0.7-1.3-1.4-2.8c-0.7-1.4-1.6-2.6-2.7-3.5L284.4,289.1z"/>
<ellipse transform="matrix(0.2773 -0.9608 0.9608 0.2773 -52.7727 535.2344)" class="st6" cx="329.4" cy="302.7" rx="11.4" ry="8.1"/>
<path class="st1" d="M170.2,325.6c-4.1-7.7,2.2-17.5,8.2-22.5c8-6.8,17.2-8.8,27.4-6.2c8.1,2.1,14.6,10,15.3,18.5
	c0.5,6.8-2.9,12.3-9.6,12.7c-1.9,0.1-5.8,0-11.7-0.2c-6.3-0.3-12.9,0.4-19.8,2C176.9,330.7,171.9,328.6,170.2,325.6z M208.4,321.4
	c0-0.2-0.2-0.5-0.5-0.9c-8.4-9.2-22.8-7.9-29.8,2.1c-0.2,0.2-0.1,0.5,0.1,0.7c0.1,0.1,0.2,0.1,0.4,0.1c9.8-1.6,19.2-3.5,29.4-1.7
	C208.2,321.8,208.4,321.7,208.4,321.4C208.4,321.5,208.4,321.4,208.4,321.4z"/>
<path class="st0" d="M389.9,299.8c-2.1,3.8-3.6,6.5-1.4,10.9c1.5,2.8,4.1,4.8,7.8,5.9c0.5,0.1,0.8,0.7,0.6,1.1
	c0,0.1-0.1,0.2-0.1,0.2c-0.7,1.1-7.1,0.4-9.4,1.8c-1.7,1-3,2.5-3.8,4.3c-1.4,3-2.4,6.1-3.9,9.3c-0.2,0.3-0.6,0.5-0.9,0.3
	c-0.2-0.1-0.3-0.3-0.4-0.5c-0.2-1.1,0-3.3,0.6-6.5c0.2-1.1,0.1-2.6-0.2-4.5c-0.4-1.9-1-3.2-2-4c-1.6-2.3-3.6-4-6-5
	c-0.7-0.3-1-1.1-0.8-1.8c0.2-0.6,0.8-0.9,1.5-0.8c0.3,0,1.4,0.1,3.2,0.2c5.2,0.3,8.3-3.6,9.4-8.2c0.3-1.2,0.9-2.7,1.8-4.5
	c0.3-0.5,0.9-0.7,1.5-0.5c0.2,0.1,0.4,0.3,0.5,0.6C388.1,298.8,388.8,299.4,389.9,299.8z"/>
<path class="st5" d="M274.9,318.8c3.3-5.9,5.9-12.4,7.8-19.5c1.1,0.9,2.1,2.1,2.7,3.5c0.7,1.5,1.2,2.5,1.4,2.8
	c1.3,2.3,2.8,4.4,4.6,6.3c0.2,0.2,0.2,0.6,0,0.8c-0.1,0.1-0.1,0.1-0.2,0.1c-5.7,1.4-10.9,3.7-15.6,6.7c-0.2,0.1-0.5,0.1-0.6-0.1l0,0
	C274.9,319.3,274.9,319.1,274.9,318.8z"/>
<path class="st8" d="M208.4,321.4c0,0.2-0.1,0.3-0.3,0.3H208c-10.2-1.9-19.6,0.1-29.4,1.7c-0.3,0-0.5-0.1-0.6-0.4
	c0-0.1,0-0.3,0.1-0.4c7.1-9.9,21.4-11.3,29.8-2.1C208.2,320.9,208.4,321.2,208.4,321.4z"/>
<path class="st7" d="M383.8,387l-26.7-5.2c-1.3-9.7-3.6-19.1-7-28.2c-0.4-1-1.5-1.5-2.5-1.2c-0.2,0.1-0.4,0.2-0.6,0.3
	c-0.8,0.7-1,1.8-0.6,3.3c2.5,8,4.2,16.3,5.2,24.7l-74.8-14.3c1.6-4.4,3.2-8.6,4.6-12.9c0.8-2.3,4.3-9.4,10.6-21.3
	c0.4-0.7,0.1-1.5-0.6-1.9c-0.2-0.1-0.4-0.2-0.7-0.2h-0.5c-1.4,0-2.7,0.8-3.5,2c-6.6,11.1-11.4,22.3-14.4,33.5
	c-9.8-1.8-15.9-2.9-18.5-3.5c-1.9-0.4-3.5-1.3-5.1-2.7c-2.3-2.1-2.9-4.8-1.8-8.2c3.8-2.4,6.1-5.3,6.8-8.8l11.8-10.8
	c3.1-1.9,6.2-3.8,9.2-5.7c7.2-4.7,12.6-7.4,19.8-9.7c0.6-0.2,1.2,0,1.6,0.3c17.5,14.9,40.7,20.2,62.9,14.4c0.5-0.1,1,0,1.3,0.4
	c7.5,8.7,12.8,18.9,16.9,29.7C380.6,369.3,382.7,377.9,383.8,387z"/>
<path class="st2" d="M220,353.6c-6,2.3-12.3,3.9-18.6,4.8c-1.2,0.2-2.1,1.3-2,2.5v0.1c0.1,1.3,1.2,2.2,2.4,2.2
	c8.7-0.3,16.8-2,24.4-5.3c0.4-0.2,0.9-0.1,1.2,0.2l6.9,5.8c-6.5,5-13.4,8.8-20.7,11.5c-4.2,1.5-8.7,2.5-13.6,2.8
	c-13.1,0.8-26.5-0.5-40.3-4c-13.7-3.4-25.6-9-35.8-16.7l6.9-3.4c0.5-0.2,1-0.2,1.4,0c5.7,2.8,12.2,4.9,19.6,6.4
	c1.5,0.3,3-0.7,3.3-2.1v-0.1c0.3-1.4-0.5-2.9-2-3.2c-17.1-4.3-31.9-12.2-44.4-23.9c-1.1-1.1-1.9-3.2-2.2-6.3
	c11.2,9.5,22.2,16.6,33,21.3c5.7,2.5,13.4,4.8,23.1,7.1c5.8,1.4,14.5,2.2,26.1,2.4c6.9,0.1,12.4-1,19.9-1.8c0.4,0,0.7-0.1,1.1-0.2
	C213.7,352.1,217.2,352.2,220,353.6z"/>
<path class="st6" d="M276.9,366.4l-4.4-0.7c3.1-11.2,7.9-22.4,14.4-33.5c0.7-1.2,2-2,3.5-2h0.5c0.8,0,1.4,0.6,1.4,1.4
	c0,0.2-0.1,0.4-0.2,0.7c-6.3,11.9-9.9,19-10.6,21.3C280.1,357.7,278.5,362,276.9,366.4z"/>
<path class="st0" d="M110.2,358c0.6-6.1,0.6-11.7,0-16.8c0-0.1,0.1-0.3,0.2-0.3s0.1,0,0.2,0.1c4,3.4,8.2,6.3,12.7,8.8
	c0.1,0.1,0.2,0.2,0.1,0.3c0,0,0,0.1-0.1,0.1l-12.8,8c-0.1,0.1-0.3,0-0.3-0.1C110.3,358.1,110.2,358.1,110.2,358z"/>
<path class="st3" d="M253.9,342.5c-0.7,3.5-3,6.4-6.8,8.8c0-2.3,0.7-4.1,2-5.4C249.8,345.2,251.4,344.1,253.9,342.5z"/>
<path class="st0" d="M397.8,354.4c0.3,0.1,0.4,0.4,0.3,0.6s-0.2,0.3-0.4,0.3c-3.5,0.5-5.2,0.5-6.7,4.1c-0.7,1.6-1.3,2.9-1.8,3.8
	c-0.2,0.3-0.6,0.5-1,0.3c-0.2-0.1-0.3-0.3-0.3-0.5c-0.8-4.4,1.7-7.5-3.9-9.8c-0.3-0.1-0.4-0.5-0.3-0.8c0.1-0.1,0.2-0.3,0.3-0.3
	l3.7-1.5c0.5-0.2,1-0.6,1.2-1.2l2.5-5.8c0.2-0.5,0.8-0.8,1.3-0.5c0.4,0.2,0.6,0.5,0.6,1v5.8c0,1.6,0.9,3,2.4,3.6L397.8,354.4z"/>
<path class="st6" d="M357.2,381.7l-5.4-1c-1-8.4-2.7-16.7-5.2-24.7c-0.5-1.5-0.3-2.6,0.6-3.3c0.8-0.7,2.1-0.6,2.7,0.2
	c0.1,0.2,0.3,0.4,0.3,0.6C353.6,362.6,355.9,372,357.2,381.7z"/>
<path class="st1" d="M250.9,439.8c-1.3-0.2-2.4-1.2-2.6-2.5c-3.9-20-9.7-39.2-17.3-57.7c-0.4-1.1,0.1-2.3,1.1-2.7
	c0.1-0.1,0.3-0.1,0.4-0.1c0.9-0.2,1.7,0.2,2.5,1.1c1.3,1.4,2.9,4.3,4.8,8.6c6.8,15.6,11.5,32,14.1,49
	C254.3,437.9,253.8,440.2,250.9,439.8z"/>
<path class="st2" d="M78.2,382.5c1.3,7.7,4.5,14.4,9.6,19.9s14.3,10.9,22,9.2c2.7-0.6,5.7-1.5,9.1-2.6c0.5-0.2,1-0.4,1.4-0.8
	c2.7-2.3,5.3-3.2,7.8-2.7c-9.2,8.9-21.3,14.3-33.6,9c-11.9-5.1-20.3-19.3-23.9-31.7c0-0.2,0-0.3,0.2-0.4h0.1L78.2,382.5z"/>
<path class="st2" d="M136.6,404.5c0.6,0.7,0.8,1.5,0.5,2.5c-2.2,9.3-3.9,18.7-5.2,28l-6.3-1l3.5-19.7c0.1-0.7,0.4-1.4,0.9-2
	L136.6,404.5z"/>
</svg>
