<?xml version="1.0" encoding="utf-8"?>
<!-- Generator: Adobe Illustrator 27.1.1, SVG Export Plug-In . SVG Version: 6.00 Build 0)  -->
<svg version="1.1" id="Слой_1" xmlns="http://www.w3.org/2000/svg" xmlns:xlink="http://www.w3.org/1999/xlink" x="0px" y="0px"
	 viewBox="0 0 440 512" style="enable-background:new 0 0 440 512;" xml:space="preserve">
<style type="text/css">
	.st0{fill:#FFFFFF;}
	.st1{fill:#D3DBE4;}
	.st2{fill:#EA435B;}
</style>
<path class="st0" d="M96.8,215.3c1-3,2.7-8.8,5-17.5c1.7-6.3,4.2-12.1,7.5-17.2c4.8-7.4,7.6-14,11.6-21.7c0.8-1.5,2.9-4.1,6.5-7.7
	c2.8-2.9,5.5-5.5,8-7.8c0.3-0.2,0.4-0.6,0.3-0.9c-2.8-10.6-4.9-16-5.5-24.4c-0.1-1.7-0.7-5.6-1.7-11.8c-0.5-3.4,0.6-9.8,0.5-14.4
	c-0.1-3.4,0.9-7.5,0.5-10.3c-1.4-9.8,3.9-20.8,8.5-29.8c1.2-2.4,2.6-4.5,4.2-6.4c5.1-6.1,11.2-12.3,18.1-18.4c2.7-2.4,5-4,6.9-4.8
	c5.3-2.2,12.9-5.8,19.6-3.7c1.4,0.4,3.2,0.9,5.2,1.3c1,0.2,2,0.5,2.9,1c2.5,1.2,5.4,2.5,7.7,4.2c3.7,2.7,6.6,4.8,8.8,6.3
	c0.9,0.6,1.7,1.4,2.3,2.4l4.5,7.4c0.2,0.3,0.5,0.6,0.7,0.9c6.7,6.4,8,14.8,11.8,27.2c0.1,0.4,0.2,0.8,0.2,1.1
	c0.1,12,0.1,19.5-0.2,22.3c-0.5,4.6-0.7,9.3-0.8,14.3c-0.1,5.2-0.6,7.8-1.2,12.8c-0.1,0.5,0.3,0.9,0.8,1l0,0
	c7.8,0.6,15.8,1.8,24.1,3.5c0.4,0.1,0.7-0.2,0.8-0.5l0,0c0.2-1.3,0.2-3.2,0.7-4.5c0.6-2,1.6-4.3,2.9-7c2.8-5.8,3.5-12.3,6.5-17.8
	c1-1.9,2.2-4.3,3.4-7.2c2.6-6.1,5.5-11.5,8.7-16.1c7.4-10.6,16.2-19.6,26.5-26.7c2.2-1.5,5.2-2.6,6.6-4.5c1-1.3,3.4-1.9,5.2-3
	c3.9-2.5,6.3-3.8,7.4-4.1c5.1-1.2,8.6-2.1,10.6-2.5c1.6-0.3,3.3-0.4,4.9-0.1c2.1,0.4,3.3,0.6,3.6,0.6c0.6,0,1.3,0.1,1.9,0.3
	c3.4,1.3,6.9,1.3,9.6,3c5.3,3.4,11,7.2,14.4,12.6c4.3,6.9,6.9,11.7,7.6,14.3c0.7,2.4,3.4,3.6,1.9,6.8c-0.3,0.6-0.4,1.2-0.3,1.9
	c0.8,5.2,1.2,8.2,1.2,9.1c-0.1,8.5-0.2,14.4-0.2,17.7c0,2.7-0.7,5.7-1.9,8.8c-1.2,3-2.2,5.9-2.9,8.8c-0.1,0.6-0.3,1.1-0.6,1.6
	c-0.6,1.4-1.4,3.1-2.4,5.2c-0.5,1.1-1,1.9-1.4,2.5c-1.5,1.8-2.7,3.8-3.6,6c-2,4.9-5.8,9.9-7.6,13.3c-1.4,2.6-3,4.9-4.7,6.9
	c-5.1,5.8-11,15-18.1,21.6c-2.4,2.2-5.1,4.8-8,7.7c-0.2,0.2-0.3,0.5-0.1,0.8l3.1,6.5c0.3,0.6,0.6,1.2,1,1.8c4.3,6.1,8.3,12,8.7,19
	c0.3,5.9,0.6,9.7,0.8,11.6c1.1,12.1-0.5,23.8-2.9,36c-0.9,4.5-2.6,9.4-5.2,14.7c-4.1,8.5-7.3,14.4-9.6,17.6
	c-2.5,3.6-6.5,8.7-11.9,15.1c-0.5,0.6-1.1,1.2-1.7,1.6l-7.8,5.9c-0.2,0.2-0.3,0.5-0.1,0.7c4.4,6,8.9,11.2,13.6,15.6
	c2.3,2.2,3.8,4.6,5.4,6.3c0.4,0.4,0.9,0.8,1.4,1.2c4.9,3.2,8.8,7.6,11.7,13.1c3,5.7,5.8,11.1,8.3,16.2c0.7,1.4,1.2,2.5,1.4,3.4
	c1.9,6.6,3.9,13.2,7.4,18.7c0.3,0.5,0.9,0.7,1.4,0.5c1.7-0.5,9-3.3,21.9-8.3c5-1.9,10.3-2.9,16-3.1c2.4,0,4.1,0.1,5.2,0.4
	c0.5,0.1,1,0.4,1.4,0.7c5.8,4.2,10,6.5,9.3,13.8c-0.9,8.6-0.9,17.5-2,26.4c-0.2,1.4-0.7,5.8-1.6,13.1c-0.8,6.6-2.1,13-4.1,19.4
	c-0.3,1-0.1,2,0.6,2.8c2,2.3,3.4,4.8,4.1,7.5c0.9,3.4,0.8,10.5-0.7,14.1c-2.7,6.4-8.5,10.4-15.4,10.5c-4.4,0-8.8,0.6-11.5-1.9
	c-3.8-3.5-5.4-5.8-10.6-6c-3-0.1-6.8,1.5-9.7,3.5c-2.5,1.7-4,2.6-4.6,2.8c-10.1,3.4-18.8,2.2-26.3-3.6c-3.3-2.6-5.2-3.9-5.8-4
	c-0.4-0.1-0.9,0-1.2,0.4c-1.7,1.9-4.2,3.8-7.5,5.6c-0.2,0.1-0.4,0.2-0.6,0.2c-3,0.8-6.2,2.2-9.7,4.3c-2,1.1-4.3,0.9-6.6,1
	c-5.6,0-9.3,0.9-12.2-2.3c-0.4-0.4-0.9-0.8-1.4-1c-5-2-10-4.6-14.8-8c-0.4-0.3-0.8-0.3-1.2,0c-1.8,1.1-3.8,2.4-6.2,3.9
	c-2,1.3-4.9,2.5-8.8,3.4c-8.1,2-17,2.4-26.7,1.2c-0.9-0.1-3.5-1.1-7.6-2.9c-0.4-0.2-0.9-0.3-1.4-0.3c-2.9-0.1-5.2,1.9-7.6,2.2
	c-7,0.7-13.5,1.2-17.7-4.8c-0.1-0.2-0.4-0.3-0.7-0.1c-0.1,0-0.1,0.1-0.1,0.1c-1.4,2.2-4.3,3.2-7.7,4.8c-0.3,0.1-0.6,0.2-0.9,0.2h-9
	c-0.1,0-0.2,0-0.3-0.1c-3.8-1.3-6.7-2.9-8.7-4.7c-1-0.9-2.5-0.8-3.4,0.1c0,0,0,0,0,0.1c-2.3,2.6-4.5,4.1-8,4.7
	c-1.1,0.2-2.4,0.5-3.8,1c-0.4,0.1-0.8,0.2-1.2,0.2l-7.1,0.1c-0.3,0-0.6,0.2-0.6,0.5s-0.1,1.4-0.2,3.3c-0.2,3.9-1.2,7.3-3.2,10.1
	c-0.5,0.8-2,1.7-4.4,2.8c-5.6,2.6-12,3.7-17.9,1.8c-8.8-2.9-8.2-10.1-8.1-18.1c0-0.3-0.2-0.5-0.5-0.5l0,0c-1.8,0-4.9,0-9.4,0.1
	c-7.3,0.1-12.1-1.9-18.1-4.9c-0.8-0.4-1.8-0.4-2.6,0c-8,4.4-15.7,6.4-24.6,2.9c-9-3.5-8.2-10.5-8.2-18.8c0-40,0-62.8,0-68.5
	c0-0.3,0.1-0.5,0.2-0.8c3.5-7.4,9.4-11.2,17.8-11.2c10.1,0,17.2-0.4,24.7,0.4c6.3,0.7,11.7,1.1,16.4,1.2c0.8,0,1.6,0.2,2.4,0.7
	c4.6,2.7,7,4.1,7.1,4.2c2.3,1.8,4.2,5.1,5.6,9.7c0.1,0.3,0.3,0.5,0.6,0.6c2.1,0.5,3.6,0.4,3.9-2c1.4-9.4,2.7-18.4,4.2-27
	c0.1-0.6-0.1-2.1-0.5-4.4c-0.3-1.4-0.9-2.4-1.9-2.7c-10.4-4.1-17.4-7.4-24.4-13.1c-3.4-2.8-6-4.5-8.6-7.2
	c-5.2-5.3-10.4-8.7-15.4-13.8c-2.6-2.7-6.1-5.6-10.3-8.9c-0.8-0.6-2.7-2.8-5.8-6.5c-0.8-0.9-1.6-1.7-2.6-2.4
	c-7.1-4.8-13.5-9.7-18.1-15.8c-0.6-0.8-3.2-4.7-7.9-11.5c-0.5-0.7-0.8-1.4-1.1-2.2c-0.4-1.1-1.5-3.8-3.3-8
	c-3.4-7.9-4.2-15.8-1.8-23.9c1.6-5.6,5.4-10,11.3-9.8c0.7,0,1.3,0,1.8-0.1c0.3,0,0.5-0.3,0.6-0.6c0.7-3.2,1.1-4.8,1.1-4.8
	c2.7-10.8,14.7-17,25.2-15.3c1.1,0.2,2,0.3,2.9,0.4c0.4,0.1,0.8-0.1,1-0.4c7.1-8.7,15.9-10.9,26.5-6.6c1,0.4,3.3,1.7,7,4
	C96.3,215.7,96.6,215.7,96.8,215.3C96.8,215.4,96.8,215.4,96.8,215.3z"/>
<path class="st0" d="M65.5,232.8c-3.2-3.3-6.7-4.8-10.5-4.6c-9.7,0.4-14.8,8.5-13,17.8c0.1,0.3-0.1,0.6-0.4,0.6c0,0,0,0-0.1,0
	c-11.8,1-16.6,10.9-12.6,21.3c3.6,9.5,9.8,19,16.4,26.7c3.3,3.9,7.1,7.1,11.3,9.7c0.6,0.4,1.2,0.9,1.8,1.4c3.3,3.4,7,5.9,11.2,7.4
	c1.2,0.4,2.3,1.3,3,2.3c6.6,9.9,14.9,18.2,25.1,25c12.2,8.1,25.6,12,40.1,11.7c0.2,0,0.4,0.2,0.4,0.4v0.1
	c-4.6,14.5-8.4,29.4-11.2,44.8c0,0.1,0.1,0.3,0.2,0.3l0,0h7.4c0.2,0,0.3-0.1,0.3-0.2c4-20.1,9-40.1,15.1-60.1
	c0.3-1.1-0.3-2.2-1.4-2.6c-0.1,0-0.2-0.1-0.3-0.1c-2.6-0.4-6,7.4-6.7,9.5c-0.2,0.5-0.7,0.9-1.3,0.9c-20.6,0.4-40.6-9.5-54.3-24.7
	c-2.9-3.2-5.7-6.6-8.4-10.3c-0.7-0.9-1.6-1.6-2.6-2.1c-16.1-7.2-27.1-20.5-35.8-36c-2.4-4.3-5.8-10.7-3.3-15.3
	c0.7-1.3,1.7-2.2,2.8-2.7c3.5-1.4,5.9,1,7.8,4.4c1.9,3.5,4.5,7.7,7.6,10.2c0.7,0.6,1.8,0.6,2.5,0c1.1-1,1.2-2.2,0.4-3.7
	c-3.5-6.6-12.2-19.8-7-27.2c2.5-3.5,6.9-3,9.7-0.4c4.9,4.6,6.9,11.4,9.2,17.9c0.6,1.7,1.5,3.1,2.6,4.3c0.8,0.8,2.1,0.9,2.9,0.1
	c0.3-0.3,0.5-0.7,0.6-1.1c0.2-0.8,0.1-1.8-0.2-3c-1.7-7.2-3.4-13.5-2-20.2s7.7-9.4,12.4-3.5c1.4,1.7,2.2,3,2.5,3.6
	c2.8,6.6,4.9,13.7,6.3,21.4c0.8,4.3,1.5,7.4,0.8,11c-0.1,0.4-0.3,0.8-0.7,1c-6.2,3.4-12.4,7.5-14.4,14.4c-0.5,1.8-1,6.4,0.8,7.3
	c0.7,0.3,1.5,0,1.9-0.8c0-0.1,0.1-0.2,0.1-0.3c2.4-9,8.9-13.5,16.9-17.3c0.5-0.2,0.8-0.7,0.8-1.2c0.4-5.1,2.1-9.7,5.2-13.7
	c1.9-2.5,7.2-6.7,10.5-4.6c4,2.6,3.6,8.9,2.7,12.8c-1.7,7-4.1,13.7-7,19.9c-0.7,1.4-0.5,2.7,0.6,3.9c8.5,9.2,18.9,14.7,31.4,16.5
	c4.1,0.6,7.6,1,10.7,1.4c0.8,0.1,1.6,0.3,2.3,0.7c4.3,2.2,9.3,5.2,14,5.7c1.4,0.2,2.6-0.7,3.1-2c0.5-1.6-0.1-2.9-1.9-3.7
	c-5.1-2.4-9.4-4.6-13-6.8c-12.8-7.6-25.7-19.2-32.8-32.4c-0.3-0.5-0.3-1.1-0.2-1.6c2.4-9,1.3-19.4-9-22.7c-0.5-0.2-0.9-0.6-1-1.2
	c-1.7-8-2-16.3-0.8-24.8c3.6-27.1,16.1-48.2,37.5-63.4c29.1-20.8,68.8-22.6,101.6-11.7c46,15.3,77.1,59.5,64.6,108.6
	c-6.1,24.1-22.5,43.2-44.8,54.3c-3.7,1.8-7.8,3.7-12.5,5.7c-1.1,0.5-1.8,0.9-2.3,1.4c-1.2,1.4-1.5,3.9,0.6,4.7
	c3.8,1.5,12.6-2.8,16.5-4.8c0.5-0.2,1-0.2,1.5,0.1c28.6,19.4,46.9,45.9,55,79.3c0,0.2,0.2,0.3,0.3,0.2l7.6-0.3
	c0.1,0,0.3-0.1,0.3-0.3l0,0c-3.5-16-9.6-30.8-18.4-44.3c-0.5-0.8-1.1-1.4-1.7-2.1c-3.2-2.9-6-6.4-8.4-10.3c-0.4-0.7-0.9-1.3-1.5-2
	c-0.9-1-4.5-4.7-10.8-11c-4.8-4.8-10.1-9.2-16-13c-0.2-0.1-0.2-0.3-0.1-0.5l0.1-0.1c15.3-8.8,27-21,35.1-36.7
	c15.6-30.2,13.2-68.4-7.3-96.1c-0.1-0.1,0-0.2,0-0.2l0,0c16.8-11.1,30.3-25.3,40.4-42.6c9.8-16.7,16.1-35.7,14.7-55
	c-1.7-22.3-18-41.1-42.2-33.7c-28.9,8.9-48.3,43.9-56.5,71.5c-1.9,6.4-3.6,13.4-5.1,21.2c-0.1,0.3-0.3,0.5-0.6,0.4h-0.1
	c-3.6-1.8-7.7-2.4-12.4-3.9c-10.3-3.3-21.3-5-33.2-5.1c-0.4,0-0.7-0.3-0.7-0.7c0-0.1,0-0.1,0-0.2c5.8-20.4,7.6-41.9,2.1-62.6
	c-2-7.5-5-14.1-9.2-19.8c-10.1-14-25.9-20-41.8-10.8c-17.1,9.9-25.6,31.5-27.7,50.4c-2.4,21.4,0.9,41.5,9,61.4
	c0.2,0.6,0,1.2-0.5,1.6c-11.4,8.1-20.5,17.9-27.4,29.4c-11.3,18.7-16,39.1-14.1,61.2c0.1,0.7,0.5,2.9,1.3,6.7
	c0.1,0.3-0.1,0.6-0.4,0.8c-2.7,1.3-5.1,3.2-7.1,5.8c-0.1,0.1-0.3,0.2-0.5,0c-0.1-0.1-0.1-0.1-0.1-0.2c-0.9-7.1-2.7-13.7-5.5-19.7
	c-3.8-8.2-11.8-13.8-20.7-9.6c-3,1.5-5.4,4.2-7,8.2c-0.1,0.2-0.1,0.5-0.1,0.9c0,0.3,0,0.6-0.2,0.9c-0.1,0.3-0.4,0.4-0.7,0.2
	C65.6,232.8,65.6,232.8,65.5,232.8z"/>
<path class="st0" d="M164.1,172.1c0.5,1.2,1.9,1.8,3.1,1.4c0.1,0,0.2-0.1,0.2-0.1c6.6-3.4,13.1-5,19.5-4.7c1,0,2-0.6,2.2-1.6
	c1.2-5.1-6.5-5.2-9.8-4.7c-5.1,0.8-9.8,2.7-14.1,5.8c-1.2,0.9-1.7,2.5-1.2,3.9L164.1,172.1z"/>
<path class="st0" d="M265.8,181.4c2.5,1.3,4.9,3.3,7.3,5.8c1.1,1.2,2.8,1.9,4.1,0.5c3.5-3.8-5.5-10.6-8.3-12.1s-13.3-5.2-14.6-0.2
	c-0.5,1.8,1,2.9,2.6,3.2C260.4,179.1,263.3,180.1,265.8,181.4z"/>
<path class="st0" d="M179.4,193.1c-6.3-1-12.6,5.2-14,13.8s2.6,16.5,9,17.5l0,0c6.3,1,12.6-5.2,14-13.8
	C189.8,202,185.8,194.2,179.4,193.1L179.4,193.1z"/>
<path class="st0" d="M258.4,204.6c-6.3-1.2-12.8,4.7-14.5,13.2l0,0c-1.7,8.5,2.1,16.5,8.5,17.7c6.3,1.2,12.8-4.7,14.5-13.2l0,0
	C268.6,213.8,264.8,205.8,258.4,204.6z"/>
<path class="st0" d="M210.4,245.3c6.4,0.9,11.7-1.6,15.6-7c6.1-8.5-6.8-12.9-12.7-13.7c-5.8-0.8-19.5-0.2-16,9.7
	C199.6,240.5,203.9,244.4,210.4,245.3z"/>
<path class="st0" d="M246.4,250.8c-2.2-2.9-5.7-0.4-8.3,1.5c-16.9,11.8-41,9.3-55.2-5.7c-1.5-1.6-5.5-2.2-6.2,0.7
	c-0.3,1.1-0.3,1.9-0.1,2.5c5.2,18.8,17.2,39.3,40.4,34.6c13.4-2.7,24.6-17.2,29.7-29.1C247.5,253.6,247.4,252.1,246.4,250.8z"/>
<path class="st0" d="M290.5,396.7c-3.9-16.4-9.9-31.9-17.9-46.4c-0.7-1.3-2.3-1.9-3.7-1.4h-0.1c-1.4,0.5-2.1,2.1-1.6,3.5
	c2,5.4,4.5,11.7,7.7,19c2.5,5.8,5.1,14.4,7.6,25.8c0,0.1,0.1,0.1,0.2,0.1l7.6-0.3C290.4,397,290.5,396.9,290.5,396.7L290.5,396.7z"
	/>
<path class="st0" d="M382.7,447c3.5,0.1,6.8,0.2,7.1-4.1c1.6-17.3,3.1-34.2,4.5-50.7c0.6-6.6-4.6-8.1-9.9-8.2s-10.5,1-10.4,7.7
	c0.5,16.5,1,33.5,1.7,50.8C376,446.8,379.2,446.9,382.7,447z"/>
<path class="st0" d="M64.5,408.6l16.9-0.2c0.2,0,0.4,0.2,0.4,0.4l0.8,61.2c0,1.5,1,2.7,2.5,3.1c4.2,1,8.6,0.9,13-0.4
	c0.7-0.2,1.3-0.8,1.4-1.6c0.1-0.8,0.2-1.7,0.2-2.8c-0.1-20.7-0.1-39.7-0.1-57c0-3.1-0.1-7.1-0.3-11.9c-0.1-2.5-1.1-6.1-4-6.6
	c-1.4-0.2-2.8-0.4-4.2-0.4c-1.3,0-12.5,0.1-33.5,0.4c-2.9,0-5.6,0.2-7.9,0.6c-1.4,0.2-2.5,1.2-2.8,2.6c-0.4,1.4-0.6,3-0.6,4.9
	c-0.5,22.8-0.6,44.4-0.3,64.8c0,3.2-0.2,6.5,3.1,7.5c2.6,0.8,11.2,1.5,13.3-1.4c0.6-0.8,0.8-2,0.8-3.8c0-18.7,0.3-38.2,0.8-58.5
	C63.9,408.9,64.2,408.6,64.5,408.6z"/>
<path class="st0" d="M125.3,418.3c-0.1,0.1-0.3,0.2-0.4,0.1s-0.1-0.2-0.1-0.3c0.4-3-0.5-5.4-3.9-5.9s-11.3-0.4-11.3,4.6
	c-0.3,23.5-0.5,47.9-0.6,73.2c0,2.3,0.5,3.4,2.7,4.1c2.1,0.7,4.9,0.8,8.6,0.1c3-0.5,4.5-2.4,4.6-5.6c0.1-7.7,0.3-14.3,0.3-19.7
	c0-0.2,0.2-0.4,0.4-0.4c0.1,0,0.2,0,0.3,0.1c2.6,2.8,5.8,4.6,9.7,5.3c9.5,1.7,16.3-5.1,19-13.7c4.1-12.7,5.1-34.9-5.9-44.9
	C141.2,408.7,131.1,410.5,125.3,418.3z"/>
<path class="st0" d="M280.8,447.5l27-1c1.3-0.1,2.4-1,2.6-2.4c2.8-18.9-5.8-36.5-28-31.6c-9.2,2-15.4,10.6-17.1,19.5
	c-3.6,18-0.5,42.4,23.4,42.5c7.8,0,17.4-3.4,21.4-10.4c0.3-0.5,0.3-1.1,0-1.6c-1.9-2.9-4.6-6.5-8-7.2c-0.4-0.1-0.8,0-1.1,0.2
	c-3.1,2.4-5.4,4.3-9.2,5.2c-7.7,1.9-11-6-11.5-12.6C280.2,447.8,280.5,447.6,280.8,447.5L280.8,447.5z"/>
<path class="st0" d="M194,441.7l-1.2,28.9c0,0.9,0.5,1.8,1.4,2.1c3.4,1.2,7,0.9,10.7-0.9c0.4-0.2,0.7-0.5,0.9-0.8
	c0.6-1.1,0.9-2.1,0.9-3.1c0.3-15.3,0.5-31.6,0.7-48.8c0-3.4,0.1-6.4-3.6-6.8c-3.8-0.4-6.8,0.3-9.1,2c-0.6,0.5-1.2,1.1-1.5,1.8
	l-14.6,29.5c-0.1,0.1-0.2,0.2-0.4,0.2c-0.1,0-0.2-0.2-0.2-0.3l0.2-30.2c0-1-0.6-2-1.5-2.4c-2.1-1.2-6.2-0.4-8.8,0.3
	c-2.5,0.7-3.7,2.4-3.7,5.1c0.3,18,0.4,35.2,0.4,51.6c0,1.1,0.6,2,1.6,2.4c2.9,1.2,6.1,1.3,9.8,0.3c2.7-0.8,4.2-4,5.4-6.4
	c3.4-7,7.5-15.1,12.2-24.4c0-0.1,0.2-0.2,0.3-0.1C194,441.5,194,441.6,194,441.7z"/>
<path class="st0" d="M348,426.4h14.8c1.2,0,2.2-0.8,2.4-1.9c0.6-2.4,0.5-5.7,0.6-9.1c0-1.4-0.4-2.4-1.5-3.1c-0.3-0.2-0.6-0.3-1-0.3
	h-48.1c-1.2,0-2.2,0.8-2.4,2c-0.5,2.4-0.6,5.1-0.4,7.9c0.2,2.5-0.1,4.2,3,4.2c7.3,0,12.2,0,14.7,0c0.5,0,0.9,0.4,0.9,0.9l0,0
	c-0.3,15.7-0.5,29.8-0.5,42.1c0,2.5,0.9,4,2.7,4.5c2.4,0.7,7.4,0.6,10.7-0.2c1.1-0.3,2-1.2,2.2-2.4c0.4-2.1,0.6-4.4,0.6-7.1
	c0.2-16.9,0.4-29.2,0.6-37C347.4,426.7,347.7,426.4,348,426.4z"/>
<path class="st0" d="M248.9,440.6c0,0,1.1-0.6,3.3-1.7c3.6-1.8,5.6-4.9,6-9.1c1.4-13.9-9.7-17-20.9-17.3c-6.8-0.2-13.1,0-18.9,0.4
	c-0.9,0.1-1.5,0.8-1.6,1.6c-0.4,18.2-0.8,35.9-1,53.1c0,3.3,1.5,5.1,4.6,5.5c7.7,1,15.5,0.8,23.6-0.7c6.6-1.2,13-4.7,15.1-11.7
	c2.6-8.5-0.7-17.5-10.1-19.6c-0.2,0-0.3-0.3-0.3-0.5C248.8,440.7,248.8,440.6,248.9,440.6z"/>
<circle class="st0" cx="382.8" cy="464.9" r="9.8"/>
<path d="M66.4,232.6c0.1-0.2,0.2-0.5,0.2-0.9s0-0.7,0.1-0.9c1.6-4,4-6.8,7-8.2c8.9-4.2,16.9,1.4,20.7,9.6c2.8,6,4.7,12.5,5.5,19.7
	c0,0.2,0.2,0.3,0.4,0.3c0.1,0,0.2-0.1,0.2-0.1c2-2.5,4.4-4.5,7.1-5.8c0.3-0.1,0.4-0.4,0.4-0.8c-0.8-3.8-1.2-6.1-1.3-6.7
	c-1.9-22.1,2.8-42.5,14.1-61.2c6.9-11.5,16-21.3,27.4-29.4c0.5-0.4,0.7-1,0.5-1.6c-8.1-19.8-11.4-39.9-9-61.4
	c2.1-18.9,10.6-40.5,27.7-50.4c15.9-9.2,31.7-3.2,41.8,10.8c4.1,5.7,7.2,12.3,9.2,19.8c5.5,20.7,3.6,42.2-2.1,62.6
	c-0.1,0.4,0.1,0.8,0.5,0.9c0.1,0,0.1,0,0.2,0c11.9,0.1,22.9,1.8,33.2,5.1c4.7,1.5,8.8,2.2,12.4,3.9c0.3,0.1,0.6,0,0.7-0.2v-0.1
	c1.5-7.7,3.2-14.8,5.1-21.2c8.2-27.6,27.6-62.6,56.5-71.5c24.2-7.4,40.5,11.4,42.2,33.7c1.4,19.3-4.9,38.3-14.7,55
	c-10.1,17.3-23.6,31.5-40.4,42.6c-0.1,0.1-0.1,0.2,0,0.2l0,0c20.6,27.7,23,65.9,7.3,96.1c-8.1,15.7-19.8,27.9-35.1,36.7
	c-0.2,0.1-0.2,0.3-0.1,0.5c0,0.1,0.1,0.1,0.1,0.1c5.9,3.8,11.2,8.1,16,13c6.3,6.3,9.9,10,10.8,11c0.5,0.6,1,1.3,1.5,2
	c2.4,3.9,5.2,7.4,8.4,10.3c0.7,0.6,1.2,1.3,1.7,2.1c8.8,13.5,14.9,28.3,18.4,44.3c0,0.1-0.1,0.3-0.2,0.3l0,0l-7.6,0.3
	c-0.2,0-0.3-0.1-0.3-0.2c-8.1-33.5-26.5-59.9-55-79.3c-0.4-0.3-1-0.3-1.5-0.1c-3.9,2-12.7,6.3-16.5,4.8c-2.2-0.8-1.9-3.3-0.6-4.7
	c0.4-0.5,1.2-1,2.3-1.4c4.6-2,8.8-3.9,12.5-5.7c22.2-11.1,38.6-30.3,44.8-54.3c12.5-49.1-18.6-93.4-64.6-108.6
	c-32.8-10.9-72.4-9.1-101.6,11.7c-21.3,15.2-33.8,36.4-37.5,63.4c-1.1,8.5-0.9,16.8,0.8,24.8c0.1,0.5,0.5,1,1,1.2
	c10.3,3.2,11.4,13.7,9,22.7c-0.1,0.5-0.1,1.1,0.2,1.6c7.1,13.2,20,24.9,32.8,32.4c3.6,2.1,7.9,4.4,13,6.8c1.8,0.8,2.4,2.1,1.9,3.7
	c-0.4,1.3-1.7,2.1-3.1,2c-4.7-0.5-9.7-3.6-14-5.7c-0.7-0.4-1.5-0.6-2.3-0.7c-3-0.4-6.6-0.8-10.7-1.4c-12.5-1.8-23-7.2-31.4-16.5
	c-1.1-1.2-1.3-2.5-0.6-3.9c3-6.2,5.3-12.9,7-19.9c1-4,1.4-10.3-2.7-12.8c-3.3-2.1-8.6,2.1-10.5,4.6c-3.1,4-4.8,8.5-5.2,13.7
	c0,0.5-0.4,1-0.8,1.2c-8,3.8-14.5,8.3-16.9,17.3c-0.2,0.8-1,1.3-1.7,1.1c-0.1,0-0.2-0.1-0.3-0.1c-1.8-0.9-1.3-5.5-0.8-7.3
	c2-6.9,8.2-10.9,14.4-14.4c0.4-0.2,0.6-0.6,0.7-1c0.7-3.6,0.1-6.7-0.8-11c-1.4-7.7-3.5-14.8-6.3-21.4c-0.3-0.7-1.1-1.9-2.5-3.6
	c-4.7-5.9-11-3.2-12.4,3.5s0.3,13,2,20.2c0.3,1.2,0.3,2.2,0.2,3c-0.2,1.1-1.3,1.8-2.4,1.6c-0.4-0.1-0.8-0.3-1.1-0.6
	c-1.1-1.2-2-2.6-2.6-4.3c-2.3-6.6-4.3-13.3-9.2-17.9c-2.8-2.6-7.2-3.1-9.7,0.4c-5.3,7.3,3.4,20.6,7,27.2c0.8,1.5,0.7,2.8-0.4,3.7
	c-0.7,0.6-1.8,0.6-2.5,0c-3.1-2.5-5.7-6.8-7.6-10.2c-1.8-3.4-4.2-5.9-7.8-4.4c-1.2,0.5-2.1,1.4-2.8,2.7c-2.5,4.6,1,11,3.3,15.3
	c8.7,15.6,19.7,28.8,35.8,36c1,0.5,1.9,1.2,2.6,2.1c2.7,3.7,5.5,7.2,8.4,10.3c13.7,15.2,33.6,25.1,54.3,24.7c0.6,0,1.1-0.4,1.3-0.9
	c0.8-2.1,4.2-9.9,6.7-9.5c1.1,0.2,1.9,1.2,1.7,2.4c0,0.1,0,0.2-0.1,0.3c-6.1,20-11.1,40-15.1,60.1c0,0.1-0.2,0.2-0.3,0.2h-7.4
	c-0.1,0-0.2-0.1-0.2-0.2l0,0c2.9-15.4,6.6-30.3,11.2-44.8c0.1-0.2-0.1-0.5-0.3-0.6h-0.1c-14.5,0.3-27.9-3.6-40.1-11.7
	c-10.2-6.8-18.6-15.1-25.1-25c-0.7-1.1-1.8-1.9-3-2.3c-4.2-1.5-7.9-4-11.2-7.4c-0.5-0.5-1.1-1-1.8-1.4c-4.2-2.6-8-5.8-11.3-9.7
	c-6.5-7.7-12.8-17.2-16.4-26.7c-3.9-10.4,0.8-20.3,12.6-21.3c0.3,0,0.5-0.3,0.5-0.6c0,0,0,0,0-0.1c-1.8-9.4,3.4-17.4,13-17.8
	c3.8-0.2,7.3,1.4,10.5,4.6c0.2,0.2,0.5,0.2,0.7,0C66.3,232.7,66.3,232.7,66.4,232.6z M167.2,137.9c10-4.2,20.2-6.9,30.5-8.1l9.1-0.8
	c0.3,0,0.5-0.2,0.6-0.5c7.1-22.7,9.4-50.7-1.6-72.5c-5-9.9-14.7-19-26.3-17c-12,2-21,13-25.7,24c-10.8,25.6-8.3,53.9,1.8,79.7
	c0.1,0.2,0.4,0.4,0.6,0.3l0,0L167.2,137.9z M279.5,146.5c8.5,5.3,16,11.3,22.6,18.1l4.8,5.2c0.2,0.2,0.5,0.3,0.8,0.1
	c25.1-16.9,44.2-43.1,50.3-73c2.6-12.8,1.8-28.5-7.4-38.4c-6.6-7.1-16.7-8.3-25.5-4.9c-15.1,5.7-26.5,19.2-34.9,33.1
	c-10.1,16.8-16.1,35.3-19.6,54.6c-0.1,0.3,0.1,0.6,0.4,0.8L279.5,146.5z M141.9,298.4c-7.6-5.9-14.1-12.6-19.5-20.3
	c0-0.1-0.1-0.1-0.2,0c0,0,0,0,0,0.1l-3.8,7.7c-0.1,0.2-0.1,0.4,0.1,0.5c6.1,6.3,14.9,10.1,23.3,12.4c0.1,0,0.3,0,0.3-0.2
	C142,298.5,142,298.4,141.9,298.4z"/>
<path class="st0" d="M197.8,129.7c1.9-9.1,3.2-16.3,3.8-21.6c1.8-15,1.4-29.5-6-42.3c-2.7-4.6-7.9-9.2-13.4-9
	c-5.8,0.3-11.3,3.9-14.2,8.6c-7.2,11.8-9.5,26.5-8.3,40c0.8,9.9,2.6,19.9,5.2,30c0.1,0.2,0.2,0.5,0.4,0.6l2,1.7l-11,5.1
	c-0.2,0.1-0.5,0-0.6-0.2l0,0c-10.1-25.8-12.6-54.1-1.8-79.7c4.6-11,13.6-22,25.8-24.1c11.6-2,21.3,7.1,26.3,17
	c11,21.8,8.7,49.8,1.6,72.5c-0.1,0.3-0.3,0.4-0.6,0.5L197.8,129.7z"/>
<path class="st0" d="M302.2,164.5c7.5-5.4,12.9-11.7,19.5-19.5c2.3-2.7,3.8-5.1,6.2-8c1.3-1.5,2.8-3.6,4.5-6.1
	c7.7-11.5,14.4-26.3,13.4-40c-0.3-4.3-1.3-8-3.1-11c-1.3-2.2-3.9-4.1-8-5.8c-0.4-0.2-0.9-0.3-1.3-0.3c-5.7-0.3-11,1.2-15.7,4.6
	c-6.1,4.3-11.3,9.8-15.6,16.3c-10.5,16.1-18,33.4-22.6,51.9l-8.6-4.6c-0.3-0.1-0.4-0.5-0.4-0.8c3.6-19.2,9.5-37.8,19.6-54.6
	c8.4-13.9,19.8-27.4,34.9-33.1c8.8-3.3,18.9-2.2,25.5,4.9c9.2,9.9,10,25.6,7.4,38.4c-6.1,30-25.2,56.1-50.3,73
	c-0.2,0.2-0.6,0.1-0.8-0.1L302.2,164.5z"/>
<path class="st1" d="M197.8,129.7c-10.3,1.2-20.5,4-30.5,8.1l-2-1.7c-0.2-0.2-0.3-0.4-0.4-0.6c-2.7-10.1-4.4-20.1-5.2-30
	c-1.1-13.5,1.1-28.2,8.3-40c2.9-4.7,8.4-8.4,14.2-8.6c5.6-0.2,10.7,4.4,13.4,9c7.4,12.8,7.8,27.3,6,42.3
	C201,113.5,199.7,120.7,197.8,129.7z"/>
<path class="st1" d="M302.2,164.5c-6.6-6.8-14.2-12.8-22.6-18.1c4.6-18.5,12.1-35.8,22.6-51.9c4.3-6.6,9.5-12,15.6-16.3
	c4.7-3.3,9.9-4.9,15.7-4.6c0.5,0,0.9,0.1,1.3,0.3c4.1,1.7,6.8,3.7,8,5.8c1.8,3,2.8,6.7,3.1,11c0.9,13.8-5.8,28.6-13.4,40
	c-1.7,2.6-3.2,4.6-4.5,6.1c-2.4,2.9-3.9,5.4-6.2,8C315,152.9,309.6,159.1,302.2,164.5z"/>
<path d="M164.1,172.1L164,172c-0.5-1.4-0.1-3,1.2-3.9c4.3-3.1,9-5,14.1-5.8c3.3-0.5,11-0.4,9.8,4.7c-0.2,1-1.2,1.7-2.2,1.6
	c-6.4-0.3-12.9,1.3-19.5,4.7c-1.2,0.6-2.6,0.1-3.2-1C164.1,172.3,164.1,172.2,164.1,172.1z"/>
<path d="M268.9,175.6c2.8,1.5,11.7,8.3,8.3,12.1c-1.3,1.4-3,0.7-4.1-0.5c-2.4-2.5-4.8-4.4-7.3-5.8c-2.5-1.3-5.4-2.3-8.8-2.9
	c-1.6-0.3-3.1-1.3-2.6-3.2C255.6,170.3,266.2,174.1,268.9,175.6z"/>
<path d="M179.4,193.1c6.3,1,10.4,8.8,9,17.5l0,0c-1.4,8.6-7.6,14.8-14,13.8c-6.3-1-10.4-8.8-9-17.5l0,0
	C166.8,198.3,173.1,192.1,179.4,193.1z"/>
<path d="M258.4,204.6c6.3,1.2,10.1,9.2,8.5,17.7c-1.7,8.5-8.2,14.5-14.5,13.2l0,0c-6.3-1.2-10.1-9.2-8.5-17.7
	C245.6,209.3,252.1,203.4,258.4,204.6L258.4,204.6z"/>
<path d="M213.3,224.5c5.8,0.8,18.8,5.2,12.7,13.7c-3.9,5.4-9.2,7.9-15.6,7c-6.4-0.9-10.8-4.8-13-11.1
	C193.8,224.3,207.5,223.7,213.3,224.5z"/>
<path d="M246.4,250.8c0.9,1.3,1.1,2.8,0.3,4.5c-5.1,11.9-16.3,26.5-29.7,29.1c-23.3,4.7-35.3-15.9-40.4-34.6
	c-0.2-0.6-0.1-1.4,0.1-2.5c0.7-2.9,4.7-2.4,6.2-0.7c14.2,15,38.3,17.5,55.2,5.7C240.8,250.5,244.2,247.9,246.4,250.8z M209.6,280.5
	c5.5,0.3,10.8-1.9,15.9-6.6c0.2-0.2,0.2-0.5,0-0.7c0-0.1-0.1-0.1-0.2-0.1c-4.5-2.2-9.9-2.9-15.2-3.2c-5.3-0.3-10.7-0.1-15.4,1.5
	c-0.3,0.1-0.4,0.4-0.3,0.7c0,0.1,0.1,0.1,0.1,0.2C199,277.4,204.1,280.2,209.6,280.5z"/>
<path class="st2" d="M210.2,269.8c5.3,0.3,10.6,1,15.2,3.2c0.3,0.1,0.4,0.4,0.3,0.7c0,0.1-0.1,0.1-0.1,0.2
	c-5.1,4.7-10.3,6.9-15.9,6.6c-5.5-0.3-10.5-3.1-15.1-8.3c-0.2-0.2-0.2-0.6,0-0.7c0.1,0,0.1-0.1,0.2-0.1
	C199.5,269.6,204.9,269.5,210.2,269.8z"/>
<path class="st0" d="M141.9,298.4c0.1,0.1,0.1,0.2,0,0.3c-0.1,0.1-0.2,0.1-0.3,0.1c-8.4-2.4-17.2-6.2-23.3-12.4
	c-0.1-0.1-0.2-0.3-0.1-0.5l3.8-7.7c0-0.1,0.1-0.1,0.2-0.1l0,0C127.8,285.7,134.3,292.5,141.9,298.4z"/>
<path d="M290.5,396.7c0,0.1-0.1,0.3-0.2,0.3l0,0l-7.6,0.3c-0.1,0-0.1-0.1-0.2-0.1c-2.6-11.4-5.1-19.9-7.6-25.8
	c-3.2-7.3-5.7-13.7-7.7-19c-0.5-1.4,0.2-2.9,1.6-3.5h0.1c1.4-0.5,3,0,3.7,1.4C280.6,364.8,286.6,380.2,290.5,396.7z"/>
<path d="M384.5,384c5.3,0.1,10.5,1.6,9.9,8.2c-1.4,16.5-2.9,33.3-4.5,50.7c-0.4,4.2-3.6,4.2-7.1,4.1c-3.6-0.1-6.8-0.2-6.9-4.5
	c-0.7-17.4-1.2-34.3-1.7-50.8C373.9,385.1,379.1,383.9,384.5,384z"/>
<path d="M63.9,409.3c-0.5,20.3-0.7,39.8-0.8,58.5c0,1.7-0.3,3-0.8,3.8c-2.1,3-10.7,2.2-13.3,1.4c-3.3-1-3-4.3-3.1-7.5
	c-0.3-20.3-0.2-41.9,0.3-64.8c0-1.8,0.3-3.5,0.6-4.9c0.4-1.3,1.5-2.3,2.8-2.6c2.3-0.4,4.9-0.6,7.9-0.6c21-0.3,32.2-0.5,33.5-0.4
	c1.4,0,2.8,0.2,4.2,0.4c2.9,0.5,3.9,4.1,4,6.6c0.2,4.8,0.3,8.8,0.3,11.9c0,17.3,0.1,36.3,0.1,57c0,1.1-0.1,2-0.2,2.8
	s-0.7,1.4-1.4,1.6c-4.4,1.3-8.7,1.4-13,0.4c-1.4-0.3-2.5-1.6-2.5-3.1l-0.8-61.2c0-0.2-0.2-0.4-0.4-0.4l-16.9,0.2
	C64.2,408.6,63.9,408.9,63.9,409.3z"/>
<path d="M125.3,418.3c5.8-7.7,15.9-9.5,23.3-2.9c11,10,10,32.2,5.9,44.9c-2.8,8.6-9.5,15.4-19,13.7c-3.8-0.7-7.1-2.5-9.7-5.3
	c-0.1-0.1-0.4-0.2-0.5,0c-0.1,0.1-0.1,0.2-0.1,0.3c-0.1,5.5-0.2,12-0.3,19.7c-0.1,3.2-1.6,5.1-4.6,5.6c-3.7,0.6-6.6,0.6-8.6-0.1
	c-2.1-0.8-2.7-1.8-2.7-4.1c0.1-25.4,0.3-49.8,0.6-73.2c0.1-5,8-5.1,11.3-4.6c3.4,0.5,4.4,3,3.9,5.9c0,0.1,0.1,0.3,0.2,0.3
	C125.1,418.4,125.2,418.4,125.3,418.3z M125.2,443.6c-0.2,11.6,2.3,17.5,7.5,17.6s7.9-5.7,8.1-17.3c0.2-11.6-2.3-17.5-7.5-17.6
	S125.4,432,125.2,443.6z"/>
<path d="M280.3,448.1c0.5,6.6,3.8,14.5,11.5,12.6c3.8-0.9,6.1-2.8,9.2-5.2c0.3-0.2,0.7-0.3,1.1-0.2c3.4,0.7,6.1,4.3,8,7.2
	c0.3,0.5,0.3,1.1,0,1.6c-4,7-13.6,10.4-21.4,10.4c-23.9-0.1-27-24.5-23.4-42.5c1.8-8.9,7.9-17.5,17.1-19.5
	c22.2-4.9,30.8,12.7,28,31.6c-0.2,1.3-1.3,2.3-2.6,2.4l-27,1C280.5,447.5,280.2,447.8,280.3,448.1L280.3,448.1z M281.4,436.1l14-0.5
	c0.1,0,0.2-0.1,0.2-0.2v-0.6c-0.2-5.9-3.5-10.6-7.4-10.5h-0.4c-3.9,0.1-6.9,5-6.7,11l0,0v0.6C281.1,436,281.2,436.1,281.4,436.1
	C281.3,436.1,281.3,436.1,281.4,436.1z"/>
<path d="M194,441.7c0-0.1-0.1-0.2-0.2-0.2c-0.1,0-0.2,0-0.2,0.1c-4.7,9.3-8.8,17.4-12.2,24.4c-1.1,2.4-2.6,5.6-5.4,6.4
	c-3.6,1-6.9,0.9-9.8-0.3c-1-0.4-1.6-1.4-1.6-2.4c0-16.4-0.2-33.6-0.4-51.6c0-2.6,1.1-4.4,3.7-5.1c2.6-0.7,6.7-1.5,8.8-0.3
	c0.9,0.5,1.5,1.4,1.5,2.4l-0.2,30.2c0,0.1,0.1,0.3,0.2,0.3c0.1,0,0.2-0.1,0.3-0.2l14.6-29.5c0.4-0.7,0.9-1.3,1.5-1.8
	c2.3-1.7,5.3-2.4,9.1-2s3.7,3.4,3.6,6.8c-0.2,17.2-0.4,33.5-0.7,48.8c0,1-0.3,2-0.9,3.1c-0.2,0.4-0.5,0.6-0.9,0.8
	c-3.7,1.9-7.3,2.2-10.7,0.9c-0.9-0.3-1.4-1.2-1.4-2.1L194,441.7z"/>
<path d="M347.4,427c-0.2,7.8-0.4,20.1-0.6,37c0,2.7-0.2,5.1-0.6,7.1c-0.2,1.2-1.1,2.1-2.2,2.4c-3.3,0.9-8.3,1-10.7,0.2
	c-1.8-0.5-2.7-2.1-2.7-4.5c0-12.3,0.2-26.4,0.5-42.1c0-0.5-0.4-0.9-0.9-0.9l0,0c-2.5,0-7.4,0-14.7,0c-3.1,0-2.8-1.7-3-4.2
	c-0.2-2.9,0-5.5,0.4-7.9c0.2-1.2,1.2-2,2.4-2h48.1c0.3,0,0.7,0.1,1,0.3c1,0.6,1.5,1.7,1.5,3.1c-0.1,3.5,0,6.8-0.6,9.1
	c-0.3,1.1-1.3,1.9-2.4,1.9H348C347.7,426.4,347.4,426.7,347.4,427z"/>
<path d="M249,441.2c9.4,2.1,12.6,11.1,10.1,19.6c-2.1,6.9-8.5,10.5-15.1,11.7c-8.1,1.4-16,1.7-23.6,0.7c-3.1-0.4-4.6-2.2-4.6-5.5
	c0.2-17.2,0.5-34.9,1-53.1c0-0.9,0.7-1.6,1.6-1.6c5.9-0.4,12.2-0.6,18.9-0.4c11.2,0.3,22.2,3.4,20.9,17.3c-0.4,4.3-2.4,7.3-6,9.1
	c-2.1,1.1-3.2,1.7-3.3,1.7c-0.2,0.2-0.2,0.4,0,0.5C248.9,441.2,249,441.2,249,441.2z M231.4,424.7l-0.1,11.3c0,0.3,0.2,0.6,0.5,0.6
	l0,0l4.1,0.1c3.3,0,6-2.3,6-5.3l0,0v-1.6c0-3-2.6-5.4-5.9-5.5l-4.1-0.1C231.6,424.1,231.4,424.4,231.4,424.7L231.4,424.7z
	 M230.7,447.5v13.7c0,0.2,0.1,0.3,0.3,0.3h5.7c4.2,0,7.6-3.1,7.6-6.9l0,0v-0.5c0-3.8-3.4-6.9-7.6-6.9H231
	C230.8,447.2,230.7,447.4,230.7,447.5z"/>
<path class="st0" d="M231.4,424.7c0-0.3,0.3-0.6,0.6-0.6l0,0l4.1,0.1c3.3,0,5.9,2.5,5.9,5.5v1.6c0,3-2.7,5.4-6,5.3l0,0l-4.1-0.1
	c-0.3,0-0.6-0.3-0.6-0.6l0,0L231.4,424.7z"/>
<path class="st0" d="M281.4,436.1c-0.1,0-0.2-0.1-0.2-0.2l0,0v-0.6c-0.2-5.9,2.8-10.9,6.7-11l0,0h0.4c3.9-0.1,7.2,4.6,7.4,10.5v0.6
	c0,0.1-0.1,0.2-0.2,0.2L281.4,436.1z"/>
<path class="st0" d="M133.3,426.3c5.2,0.1,7.7,5.9,7.5,17.6c-0.2,11.6-2.9,17.4-8.1,17.3c-5.2-0.1-7.7-5.9-7.5-17.6
	C125.4,432,128.1,426.2,133.3,426.3z"/>
<path class="st0" d="M230.7,447.5c0-0.2,0.1-0.3,0.3-0.3h5.7c4.2,0,7.6,3.1,7.6,6.9v0.5c0,3.8-3.4,6.9-7.6,6.9l0,0H231
	c-0.2,0-0.3-0.1-0.3-0.3V447.5z"/>
<path d="M392.6,464.9c0,5.4-4.4,9.8-9.8,9.8s-9.8-4.4-9.8-9.8s4.4-9.8,9.8-9.8S392.6,459.5,392.6,464.9z"/>
</svg>
